/* XPM */
static char * title_1_active_xpm[] = {
"4 10 3 1",
" 	c None",
".	c #CA769A",
"#	c #181D28",
"....",
"....",
"####",
"####",
"####",
"####",
"####",
"####",
"####",
"####"};
