/* XPM */
static char * top_right_active_xpm[] = {
"2 10 2 1",
" 	c None",
".	c #6A8F9C",
"  ",
". ",
"..",
"..",
"..",
"..",
"..",
"..",
"..",
".."};
