<?xml version="1.0" encoding="UTF-8" standalone="no"?>
<!-- Generator: Adobe Illustrator 19.0.0, SVG Export Plug-In . SVG Version: 6.00 Build 0)  -->

<svg
   xmlns:dc="http://purl.org/dc/elements/1.1/"
   xmlns:cc="http://creativecommons.org/ns#"
   xmlns:rdf="http://www.w3.org/1999/02/22-rdf-syntax-ns#"
   xmlns:svg="http://www.w3.org/2000/svg"
   xmlns="http://www.w3.org/2000/svg"
   xmlns:sodipodi="http://sodipodi.sourceforge.net/DTD/sodipodi-0.dtd"
   xmlns:inkscape="http://www.inkscape.org/namespaces/inkscape"
   version="1.1"
   id="Layer_1"
   x="0px"
   y="0px"
   viewBox="0 0 16 16"
   xml:space="preserve"
   inkscape:version="0.91 r13725"
   sodipodi:docname="chrome.svg"
   width="16"
   height="16"><metadata
     id="metadata45"><rdf:RDF><cc:Work
         rdf:about=""><dc:format>image/svg+xml</dc:format><dc:type
           rdf:resource="http://purl.org/dc/dcmitype/StillImage" /><dc:title /></cc:Work></rdf:RDF></metadata><defs
     id="defs43" /><sodipodi:namedview
     pagecolor="#ffffff"
     bordercolor="#666666"
     borderopacity="1"
     objecttolerance="10"
     gridtolerance="10"
     guidetolerance="10"
     inkscape:pageopacity="0"
     inkscape:pageshadow="2"
     inkscape:window-width="1680"
     inkscape:window-height="1014"
     id="namedview41"
     showgrid="false"
     inkscape:showpageshadow="false"
     inkscape:zoom="29.5"
     inkscape:cx="3.8802111"
     inkscape:cy="8.5494704"
     inkscape:window-x="0"
     inkscape:window-y="26"
     inkscape:window-maximized="1"
     inkscape:current-layer="Layer_1"
     inkscape:snap-bbox="true"
     inkscape:bbox-paths="true"
     inkscape:bbox-nodes="true"
     inkscape:snap-bbox-edge-midpoints="true"
     inkscape:snap-bbox-midpoints="true"
     inkscape:object-paths="true"
     inkscape:snap-intersection-paths="true"
     inkscape:object-nodes="true"
     inkscape:snap-smooth-nodes="true"
     inkscape:snap-midpoints="true"
     inkscape:snap-object-midpoints="true"
     inkscape:snap-center="true"
     inkscape:snap-text-baseline="true"
     inkscape:snap-page="true" /><path
     style="fill:#aaaaaa;fill-opacity:1"
     d="m 5.3838867,8.0004775 c 0,1.4425966 1.1735664,2.6161655 2.6161133,2.6161655 1.4424649,0 2.615922,-1.1735963 2.615922,-2.6161655 C 10.615922,6.5578811 9.4424375,5.3842298 8,5.3842298 6.5574531,5.3842024 5.3838867,6.5578537 5.3838867,8.0004775 Z"
     id="path3"
     inkscape:connector-curvature="0" /><path
     style="fill:#aaaaaa;fill-opacity:1"
     d="m 14.023801,4.5470403 c 0.02037,-0.03585 0.02001,-0.079877 -0.0011,-0.1153716 C 13.413379,3.4053289 12.546227,2.5456065 11.514984,1.9455046 10.45216,1.3269442 9.2366484,0.99999868 8,0.99999868 c -2.140168,0 -4.1346758,0.96051872 -5.472168,2.63525302 -0.029504,0.036917 -0.033359,0.088081 -0.00973,0.1289898 l 1.9705548,3.4132664 c 0.020645,0.035795 0.058761,0.057371 0.09934,0.057371 0.00514,0 0.010363,-3.555e-4 0.015558,-0.00107 0.046183,-0.00629 0.083946,-0.039897 0.095621,-0.085018 C 5.0877266,5.6431665 6.4450976,4.5916139 8,4.5916139 c 0.096496,0 0.1961368,0.0044 0.2962969,0.012934 0.00326,3.282e-4 0.00656,4.649e-4 0.00982,4.649e-4 l 5.6179375,0 c 0.04129,5.47e-5 0.07938,-0.022068 0.09975,-0.057973 z"
     id="path5"
     inkscape:connector-curvature="0" /><path
     style="fill:#aaaaaa;fill-opacity:1"
     d="M 9.0343868,11.325144 C 9.0058941,11.28828 8.958043,11.272452 8.9129258,11.28492 8.6165469,11.367448 8.3094219,11.409287 8,11.409287 c -1.3146602,0 -2.5263437,-0.771123 -3.086918,-1.9644628 -0.00136,-0.00292 -0.0029,-0.0058 -0.00452,-0.00864 L 2.0975508,4.5671394 c -0.020481,-0.035577 -0.058379,-0.057371 -0.099367,-0.057371 -1.913e-4,0 -4.101e-4,0 -6.014e-4,0 -0.041207,2.188e-4 -0.079187,0.022506 -0.099367,0.058384 C 1.310625,5.6108712 1,6.7977578 1,8.0004775 1,9.687709 1.6086445,11.317487 2.7138242,12.589556 c 1.0942149,1.259407 2.6006094,2.088228 4.2418086,2.333821 0.00569,8.75e-4 0.011375,0.0012 0.017035,0.0012 0.040523,0 0.078641,-0.02158 0.09934,-0.05737 l 1.9710742,-3.414306 c 0.023297,-0.04044 0.019851,-0.09092 -0.0087,-0.127786 z"
     id="path7"
     inkscape:connector-curvature="0" /><path
     style="fill:#aaaaaa;fill-opacity:1"
     d="m 14.411317,5.370803 -3.94636,0 c -0.04665,0 -0.08865,0.02822 -0.106203,0.071372 -0.01764,0.043152 -0.0073,0.092729 0.02589,0.1253255 0.660298,0.6473554 1.023942,1.511371 1.023942,2.4329494 0,0.6976715 -0.210492,1.3690638 -0.608781,1.941684 -0.0018,0.00263 -0.0035,0.00534 -0.0052,0.00814 L 7.9787294,14.827792 c -0.020617,0.03572 -0.02048,0.07974 3.282e-4,0.115372 0.020641,0.03526 0.058376,0.05683 0.099091,0.05683 4.102e-4,0 8.75e-4,0 0.00129,0 C 9.9324935,14.97935 11.671364,14.242058 12.975716,12.924076 14.281078,11.604973 15,9.856405 15,8.0004775 15,7.1183318 14.837879,6.2581172 14.518121,5.443652 14.500866,5.3996798 14.458516,5.370803 14.411317,5.370803 Z"
     id="path9"
     inkscape:connector-curvature="0" /><g
     id="g11"
     transform="translate(0,-496)" /><g
     id="g13"
     transform="translate(0,-496)" /><g
     id="g15"
     transform="translate(0,-496)" /><g
     id="g17"
     transform="translate(0,-496)" /><g
     id="g19"
     transform="translate(0,-496)" /><g
     id="g21"
     transform="translate(0,-496)" /><g
     id="g23"
     transform="translate(0,-496)" /><g
     id="g25"
     transform="translate(0,-496)" /><g
     id="g27"
     transform="translate(0,-496)" /><g
     id="g29"
     transform="translate(0,-496)" /><g
     id="g31"
     transform="translate(0,-496)" /><g
     id="g33"
     transform="translate(0,-496)" /><g
     id="g35"
     transform="translate(0,-496)" /><g
     id="g37"
     transform="translate(0,-496)" /><g
     id="g39"
     transform="translate(0,-496)" /></svg>