<?xml version="1.0" encoding="UTF-8" standalone="no"?>
<svg
   xmlns:dc="http://purl.org/dc/elements/1.1/"
   xmlns:cc="http://creativecommons.org/ns#"
   xmlns:rdf="http://www.w3.org/1999/02/22-rdf-syntax-ns#"
   xmlns:svg="http://www.w3.org/2000/svg"
   xmlns="http://www.w3.org/2000/svg"
   xmlns:sodipodi="http://sodipodi.sourceforge.net/DTD/sodipodi-0.dtd"
   xmlns:inkscape="http://www.inkscape.org/namespaces/inkscape"
   enable-background="new 0 0 40 40"
   height="16"
   id="Layer_1"
   version="1.1"
   viewBox="0 0 16 16"
   width="16"
   xml:space="preserve"
   inkscape:version="0.91 r13725"
   sodipodi:docname="icon-active.svg"
   inkscape:export-filename="/home/marko/.scripts/genmon/skype-icon-missing.png"
   inkscape:export-xdpi="36"
   inkscape:export-ydpi="36"><metadata
     id="metadata23"><rdf:RDF><cc:Work
         rdf:about=""><dc:format>image/svg+xml</dc:format><dc:type
           rdf:resource="http://purl.org/dc/dcmitype/StillImage" /><dc:title /></cc:Work></rdf:RDF></metadata><defs
     id="defs21" /><sodipodi:namedview
     pagecolor="#343434"
     bordercolor="#666666"
     borderopacity="1"
     objecttolerance="10"
     gridtolerance="10"
     guidetolerance="10"
     inkscape:pageopacity="1"
     inkscape:pageshadow="2"
     inkscape:window-width="1680"
     inkscape:window-height="1014"
     id="namedview19"
     showgrid="false"
     inkscape:snap-bbox="true"
     inkscape:snap-bbox-midpoints="true"
     inkscape:snap-object-midpoints="true"
     inkscape:snap-center="true"
     inkscape:snap-page="true"
     inkscape:zoom="25.831491"
     inkscape:cx="3.8622965"
     inkscape:cy="5.888255"
     inkscape:window-x="0"
     inkscape:window-y="26"
     inkscape:window-maximized="1"
     inkscape:current-layer="layer2"
     inkscape:snap-midpoints="true"
     inkscape:snap-smooth-nodes="true"
     inkscape:bbox-paths="true"
     inkscape:bbox-nodes="true"
     inkscape:snap-bbox-edge-midpoints="true"
     inkscape:object-paths="true"
     inkscape:snap-intersection-paths="true"
     inkscape:object-nodes="true" /><g
     inkscape:groupmode="layer"
     id="layer2"
     inkscape:label="icon"
     style="display:inline"
     transform="translate(0,-24)"><path
       inkscape:connector-curvature="0"
       style="display:inline;fill:#b1e5ff;fill-opacity:1;stroke:none;stroke-width:0.5;stroke-linecap:round;stroke-linejoin:round;stroke-miterlimit:4;stroke-dasharray:none;stroke-opacity:1"
       d="m 4.3978728,25.001822 c -0.8604253,0.02751 -1.712317,0.368507 -2.3692429,1.025391 -1.31389475,1.313724 -1.36892353,3.409235 -0.166023,4.789062 -0.073444,0.383162 -0.1132861,0.779006 -0.1132861,1.183594 0,3.451645 2.7987248,6.25 6.2502706,6.25 0.4046855,0 0.8003416,-0.0398 1.1836441,-0.113281 1.3797005,1.202734 3.4754175,1.149704 4.7892695,-0.164063 1.313724,-1.313767 1.366886,-3.409236 0.16407,-4.789062 0.07349,-0.383207 0.113286,-0.779006 0.113286,-1.183594 0,-3.451603 -2.798683,-6.25 -6.2502696,-6.25 -0.4046445,0 -0.8003856,0.0398 -1.1836452,0.113281 C 6.1260524,25.261784 5.2582979,24.974313 4.3978728,25.001822 Z m 3.4122564,3.423828 c 1.4455605,0 2.9044238,0.572946 2.9044238,1.445313 0,0.442664 -0.300312,0.833984 -0.7949576,0.833984 -0.7423011,0 -0.7672222,-0.873047 -1.9649279,-0.873047 -0.6640577,0 -1.0937973,0.182198 -1.0937973,0.585938 0,0.442664 0.4295415,0.547409 1.0156689,0.677734 l 0.7930022,0.181641 c 1.0806147,0.247215 2.3711967,0.702825 2.3711967,2.03125 0,1.549285 -1.4974919,2.265625 -2.9298138,2.265625 -1.7188263,0 -3.1524802,-0.76751 -3.1524802,-1.705079 0,-0.416622 0.2357582,-0.794921 0.7695642,-0.794921 0.8205075,0 0.8982708,1.171875 2.3047876,1.171875 0.6769403,0 1.1055158,-0.298911 1.1055158,-0.689454 0,-0.481863 -0.416699,-0.561218 -1.0937973,-0.730468 L 6.925326,32.552603 C 5.8182751,32.27907 4.958444,31.824843 4.958444,30.548697 c 0,-1.549561 1.5364544,-2.123047 2.8516852,-2.123047 z"
       id="path4155" /><circle
       style="fill:#ff245c;fill-opacity:1;stroke:none;stroke-width:0.5;stroke-miterlimit:4;stroke-dasharray:none;stroke-opacity:1"
       id="path4176"
       cx="13"
       cy="37"
       r="3" /></g></svg>