<?xml version="1.0" encoding="UTF-8" standalone="no"?>
<svg
   xmlns:dc="http://purl.org/dc/elements/1.1/"
   xmlns:cc="http://creativecommons.org/ns#"
   xmlns:rdf="http://www.w3.org/1999/02/22-rdf-syntax-ns#"
   xmlns:svg="http://www.w3.org/2000/svg"
   xmlns="http://www.w3.org/2000/svg"
   xmlns:sodipodi="http://sodipodi.sourceforge.net/DTD/sodipodi-0.dtd"
   xmlns:inkscape="http://www.inkscape.org/namespaces/inkscape"
   enable-background="new 0 0 40 40"
   height="16"
   id="Layer_1"
   version="1.1"
   viewBox="0 0 16 16"
   width="16"
   xml:space="preserve"
   inkscape:version="0.91 r13725"
   sodipodi:docname="icon-noinstance.svg"
   inkscape:export-filename="/home/marko/.scripts/genmon/skype-icon-missing.png"
   inkscape:export-xdpi="36"
   inkscape:export-ydpi="36"><metadata
     id="metadata23"><rdf:RDF><cc:Work
         rdf:about=""><dc:format>image/svg+xml</dc:format><dc:type
           rdf:resource="http://purl.org/dc/dcmitype/StillImage" /><dc:title /></cc:Work></rdf:RDF></metadata><defs
     id="defs21" /><sodipodi:namedview
     pagecolor="#343434"
     bordercolor="#666666"
     borderopacity="1"
     objecttolerance="10"
     gridtolerance="10"
     guidetolerance="10"
     inkscape:pageopacity="1"
     inkscape:pageshadow="2"
     inkscape:window-width="1680"
     inkscape:window-height="1014"
     id="namedview19"
     showgrid="false"
     inkscape:snap-bbox="true"
     inkscape:snap-bbox-midpoints="true"
     inkscape:snap-object-midpoints="true"
     inkscape:snap-center="true"
     inkscape:snap-page="true"
     inkscape:zoom="25.831491"
     inkscape:cx="-2.1686851"
     inkscape:cy="5.8472582"
     inkscape:window-x="0"
     inkscape:window-y="26"
     inkscape:window-maximized="1"
     inkscape:current-layer="layer2"
     inkscape:snap-midpoints="true"
     inkscape:snap-smooth-nodes="true"
     inkscape:bbox-paths="true"
     inkscape:bbox-nodes="true"
     inkscape:snap-bbox-edge-midpoints="true"
     inkscape:object-paths="true"
     inkscape:snap-intersection-paths="true"
     inkscape:object-nodes="true" /><g
     inkscape:groupmode="layer"
     id="layer2"
     inkscape:label="icon"
     style="display:inline"
     transform="translate(0,-24)"><path
       style="fill:#aaaaaa;fill-opacity:0.50196081;stroke:none"
       d="m 4.3970194,25.001808 c -0.8603792,0.0275 -1.7114741,0.369565 -2.3683648,1.02646 -1.31382402,1.313748 -1.36900012,3.407494 -0.1661641,4.787344 -0.07344,0.38317 -0.1114772,0.77962 -0.1114772,1.184215 0,3.451705 2.7976737,6.249208 6.2490337,6.249208 0.4046647,0 0.8009006,-0.03799 1.1841824,-0.111479 1.3796276,1.202754 3.4734286,1.14762 4.7872096,-0.166169 1.313654,-1.31379 1.368916,-3.407494 0.166164,-4.787344 0.07349,-0.383213 0.111477,-0.77962 0.111477,-1.184216 0,-3.451663 -2.797631,-6.249207 -6.249033,-6.249207 -0.4046223,0 -0.8009432,0.03799 -1.1841825,0.111479 C 6.1260084,25.260722 5.2573987,24.974298 4.3970194,25.001808 Z m 1.3314165,3.767193 2.2800244,2.292709 2.2989537,-2.292709 0.923368,0.957049 -2.2800238,2.273777 2.2800238,2.292709 -0.923368,0.938117 L 8.0084603,32.921118 5.7095059,35.230653 4.7693113,34.309363 7.0850925,31.980897 4.8050681,29.72605 5.7284359,28.769001 Z"
       id="path4301"
       inkscape:connector-curvature="0" /></g></svg>