<?xml version="1.0" encoding="UTF-8" standalone="no"?>
<svg
   xmlns:dc="http://purl.org/dc/elements/1.1/"
   xmlns:cc="http://creativecommons.org/ns#"
   xmlns:rdf="http://www.w3.org/1999/02/22-rdf-syntax-ns#"
   xmlns:svg="http://www.w3.org/2000/svg"
   xmlns="http://www.w3.org/2000/svg"
   xmlns:sodipodi="http://sodipodi.sourceforge.net/DTD/sodipodi-0.dtd"
   xmlns:inkscape="http://www.inkscape.org/namespaces/inkscape"
   enable-background="new 0 0 40 40"
   height="16"
   id="Layer_1"
   version="1.1"
   viewBox="0 0 16 16"
   width="16"
   xml:space="preserve"
   inkscape:version="0.91 r13725"
   sodipodi:docname="icon-inactive.svg"
   inkscape:export-filename="/home/marko/.scripts/genmon/skype-icon-missing.png"
   inkscape:export-xdpi="36"
   inkscape:export-ydpi="36"><metadata
     id="metadata23"><rdf:RDF><cc:Work
         rdf:about=""><dc:format>image/svg+xml</dc:format><dc:type
           rdf:resource="http://purl.org/dc/dcmitype/StillImage" /><dc:title /></cc:Work></rdf:RDF></metadata><defs
     id="defs21" /><sodipodi:namedview
     pagecolor="#343434"
     bordercolor="#666666"
     borderopacity="1"
     objecttolerance="10"
     gridtolerance="10"
     guidetolerance="10"
     inkscape:pageopacity="1"
     inkscape:pageshadow="2"
     inkscape:window-width="1680"
     inkscape:window-height="1014"
     id="namedview19"
     showgrid="false"
     inkscape:snap-bbox="true"
     inkscape:snap-bbox-midpoints="true"
     inkscape:snap-object-midpoints="true"
     inkscape:snap-center="true"
     inkscape:snap-page="true"
     inkscape:zoom="25.831491"
     inkscape:cx="3.9784339"
     inkscape:cy="5.4255087"
     inkscape:window-x="0"
     inkscape:window-y="26"
     inkscape:window-maximized="1"
     inkscape:current-layer="layer2"
     inkscape:snap-midpoints="true"
     inkscape:snap-smooth-nodes="true"
     inkscape:bbox-paths="true"
     inkscape:bbox-nodes="true"
     inkscape:snap-bbox-edge-midpoints="true"
     inkscape:object-paths="true"
     inkscape:snap-intersection-paths="true"
     inkscape:object-nodes="true" /><g
     inkscape:groupmode="layer"
     id="layer2"
     inkscape:label="icon"
     style="display:inline"
     transform="translate(0,-24)"><path
       style="fill:#aaaaaa;fill-opacity:1;stroke:none;stroke-width:0.5;stroke-linecap:round;stroke-linejoin:round;stroke-miterlimit:4;stroke-dasharray:none;stroke-opacity:1"
       d="M 4.3984375 1.0019531 C 3.5380493 1.0294621 2.6861945 1.3704603 2.0292969 2.0273438 C 0.71545902 3.3410678 0.66043265 5.4365793 1.8632812 6.8164062 C 1.7898402 7.1995682 1.75 7.595412 1.75 8 C 1.75 11.451645 4.5486038 14.25 8 14.25 C 8.4046689 14.25 8.8003078 14.210199 9.1835938 14.136719 C 10.563234 15.339453 12.658861 15.286423 13.972656 13.972656 C 15.286324 12.658889 15.339483 10.56342 14.136719 9.1835938 C 14.210209 8.8003868 14.25 8.404588 14.25 8 C 14.25 4.548397 11.451438 1.75 8 1.75 C 7.5953735 1.75 7.1996497 1.7898023 6.8164062 1.8632812 C 6.1265428 1.2619148 5.2588257 0.97444413 4.3984375 1.0019531 z M 7.8105469 4.4257812 C 9.2560446 4.4257812 10.714844 4.9987267 10.714844 5.8710938 C 10.714844 6.3137578 10.414545 6.7050781 9.9199219 6.7050781 C 9.1776521 6.7050781 9.1527323 5.8320312 7.9550781 5.8320312 C 7.2910497 5.8320312 6.8613281 6.0142288 6.8613281 6.4179688 C 6.8613281 6.8606328 7.2908511 6.9653781 7.8769531 7.0957031 L 8.6699219 7.2773438 C 9.7504897 7.5245588 11.041016 7.9801687 11.041016 9.3085938 C 11.041016 10.857879 9.5435886 11.574219 8.1113281 11.574219 C 6.3925761 11.574219 4.9589844 10.806709 4.9589844 9.8691406 C 4.9589844 9.4525176 5.1947321 9.0742188 5.7285156 9.0742188 C 6.5489875 9.0742188 6.6267474 10.246094 8.0332031 10.246094 C 8.7101142 10.246094 9.1386719 9.9471826 9.1386719 9.5566406 C 9.1386719 9.0747766 8.7219905 8.9954219 8.0449219 8.8261719 L 6.9257812 8.5527344 C 5.8187784 8.2792014 4.9589844 7.8249741 4.9589844 6.5488281 C 4.9589844 4.9992671 6.4953729 4.4257812 7.8105469 4.4257812 z "
       transform="translate(0,24)"
       id="path4155" /></g></svg>