<?xml version="1.0" encoding="UTF-8" standalone="no"?>
<svg
   xmlns:dc="http://purl.org/dc/elements/1.1/"
   xmlns:cc="http://creativecommons.org/ns#"
   xmlns:rdf="http://www.w3.org/1999/02/22-rdf-syntax-ns#"
   xmlns:svg="http://www.w3.org/2000/svg"
   xmlns="http://www.w3.org/2000/svg"
   xmlns:sodipodi="http://sodipodi.sourceforge.net/DTD/sodipodi-0.dtd"
   xmlns:inkscape="http://www.inkscape.org/namespaces/inkscape"
   version="1.1"
   x="0px"
   y="0px"
   width="16"
   height="16"
   viewBox="0 -247.758 16 16"
   id="svg2"
   inkscape:version="0.91 r13725"
   sodipodi:docname="icon-idle.svg">
  <metadata
     id="metadata15">
    <rdf:RDF>
      <cc:Work
         rdf:about="">
        <dc:format>image/svg+xml</dc:format>
        <dc:type
           rdf:resource="http://purl.org/dc/dcmitype/StillImage" />
        <dc:title>Yandex.Disk SVG Logo - free.arinco.org</dc:title>
      </cc:Work>
    </rdf:RDF>
  </metadata>
  <sodipodi:namedview
     pagecolor="#1d1d1d"
     bordercolor="#666666"
     borderopacity="1"
     objecttolerance="10"
     gridtolerance="10"
     guidetolerance="10"
     inkscape:pageopacity="0"
     inkscape:pageshadow="2"
     inkscape:window-width="1680"
     inkscape:window-height="1014"
     id="namedview13"
     showgrid="false"
     inkscape:zoom="30.947418"
     inkscape:cx="4.4740736"
     inkscape:cy="4.1109802"
     inkscape:window-x="0"
     inkscape:window-y="26"
     inkscape:window-maximized="1"
     inkscape:current-layer="layer1"
     inkscape:snap-object-midpoints="true"
     inkscape:snap-center="true"
     inkscape:snap-page="true"
     inkscape:snap-bbox="true"
     inkscape:bbox-paths="true"
     inkscape:bbox-nodes="true"
     inkscape:snap-bbox-edge-midpoints="true"
     inkscape:snap-bbox-midpoints="true"
     inkscape:snap-intersection-paths="true"
     inkscape:object-paths="true"
     inkscape:object-nodes="true"
     inkscape:snap-smooth-nodes="true"
     inkscape:snap-midpoints="true"
     inkscape:snap-global="true" />
  <title
     id="title4">Yandex.Disk SVG Logo - free.arinco.org</title>
  <desc
     id="desc6">UFOをモチーフにしたヤンデックスディスクのロゴ</desc>
  <defs
     id="defs8">
    <style
       id="style10">
#yandex-ufo {
fill:#516AB5; 
}
#yandex-ufo:hover {
fill:blue; 
}
</style>
  </defs>
  <g
     inkscape:groupmode="layer"
     id="layer1"
     inkscape:label="Default"
     style="display:inline">
    <path
       inkscape:connector-curvature="0"
       id="yandex-ufo"
       d="m 0.28072997,-237.66088 c -0.12278999,0.13335 -0.21459998,0.2479 -0.28072997,0.3394 0.07499999,-0.10252 0.17083998,-0.21707 0.28072997,-0.3394 z M 15.484178,-241.5377 c 0.0428,0.0206 0.0863,0.0408 0.12168,0.0617 -0.027,-0.016 -0.0701,-0.0378 -0.12168,-0.0617 z m -8.2218589,0.36147 c 4.5380799,-1.24772 6.9738589,-0.80415 7.9177889,-0.48179 -1.03782,-0.35682 -3.070479,-0.64485 -4.112729,-1.26578 -0.99628,-0.59348 -2.0559801,-2.38992 -4.6960198,-1.66424 -2.6395496,0.72571 -2.6459296,2.76118 -3.2561596,3.85086 -0.4997399,0.89367 -2.0478697,2.20018 -2.83446963,3.07579 0.74712993,-0.81269 2.64837973,-2.32299 6.98158913,-3.51484 z m 1.3702799,-2.64537 c 0.2482699,-0.0682 0.6393499,0.0122 0.9468799,0.2325 0.4370501,0.31247 0.5683201,0.78811 0.0932,0.91872 -0.4756599,0.1306 -1.0842898,-0.21321 -1.2735598,-0.59384 -0.13323,-0.26873 -0.0142,-0.48956 0.23352,-0.55738 z m -1.9433998,0.34081 c 0.4067,-0.1113 0.8103299,0.0819 0.9021399,0.43253 0.0913,0.34995 -0.16396,0.72483 -0.5706499,0.83625 -0.40683,0.11169 -0.8103299,-0.0814 -0.9022599,-0.43204 -0.0913,-0.34994 0.16396,-0.72457 0.5707699,-0.83674 z m -2.5558497,1.38874 c 0.15954,-0.3487 0.45869,-0.61869 0.7064799,-0.68723 0.24766,-0.068 0.45868,0.062 0.47392,0.36273 0.0218,0.42678 -0.33786,1.03666 -0.8135199,1.16764 -0.47478,0.1306 -0.59278,-0.34833 -0.36688,-0.84314 z m 11.8441685,1.81612 c -0.32005,-1.23419 -4.061589,-1.16037 -8.3894889,0.0365 -4.3269395,1.19685 -7.6032691,3.06338 -7.28234914,4.2972 0.21667998,0.83499 2.06409974,1.30777 4.57520944,1.1561 1.0494999,0.0901 2.4554397,-0.0644 3.9547595,-0.47678 1.4778401,-0.40607 2.7560701,-0.98238 3.6208401,-1.58828 2.319979,-1.17815 3.741779,-2.57493 3.521029,-3.42471 z m -7.293539,4.43092 c -1.8824298,0.51766 -3.4816996,0.65854 -3.6081696,0.17298 -0.12683,-0.48506 1.3020798,-1.27596 3.1848796,-1.79334 1.8822,-0.51815 3.5058,-0.56502 3.63289,-0.0797 0.12684,0.4848 -1.3274,1.18268 -3.2096,1.70007 z"
       style="fill:#aaaaaa;fill-opacity:1" />
  </g>
  <g
     inkscape:groupmode="layer"
     id="layer2"
     inkscape:label="yandex-disk-error"
     style="display:none">
    <rect
       style="color:#000000;clip-rule:nonzero;display:inline;overflow:visible;visibility:visible;opacity:0.98999999;isolation:auto;mix-blend-mode:normal;color-interpolation:sRGB;color-interpolation-filters:linearRGB;solid-color:#000000;solid-opacity:1;fill:#c21d1d;fill-opacity:1;fill-rule:nonzero;stroke:none;stroke-width:1;stroke-linecap:round;stroke-linejoin:round;stroke-miterlimit:4;stroke-dasharray:none;stroke-dashoffset:0;stroke-opacity:1;color-rendering:auto;image-rendering:auto;shape-rendering:auto;text-rendering:auto;enable-background:accumulate"
       id="rect4160"
       width="7.5"
       height="7.5"
       x="8.5"
       y="-239.258"
       rx="0.75000006"
       ry="0.75000006" />
    <g
       style="color:#000000;font-style:normal;font-variant:normal;font-weight:normal;font-stretch:condensed;font-size:0.23569371px;line-height:125%;font-family:'PT Sans Narrow';-inkscape-font-specification:'PT Sans Narrow Condensed';text-indent:0;text-align:start;text-decoration:none;text-decoration-line:none;letter-spacing:0px;word-spacing:0px;text-transform:none;direction:ltr;block-progression:tb;writing-mode:lr-tb;baseline-shift:baseline;text-anchor:start;display:inline;overflow:visible;visibility:visible;fill:#4d3e41;fill-opacity:1;fill-rule:nonzero;stroke:none;stroke-width:1px;stroke-linecap:butt;stroke-linejoin:miter;stroke-opacity:1;marker:none;enable-background:accumulate"
       id="text4162"
       transform="matrix(1.0576765,0,0,0.96395762,-0.44211866,-7.997275)">
      <path
         d="m 11.41346,-238.87017 1.173081,0 0,2.88018 -0.227613,1.42696 -0.717855,0 -0.227613,-1.42696 0,-2.88018 z m -0.122561,5.55025 q 0,-0.3064 0.192596,-0.48149 0.192595,-0.18384 0.507751,-0.18384 0.332665,0 0.52526,0.18384 0.192596,0.17509 0.192596,0.48149 0,0.3064 -0.192596,0.49024 -0.192595,0.18385 -0.52526,0.18385 -0.315156,0 -0.507751,-0.18385 -0.192596,-0.18384 -0.192596,-0.49024 z"
         style="font-style:normal;font-variant:normal;font-weight:bold;font-stretch:normal;font-size:8.75433826px;font-family:'PT Sans';-inkscape-font-specification:'PT Sans Bold';fill:#ffffff;fill-opacity:1"
         id="path4255"
         inkscape:connector-curvature="0" />
    </g>
  </g>
  <g
     inkscape:groupmode="layer"
     id="layer3"
     inkscape:label="yandex-disk-index"
     style="display:none">
    <rect
       ry="0.75000006"
       rx="0.75000006"
       y="-239.258"
       x="8.5"
       height="7.5"
       width="7.5"
       id="rect4152"
       style="color:#000000;clip-rule:nonzero;display:inline;overflow:visible;visibility:visible;opacity:0.98999999;isolation:auto;mix-blend-mode:normal;color-interpolation:sRGB;color-interpolation-filters:linearRGB;solid-color:#000000;solid-opacity:1;fill:#2489de;fill-opacity:1;fill-rule:nonzero;stroke:none;stroke-width:1;stroke-linecap:round;stroke-linejoin:round;stroke-miterlimit:4;stroke-dasharray:none;stroke-dashoffset:0;stroke-opacity:1;color-rendering:auto;image-rendering:auto;shape-rendering:auto;text-rendering:auto;enable-background:accumulate" />
    <g
       style="color:#000000;font-style:normal;font-variant:normal;font-weight:normal;font-stretch:condensed;font-size:0.23569369px;line-height:125%;font-family:'PT Sans Narrow';-inkscape-font-specification:'PT Sans Narrow Condensed';text-indent:0;text-align:start;text-decoration:none;text-decoration-line:none;letter-spacing:0px;word-spacing:0px;text-transform:none;direction:ltr;block-progression:tb;writing-mode:lr-tb;baseline-shift:baseline;text-anchor:start;display:inline;overflow:visible;visibility:visible;fill:#4d3e41;fill-opacity:1;fill-rule:nonzero;stroke:none;stroke-width:1px;stroke-linecap:butt;stroke-linejoin:miter;stroke-opacity:1;marker:none;enable-background:accumulate"
       id="text4154"
       transform="matrix(0.97009844,0,0,1.2980523,0.60881916,70.518225)">
      <path
         d="m 9.9383531,-235.94185 q 0.4114539,-0.33266 0.7353639,-0.45522 0.332665,-0.13132 0.612804,-0.13132 0.253876,0 0.472734,0.0788 0.218859,0.07 0.420209,0.15758 0.201349,0.0788 0.393945,0.15758 0.20135,0.07 0.402699,0.07 0.157579,0 0.323911,-0.0525 0.166332,-0.0525 0.350173,-0.20135 l 0.411454,0.90169 q -0.315156,0.23637 -0.577786,0.33267 -0.26263,0.0963 -0.490243,0.0963 -0.245121,0 -0.455225,-0.0788 -0.210105,-0.0788 -0.411454,-0.17509 -0.192596,-0.0963 -0.393946,-0.17509 -0.201349,-0.0788 -0.428962,-0.0788 -0.210104,0 -0.455226,0.0963 -0.236367,0.0875 -0.52526,0.33267 l -0.3851909,-0.87544 z"
         style="font-style:normal;font-variant:normal;font-weight:bold;font-stretch:normal;font-size:8.75433826px;font-family:'PT Sans';-inkscape-font-specification:'PT Sans Bold';fill:#ffffff;fill-opacity:1"
         id="path4270"
         inkscape:connector-curvature="0" />
    </g>
  </g>
</svg>
