<?xml version="1.0" encoding="UTF-8" standalone="no"?>
<svg
   xmlns:dc="http://purl.org/dc/elements/1.1/"
   xmlns:cc="http://creativecommons.org/ns#"
   xmlns:rdf="http://www.w3.org/1999/02/22-rdf-syntax-ns#"
   xmlns:svg="http://www.w3.org/2000/svg"
   xmlns="http://www.w3.org/2000/svg"
   xmlns:xlink="http://www.w3.org/1999/xlink"
   xmlns:sodipodi="http://sodipodi.sourceforge.net/DTD/sodipodi-0.dtd"
   xmlns:inkscape="http://www.inkscape.org/namespaces/inkscape"
   enable-background="new 0 0 40 40"
   height="16"
   id="Layer_1"
   version="1.1"
   viewBox="0 0 16 16"
   width="16"
   xml:space="preserve"
   inkscape:version="0.91 r13725"
   sodipodi:docname="icon-inactive.svg"
   inkscape:export-filename="/home/marko/.scripts/genmon/skype-icon-missing.png"
   inkscape:export-xdpi="36"
   inkscape:export-ydpi="36"><metadata
     id="metadata23"><rdf:RDF><cc:Work
         rdf:about=""><dc:format>image/svg+xml</dc:format><dc:type
           rdf:resource="http://purl.org/dc/dcmitype/StillImage" /><dc:title /></cc:Work></rdf:RDF></metadata><defs
     id="defs21"><linearGradient
       inkscape:collect="always"
       id="linearGradient4136"><stop
         style="stop-color:#bebebe;stop-opacity:1;"
         offset="0"
         id="stop4138" /><stop
         style="stop-color:#ffffff;stop-opacity:1"
         offset="1"
         id="stop4140" /></linearGradient><linearGradient
       inkscape:collect="always"
       xlink:href="#linearGradient4136"
       id="linearGradient4142"
       x1="2"
       y1="26"
       x2="14"
       y2="38"
       gradientUnits="userSpaceOnUse" /></defs><sodipodi:namedview
     pagecolor="#343434"
     bordercolor="#666666"
     borderopacity="1"
     objecttolerance="10"
     gridtolerance="10"
     guidetolerance="10"
     inkscape:pageopacity="1"
     inkscape:pageshadow="2"
     inkscape:window-width="1680"
     inkscape:window-height="1012"
     id="namedview19"
     showgrid="false"
     inkscape:snap-bbox="true"
     inkscape:snap-bbox-midpoints="true"
     inkscape:snap-object-midpoints="true"
     inkscape:snap-center="true"
     inkscape:snap-page="true"
     inkscape:zoom="36.531245"
     inkscape:cx="4.7970503"
     inkscape:cy="4.8627755"
     inkscape:window-x="0"
     inkscape:window-y="28"
     inkscape:window-maximized="1"
     inkscape:current-layer="layer2"
     inkscape:snap-midpoints="true"
     inkscape:snap-smooth-nodes="true"
     inkscape:bbox-paths="true"
     inkscape:bbox-nodes="true"
     inkscape:snap-bbox-edge-midpoints="true"
     inkscape:object-paths="true"
     inkscape:snap-intersection-paths="true"
     inkscape:object-nodes="true" /><g
     inkscape:groupmode="layer"
     id="layer2"
     inkscape:label="icon"
     style="display:inline"
     transform="translate(0,-24)"><path
       style="opacity:1;fill:none;fill-opacity:1;fill-rule:nonzero;stroke:#bebebe;stroke-width:1.99999988;stroke-linecap:round;stroke-linejoin:bevel;stroke-miterlimit:1;stroke-dasharray:none;stroke-dashoffset:0;stroke-opacity:0.35294118"
       d="M 7.9999998,26 A 5.9999999,6.0000001 0 0 0 2,31.999999 5.9999999,6.0000001 0 0 0 7.9999998,38 5.9999999,6.0000001 0 0 0 14,31.999999 5.9999999,6.0000001 0 0 0 7.9999998,26 Z"
       id="path4178"
       inkscape:connector-curvature="0" /><path
       style="opacity:1;fill:#ffffff;fill-opacity:1;fill-rule:nonzero;stroke:#bebebe;stroke-width:0.69999999;stroke-linecap:round;stroke-linejoin:round;stroke-miterlimit:1;stroke-dasharray:none;stroke-dashoffset:0;stroke-opacity:0.35294118"
       d="m 7.9412088,29.000484 c 0.3848412,0.01704 0.8229597,0.10794 1.1441393,0.273502 0.3624767,0.186265 0.8384141,0.568069 0.7807325,1.127933 -0.029849,0.291024 -0.261782,0.490175 -0.5203421,0.487502 C 8.9341079,30.884321 8.7514802,30.342016 8.3795762,30.158692 7.9582945,29.95078 7.0674967,29.99763 7.1162011,30.711959 c 0.023567,0.353022 0.4139838,0.453858 0.6500991,0.530823 0.9586011,0.313203 2.1579287,0.468464 2.2299758,1.726088 0.114017,1.994935 -2.2707932,2.564396 -3.4937893,1.504262 -0.2275864,-0.197758 -0.5764573,-0.663199 -0.4453815,-1.172824 0.04242,-0.163281 0.1784996,-0.337848 0.3712972,-0.353881 0.5265461,-0.04383 0.6636288,0.785832 1.1524682,0.995881 0.5676194,0.243187 1.3527146,-0.0362 1.3190479,-0.707764 C 8.8709655,32.644749 8.0412024,32.574607 7.5997208,32.438048 6.846935,32.205284 6.0342018,31.8937 6.0014328,30.845056 c -0.035013,-1.11973 0.6942408,-1.750157 1.5789998,-1.836743 0.1101459,-0.01065 0.2324962,-0.0135 0.3607765,-0.0078 z"
       id="path4158-4"
       inkscape:connector-curvature="0" /><path
       inkscape:connector-curvature="0"
       id="path4135"
       d="M 7.9999998,26 A 5.9999999,6.0000001 0 0 0 2,31.999999 5.9999999,6.0000001 0 0 0 7.9999998,38 5.9999999,6.0000001 0 0 0 14,31.999999 5.9999999,6.0000001 0 0 0 7.9999998,26 Z"
       style="opacity:1;fill:none;fill-opacity:1;fill-rule:nonzero;stroke:url(#linearGradient4142);stroke-width:0.49999997;stroke-linecap:round;stroke-linejoin:bevel;stroke-miterlimit:1;stroke-dasharray:none;stroke-dashoffset:0;stroke-opacity:1" /></g></svg>