<?xml version="1.0" encoding="UTF-8" standalone="no"?>
<svg
   xmlns:dc="http://purl.org/dc/elements/1.1/"
   xmlns:cc="http://creativecommons.org/ns#"
   xmlns:rdf="http://www.w3.org/1999/02/22-rdf-syntax-ns#"
   xmlns:svg="http://www.w3.org/2000/svg"
   xmlns="http://www.w3.org/2000/svg"
   xmlns:xlink="http://www.w3.org/1999/xlink"
   xmlns:sodipodi="http://sodipodi.sourceforge.net/DTD/sodipodi-0.dtd"
   xmlns:inkscape="http://www.inkscape.org/namespaces/inkscape"
   version="1.1"
   x="0px"
   y="0px"
   width="16"
   height="16"
   viewBox="0 -247.758 16 16"
   id="svg2"
   inkscape:version="0.91 r13725"
   sodipodi:docname="icon-idle.svg">
  <metadata
     id="metadata15">
    <rdf:RDF>
      <cc:Work
         rdf:about="">
        <dc:format>image/svg+xml</dc:format>
        <dc:type
           rdf:resource="http://purl.org/dc/dcmitype/StillImage" />
        <dc:title>Yandex.Disk SVG Logo - free.arinco.org</dc:title>
      </cc:Work>
    </rdf:RDF>
  </metadata>
  <sodipodi:namedview
     pagecolor="#1d1d1d"
     bordercolor="#666666"
     borderopacity="1"
     objecttolerance="10"
     gridtolerance="10"
     guidetolerance="10"
     inkscape:pageopacity="0"
     inkscape:pageshadow="2"
     inkscape:window-width="1680"
     inkscape:window-height="1012"
     id="namedview13"
     showgrid="false"
     inkscape:zoom="30.947418"
     inkscape:cx="6.5420975"
     inkscape:cy="6.7929486"
     inkscape:window-x="0"
     inkscape:window-y="28"
     inkscape:window-maximized="1"
     inkscape:current-layer="layer1"
     inkscape:snap-object-midpoints="true"
     inkscape:snap-center="true"
     inkscape:snap-page="true"
     inkscape:snap-bbox="true"
     inkscape:bbox-paths="true"
     inkscape:bbox-nodes="true"
     inkscape:snap-bbox-edge-midpoints="true"
     inkscape:snap-bbox-midpoints="true"
     inkscape:snap-intersection-paths="true"
     inkscape:object-paths="true"
     inkscape:object-nodes="true"
     inkscape:snap-smooth-nodes="true"
     inkscape:snap-midpoints="true"
     inkscape:snap-global="true" />
  <title
     id="title4">Yandex.Disk SVG Logo - free.arinco.org</title>
  <desc
     id="desc6">UFOをモチーフにしたヤンデックスディスクのロゴ</desc>
  <defs
     id="defs8">
    <linearGradient
       inkscape:collect="always"
       id="linearGradient4156">
      <stop
         style="stop-color:#bebebe;stop-opacity:1;"
         offset="0"
         id="stop4158" />
      <stop
         style="stop-color:#ffffff;stop-opacity:1"
         offset="1"
         id="stop4160" />
    </linearGradient>
    <style
       id="style10">
#yandex-ufo {
fill:#516AB5; 
}
#yandex-ufo:hover {
fill:blue; 
}
</style>
    <linearGradient
       inkscape:collect="always"
       xlink:href="#linearGradient4156"
       id="linearGradient4162"
       x1="5.0679822"
       y1="-238.95793"
       x2="11.901287"
       y2="-236.54851"
       gradientUnits="userSpaceOnUse" />
  </defs>
  <g
     inkscape:groupmode="layer"
     id="layer1"
     inkscape:label="Default"
     style="display:inline">
    <path
       style="color:#000000;font-style:normal;font-variant:normal;font-weight:normal;font-stretch:normal;font-size:medium;line-height:normal;font-family:sans-serif;text-indent:0;text-align:start;text-decoration:none;text-decoration-line:none;text-decoration-style:solid;text-decoration-color:#000000;letter-spacing:normal;word-spacing:normal;text-transform:none;direction:ltr;block-progression:tb;writing-mode:lr-tb;baseline-shift:baseline;text-anchor:start;white-space:normal;clip-rule:nonzero;display:inline;overflow:visible;visibility:visible;opacity:1;isolation:auto;mix-blend-mode:normal;color-interpolation:sRGB;color-interpolation-filters:linearRGB;solid-color:#000000;solid-opacity:1;fill:#d4d4d4;fill-opacity:0.15873016;fill-rule:nonzero;stroke:none;stroke-width:2;stroke-linecap:butt;stroke-linejoin:miter;stroke-miterlimit:4;stroke-dasharray:none;stroke-dashoffset:0;stroke-opacity:1;color-rendering:auto;image-rendering:auto;shape-rendering:auto;text-rendering:auto;enable-background:accumulate"
       d="m 7.21875,-246.53572 c -1.9845069,0.31168 -3.2528976,2.37706 -4.7084739,3.76151 -1.0789701,1.02625 -3.02505838,1.85865 -2.95949262,3.34629 0.011335,0.25718 0.46545887,0.29202 0.56054687,0.53125 0.36447002,0.91695 -0.76977977,2.17644 -0.16438145,2.95562 1.04152692,1.34051 3.3002425,1.03478 4.9970094,0.98262 2.7245678,-0.0838 5.4746097,-0.84695 7.9118427,-2.06768 1.481981,-0.74227 3.414189,-1.51142 3.888045,-3.09972 0.257132,-0.86187 -0.322468,-1.82981 -0.843314,-2.56306 -0.35883,-0.50516 -0.933969,-0.82977 -1.475988,-1.13005 -1.065255,-0.59015 -2.281734,-0.85199 -3.421282,-1.28149 -1.2624836,-0.47584 -2.4516695,-1.64462 -3.784512,-1.43529 z"
       id="path4193-3"
       inkscape:connector-curvature="0"
       sodipodi:nodetypes="ssssssssssss" />
    <path
       style="fill:none;fill-opacity:0.11891892;stroke:#d4d4d4;stroke-width:0.5;stroke-linecap:round;stroke-linejoin:round;stroke-miterlimit:4;stroke-dasharray:none;stroke-dashoffset:0;stroke-opacity:1"
       d="m 4.133352,-242.99859 0,-5e-5 2.6486104,-1.20812 3.020399,-0.0344"
       id="path4187"
       inkscape:connector-curvature="0"
       sodipodi:nodetypes="cccc" />
    <path
       style="fill:none;fill-opacity:0.11891892;stroke:#d4d4d4;stroke-width:0.5;stroke-linecap:butt;stroke-linejoin:miter;stroke-miterlimit:4;stroke-dasharray:none;stroke-dashoffset:0;stroke-opacity:1"
       d="m 11.52998,-238.1097 c 2.319973,-1.13103 4.668286,-2.32967 4.447538,-3.14544 -0.320051,-1.18484 -4.06159,-1.11397 -8.38949,0.035 -4.326939,1.14899 -7.603265,2.94088 -7.282352,4.12533 0.216687,0.80162 2.7627621,0.67193 5.2738771,0.52633"
       id="path4185"
       inkscape:connector-curvature="0"
       sodipodi:nodetypes="ccccc" />
    <path
       style="fill:none;fill-opacity:0.11891892;stroke:url(#linearGradient4162);stroke-width:0.5;stroke-linecap:butt;stroke-linejoin:miter;stroke-miterlimit:4;stroke-dasharray:none;stroke-dashoffset:0;stroke-opacity:1"
       d="m 8.683979,-237.00142 c -1.882428,0.49696 -3.481702,0.6322 -3.608165,0.16604 -0.126836,-0.46565 1.302075,-1.2249 3.184876,-1.72161 1.882201,-0.49742 3.5058,-0.54241 3.63289,-0.0766 0.126836,0.46543 -1.327401,1.13542 -3.209601,1.6321 z"
       id="yandex-ufo" />
  </g>
  <g
     inkscape:groupmode="layer"
     id="layer2"
     inkscape:label="yandex-disk-error"
     style="display:none">
    <rect
       style="color:#000000;clip-rule:nonzero;display:inline;overflow:visible;visibility:visible;opacity:0.98999999;isolation:auto;mix-blend-mode:normal;color-interpolation:sRGB;color-interpolation-filters:linearRGB;solid-color:#000000;solid-opacity:1;fill:#c21d1d;fill-opacity:1;fill-rule:nonzero;stroke:none;stroke-width:1;stroke-linecap:round;stroke-linejoin:round;stroke-miterlimit:4;stroke-dasharray:none;stroke-dashoffset:0;stroke-opacity:1;color-rendering:auto;image-rendering:auto;shape-rendering:auto;text-rendering:auto;enable-background:accumulate"
       id="rect4160"
       width="7.5"
       height="7.5"
       x="8.5"
       y="-239.258"
       rx="0.75000006"
       ry="0.75000006" />
    <g
       style="color:#000000;font-style:normal;font-variant:normal;font-weight:normal;font-stretch:condensed;font-size:0.23569371px;line-height:125%;font-family:'PT Sans Narrow';-inkscape-font-specification:'PT Sans Narrow Condensed';text-indent:0;text-align:start;text-decoration:none;text-decoration-line:none;letter-spacing:0px;word-spacing:0px;text-transform:none;direction:ltr;block-progression:tb;writing-mode:lr-tb;baseline-shift:baseline;text-anchor:start;display:inline;overflow:visible;visibility:visible;fill:#4d3e41;fill-opacity:1;fill-rule:nonzero;stroke:none;stroke-width:1px;stroke-linecap:butt;stroke-linejoin:miter;stroke-opacity:1;marker:none;enable-background:accumulate"
       id="text4162"
       transform="matrix(1.0576765,0,0,0.96395762,-0.44211866,-7.997275)">
      <path
         d="m 11.41346,-238.87017 1.173081,0 0,2.88018 -0.227613,1.42696 -0.717855,0 -0.227613,-1.42696 0,-2.88018 z m -0.122561,5.55025 q 0,-0.3064 0.192596,-0.48149 0.192595,-0.18384 0.507751,-0.18384 0.332665,0 0.52526,0.18384 0.192596,0.17509 0.192596,0.48149 0,0.3064 -0.192596,0.49024 -0.192595,0.18385 -0.52526,0.18385 -0.315156,0 -0.507751,-0.18385 -0.192596,-0.18384 -0.192596,-0.49024 z"
         style="font-style:normal;font-variant:normal;font-weight:bold;font-stretch:normal;font-size:8.75433826px;font-family:'PT Sans';-inkscape-font-specification:'PT Sans Bold';fill:#ffffff;fill-opacity:1"
         id="path4255"
         inkscape:connector-curvature="0" />
    </g>
  </g>
  <g
     inkscape:groupmode="layer"
     id="layer3"
     inkscape:label="yandex-disk-index"
     style="display:none">
    <rect
       ry="0.75000006"
       rx="0.75000006"
       y="-239.258"
       x="8.5"
       height="7.5"
       width="7.5"
       id="rect4152"
       style="color:#000000;clip-rule:nonzero;display:inline;overflow:visible;visibility:visible;opacity:0.98999999;isolation:auto;mix-blend-mode:normal;color-interpolation:sRGB;color-interpolation-filters:linearRGB;solid-color:#000000;solid-opacity:1;fill:#2489de;fill-opacity:1;fill-rule:nonzero;stroke:none;stroke-width:1;stroke-linecap:round;stroke-linejoin:round;stroke-miterlimit:4;stroke-dasharray:none;stroke-dashoffset:0;stroke-opacity:1;color-rendering:auto;image-rendering:auto;shape-rendering:auto;text-rendering:auto;enable-background:accumulate" />
    <g
       style="color:#000000;font-style:normal;font-variant:normal;font-weight:normal;font-stretch:condensed;font-size:0.23569369px;line-height:125%;font-family:'PT Sans Narrow';-inkscape-font-specification:'PT Sans Narrow Condensed';text-indent:0;text-align:start;text-decoration:none;text-decoration-line:none;letter-spacing:0px;word-spacing:0px;text-transform:none;direction:ltr;block-progression:tb;writing-mode:lr-tb;baseline-shift:baseline;text-anchor:start;display:inline;overflow:visible;visibility:visible;fill:#4d3e41;fill-opacity:1;fill-rule:nonzero;stroke:none;stroke-width:1px;stroke-linecap:butt;stroke-linejoin:miter;stroke-opacity:1;marker:none;enable-background:accumulate"
       id="text4154"
       transform="matrix(0.97009844,0,0,1.2980523,0.60881916,70.518225)">
      <path
         d="m 9.9383531,-235.94185 q 0.4114539,-0.33266 0.7353639,-0.45522 0.332665,-0.13132 0.612804,-0.13132 0.253876,0 0.472734,0.0788 0.218859,0.07 0.420209,0.15758 0.201349,0.0788 0.393945,0.15758 0.20135,0.07 0.402699,0.07 0.157579,0 0.323911,-0.0525 0.166332,-0.0525 0.350173,-0.20135 l 0.411454,0.90169 q -0.315156,0.23637 -0.577786,0.33267 -0.26263,0.0963 -0.490243,0.0963 -0.245121,0 -0.455225,-0.0788 -0.210105,-0.0788 -0.411454,-0.17509 -0.192596,-0.0963 -0.393946,-0.17509 -0.201349,-0.0788 -0.428962,-0.0788 -0.210104,0 -0.455226,0.0963 -0.236367,0.0875 -0.52526,0.33267 l -0.3851909,-0.87544 z"
         style="font-style:normal;font-variant:normal;font-weight:bold;font-stretch:normal;font-size:8.75433826px;font-family:'PT Sans';-inkscape-font-specification:'PT Sans Bold';fill:#ffffff;fill-opacity:1"
         id="path4270"
         inkscape:connector-curvature="0" />
    </g>
  </g>
</svg>
