<svg xmlns="http://www.w3.org/2000/svg" width="24" height="24"><path transform="scale(.01)" d="M1557 494c-25-92-151-141-334-147-20-7-96-35-168-100C923 126 788 71 626 115c-161 43-251 157-305 328-28 92-84 153-100 171C65 711-20 818 4 910c27 102 176 181 403 175l-9-24c-11-43-23-155 121-253 64-44 154-82 261-110 88-24 171-36 240-36 206 0 259 112 271 160l5 25c200-109 288-251 261-354zm-537 298c79 0 134 20 146 64 20 75-107 155-290 204-77 21-149 32-207 32-79 0-134-21-145-64-21-76 107-155 289-204 77-21 149-32 207-32z"/><path stroke="#000" stroke-width="2" fill="none" d="m 8 16v3h3m2 0h4m2 0h3v-3m0-2v-4m0-2v-3h-3"/></svg>
