<svg version="1.1" xmlns="http://www.w3.org/2000/svg" xmlns:xlink="http://www.w3.org/1999/xlink" x="0px" y="0px" width="1280px" height="1280px" viewBox="0 -247.758 1280 1280"><title>Yandex.Disk SVG Logo - free.arinco.org</title><desc>UFOをモチーフにしたヤンデックスディスクのロゴ</desc><defs>
<style>
#yandex-ufo {
fill:#516AB5; 
}
#yandex-ufo:hover {
fill:blue; 
}
</style>
</defs><path id="yandex-ufo" d="M22.458,556.76C12.635,567.222,5.29,576.208,0,583.386C5.998,575.343,13.667,566.356,22.458,556.76z M1238.734,252.629c3.422,1.612,6.902,3.196,9.734,4.837C1246.305,256.208,1242.863,254.497,1238.734,252.629z M580.985,280.986 c363.047-97.883,557.909-63.085,633.423-37.796c-83.025-27.993-245.638-50.588-329.018-99.299 C805.688,97.333,720.912-43.596,509.709,13.334C298.545,70.265,298.034,229.945,249.216,315.429 C209.237,385.535,85.386,488.03,22.458,556.72C82.229,492.966,234.329,374.484,580.985,280.986z M690.608,73.46 c19.861-5.349,51.148,0.963,75.75,18.239c34.964,24.512,45.466,61.827,7.453,72.072c-38.053,10.246-86.743-16.725-101.885-46.586 C661.268,96.104,670.786,78.78,690.608,73.46z M535.136,100.195c32.536-8.731,64.826,6.421,72.171,33.932 c7.306,27.453-13.117,56.862-45.652,65.603c-32.546,8.761-64.826-6.381-72.181-33.893 C482.168,138.385,502.591,108.995,535.136,100.195z M330.668,209.14c12.763-27.354,36.695-48.534,56.518-53.912 c19.813-5.339,36.695,4.867,37.914,28.456c1.741,33.48-27.029,81.325-65.082,91.6C322.036,285.529,312.596,247.958,330.668,209.14z M1278.201,351.613c-25.604-96.821-324.927-91.03-671.159,2.861C260.887,448.365-1.219,594.792,24.454,691.583 c17.335,65.505,165.128,102.593,366.017,90.695c83.96,7.061,196.435-5.054,316.381-37.402 c118.227-31.857,220.485-77.067,289.667-124.599C1182.117,527.852,1295.861,418.277,1278.201,351.613z M694.718,699.213 c-150.594,40.609-278.536,51.661-288.653,13.569c-10.147-38.052,104.166-100.096,254.79-140.684 c150.576-40.648,280.464-44.325,290.631-6.254C961.633,603.877,845.294,658.625,694.718,699.213z"/></svg>