<?xml version="1.0" encoding="UTF-8" standalone="no"?>
<svg
   xmlns:dc="http://purl.org/dc/elements/1.1/"
   xmlns:cc="http://creativecommons.org/ns#"
   xmlns:rdf="http://www.w3.org/1999/02/22-rdf-syntax-ns#"
   xmlns:svg="http://www.w3.org/2000/svg"
   xmlns="http://www.w3.org/2000/svg"
   xmlns:sodipodi="http://sodipodi.sourceforge.net/DTD/sodipodi-0.dtd"
   xmlns:inkscape="http://www.inkscape.org/namespaces/inkscape"
   enable-background="new 0 0 48 48"
   height="16"
   version="1.1"
   viewBox="0 0 16 16"
   width="16"
   xml:space="preserve"
   id="svg2"
   inkscape:version="0.91 r13725"
   sodipodi:docname="icon-inactive.svg"><metadata
     id="metadata27"><rdf:RDF><cc:Work
         rdf:about=""><dc:format>image/svg+xml</dc:format><dc:type
           rdf:resource="http://purl.org/dc/dcmitype/StillImage" /><dc:title /></cc:Work></rdf:RDF></metadata><defs
     id="defs25" /><sodipodi:namedview
     pagecolor="#ffffff"
     bordercolor="#666666"
     borderopacity="1"
     objecttolerance="10"
     gridtolerance="10"
     guidetolerance="10"
     inkscape:pageopacity="0"
     inkscape:pageshadow="2"
     inkscape:window-width="1680"
     inkscape:window-height="1012"
     id="namedview23"
     showgrid="false"
     inkscape:showpageshadow="false"
     inkscape:snap-object-midpoints="true"
     inkscape:snap-page="true"
     inkscape:object-paths="true"
     inkscape:snap-intersection-paths="true"
     inkscape:snap-bbox="true"
     inkscape:snap-center="true"
     inkscape:snap-bbox-midpoints="true"
     inkscape:bbox-paths="true"
     inkscape:bbox-nodes="true"
     inkscape:snap-bbox-edge-midpoints="true"
     inkscape:object-nodes="true"
     inkscape:snap-midpoints="true"
     inkscape:snap-smooth-nodes="true"
     inkscape:snap-text-baseline="true"
     inkscape:zoom="39.333333"
     inkscape:cx="4.0028403"
     inkscape:cy="10.640807"
     inkscape:window-x="0"
     inkscape:window-y="28"
     inkscape:window-maximized="1"
     inkscape:current-layer="svg2" /><g
     id="g4206"
     transform="matrix(0.51592932,0,0,0.4989341,0,0.26377726)"
     style="fill:#d4d4d4;fill-opacity:1"><g
       id="g4158"
       style="fill:#d4d4d4;fill-opacity:1"><g
         id="g4160"
         style="fill:#d4d4d4;fill-opacity:1"><path
           id="path4162"
           d="m 25.109,21.51 c -0.123,0 -0.246,-0.045 -0.342,-0.136 l -5.754,-5.398 c -0.201,-0.188 -0.211,-0.505 -0.022,-0.706 0.189,-0.203 0.504,-0.212 0.707,-0.022 l 5.754,5.398 c 0.201,0.188 0.211,0.505 0.022,0.706 -0.099,0.105 -0.231,0.158 -0.365,0.158 z"
           inkscape:connector-curvature="0"
           style="fill:#d4d4d4;fill-opacity:1" /><path
           id="path4164"
           d="M 5.902,21.51 C 5.769,21.51 5.636,21.457 5.537,21.352 5.348,21.151 5.358,20.834 5.559,20.646 l 5.756,-5.398 c 0.202,-0.188 0.519,-0.18 0.707,0.022 0.189,0.201 0.179,0.518 -0.022,0.706 L 6.244,21.374 C 6.148,21.465 6.025,21.51 5.902,21.51 Z"
           inkscape:connector-curvature="0"
           style="fill:#d4d4d4;fill-opacity:1" /></g><path
         id="path4166"
         d="m 28.512,26.529 -26.012,0 C 1.122,26.529 0,25.408 0,24.029 L 0,6.982 c 0,-1.379 1.122,-2.5 2.5,-2.5 l 26.012,0 c 1.378,0 2.5,1.121 2.5,2.5 l 0,17.047 c 0,1.379 -1.122,2.5 -2.5,2.5 z M 2.5,5.482 C 1.673,5.482 1,6.155 1,6.982 l 0,17.047 c 0,0.827 0.673,1.5 1.5,1.5 l 26.012,0 c 0.827,0 1.5,-0.673 1.5,-1.5 l 0,-17.047 c 0,-0.827 -0.673,-1.5 -1.5,-1.5 l -26.012,0 z"
         inkscape:connector-curvature="0"
         style="fill:#d4d4d4;fill-opacity:1" /><path
         id="path4168"
         d="m 15.506,18.018 c -0.665,0 -1.33,-0.221 -1.836,-0.662 L 0.83,6.155 C 0.622,5.974 0.6,5.658 0.781,5.449 0.964,5.241 1.279,5.222 1.487,5.401 l 12.84,11.2 c 0.639,0.557 1.719,0.557 2.357,0 L 29.508,5.419 c 0.207,-0.181 0.522,-0.161 0.706,0.048 0.181,0.209 0.16,0.524 -0.048,0.706 L 17.342,17.355 c -0.507,0.442 -1.171,0.663 -1.836,0.663 z"
         inkscape:connector-curvature="0"
         style="fill:#d4d4d4;fill-opacity:1" /></g><g
       id="g4170"
       style="fill:#d4d4d4;fill-opacity:1" /><g
       id="g4172"
       style="fill:#d4d4d4;fill-opacity:1" /><g
       id="g4174"
       style="fill:#d4d4d4;fill-opacity:1" /><g
       id="g4176"
       style="fill:#d4d4d4;fill-opacity:1" /><g
       id="g4178"
       style="fill:#d4d4d4;fill-opacity:1" /><g
       id="g4180"
       style="fill:#d4d4d4;fill-opacity:1" /><g
       id="g4182"
       style="fill:#d4d4d4;fill-opacity:1" /><g
       id="g4184"
       style="fill:#d4d4d4;fill-opacity:1" /><g
       id="g4186"
       style="fill:#d4d4d4;fill-opacity:1" /><g
       id="g4188"
       style="fill:#d4d4d4;fill-opacity:1" /><g
       id="g4190"
       style="fill:#d4d4d4;fill-opacity:1" /><g
       id="g4192"
       style="fill:#d4d4d4;fill-opacity:1" /><g
       id="g4194"
       style="fill:#d4d4d4;fill-opacity:1" /><g
       id="g4196"
       style="fill:#d4d4d4;fill-opacity:1" /><g
       id="g4198"
       style="fill:#d4d4d4;fill-opacity:1" /></g></svg>