<?xml version="1.0" encoding="UTF-8" standalone="no"?>
<!-- Generator: Adobe Illustrator 19.0.0, SVG Export Plug-In . SVG Version: 6.00 Build 0)  -->

<svg
   xmlns:dc="http://purl.org/dc/elements/1.1/"
   xmlns:cc="http://creativecommons.org/ns#"
   xmlns:rdf="http://www.w3.org/1999/02/22-rdf-syntax-ns#"
   xmlns:svg="http://www.w3.org/2000/svg"
   xmlns="http://www.w3.org/2000/svg"
   xmlns:sodipodi="http://sodipodi.sourceforge.net/DTD/sodipodi-0.dtd"
   xmlns:inkscape="http://www.inkscape.org/namespaces/inkscape"
   version="1.1"
   id="Capa_1"
   x="0px"
   y="0px"
   viewBox="0 0 3.75 3.75"
   xml:space="preserve"
   width="32"
   height="32"
   inkscape:version="0.91 r13725"
   sodipodi:docname="shortcut-files.svg"><metadata
     id="metadata39"><rdf:RDF><cc:Work
         rdf:about=""><dc:format>image/svg+xml</dc:format><dc:type
           rdf:resource="http://purl.org/dc/dcmitype/StillImage" /><dc:title /></cc:Work></rdf:RDF></metadata><defs
     id="defs37" /><sodipodi:namedview
     pagecolor="#ffffff"
     bordercolor="#666666"
     borderopacity="1"
     objecttolerance="10"
     gridtolerance="10"
     guidetolerance="10"
     inkscape:pageopacity="0"
     inkscape:pageshadow="2"
     inkscape:window-width="3840"
     inkscape:window-height="2106"
     id="namedview35"
     showgrid="false"
     inkscape:showpageshadow="false"
     inkscape:zoom="29.5"
     inkscape:cx="2.1058403"
     inkscape:cy="11.062563"
     inkscape:window-x="0"
     inkscape:window-y="44"
     inkscape:window-maximized="1"
     inkscape:current-layer="Capa_1" /><path
     style="fill:#000000;fill-opacity:1"
     inkscape:connector-curvature="0"
     id="path4148"
     d="M 1.684414,0.95740011 1.4109765,0.5859377 l -1.17660152,0 0,2.8124996 3.28124982,0 0,-1.963443 0,-0.106132 0,-0.37146219 -1.8312108,0 z m 0.2734375,0.37146199 -0.195289,-0.26533 1.6436873,0 0,0.26533 -1.4483983,0 z" /><path
     d="m 1.684414,0.84021262 -0.2734375,-0.37146241 -1.17660152,0 0,2.81249959 3.28124982,0 0,-1.963443 0,-0.106132 0,-0.37146218 -1.8312108,0 z m 0.2734375,0.37146198 -0.195289,-0.26532999 1.6436873,0 0,0.26532999 -1.4483983,0 z"
     id="path3"
     inkscape:connector-curvature="0"
     style="fill:#aaaaaa;fill-opacity:1" /><g
     id="g5"
     transform="translate(0,-56.249997)" /><g
     id="g7"
     transform="translate(0,-56.249997)" /><g
     id="g9"
     transform="translate(0,-56.249997)" /><g
     id="g11"
     transform="translate(0,-56.249997)" /><g
     id="g13"
     transform="translate(0,-56.249997)" /><g
     id="g15"
     transform="translate(0,-56.249997)" /><g
     id="g17"
     transform="translate(0,-56.249997)" /><g
     id="g19"
     transform="translate(0,-56.249997)" /><g
     id="g21"
     transform="translate(0,-56.249997)" /><g
     id="g23"
     transform="translate(0,-56.249997)" /><g
     id="g25"
     transform="translate(0,-56.249997)" /><g
     id="g27"
     transform="translate(0,-56.249997)" /><g
     id="g29"
     transform="translate(0,-56.249997)" /><g
     id="g31"
     transform="translate(0,-56.249997)" /><g
     id="g33"
     transform="translate(0,-56.249997)" /></svg>