<?xml version="1.0" encoding="UTF-8" standalone="no"?>
<svg
   xmlns:dc="http://purl.org/dc/elements/1.1/"
   xmlns:cc="http://creativecommons.org/ns#"
   xmlns:rdf="http://www.w3.org/1999/02/22-rdf-syntax-ns#"
   xmlns:svg="http://www.w3.org/2000/svg"
   xmlns="http://www.w3.org/2000/svg"
   xmlns:sodipodi="http://sodipodi.sourceforge.net/DTD/sodipodi-0.dtd"
   xmlns:inkscape="http://www.inkscape.org/namespaces/inkscape"
   width="34"
   height="34"
   viewBox="0 0 34 34"
   version="1.1"
   id="svg10"
   sodipodi:docname="vivaldi.svg"
   inkscape:version="0.92.0 r">
  <sodipodi:namedview
     pagecolor="#ffffff"
     bordercolor="#666666"
     borderopacity="1"
     objecttolerance="10"
     gridtolerance="10"
     guidetolerance="10"
     inkscape:pageopacity="0"
     inkscape:pageshadow="2"
     inkscape:window-width="3840"
     inkscape:window-height="2104"
     id="namedview12"
     showgrid="false"
     inkscape:zoom="41.7193"
     inkscape:cx="21.024679"
     inkscape:cy="15.85642"
     inkscape:window-x="0"
     inkscape:window-y="46"
     inkscape:window-maximized="1"
     inkscape:current-layer="g4506" />
  <metadata
     id="metadata14">
    <rdf:RDF>
      <cc:Work
         rdf:about="">
        <dc:format>image/svg+xml</dc:format>
        <dc:type
           rdf:resource="http://purl.org/dc/dcmitype/StillImage" />
        <dc:title>vivaldi_icon_official</dc:title>
      </cc:Work>
    </rdf:RDF>
  </metadata>
  <!-- Generator: Sketch 41 (35326) - http://www.bohemiancoding.com/sketch -->
  <title
     id="title2">vivaldi_icon_official</title>
  <desc
     id="desc4">Created with Sketch.</desc>
  <defs
     id="defs6" />
  <g
     transform="scale(0.03320312)"
     style="fill:none;fill-rule:evenodd;stroke:none;stroke-width:30.11764717"
     id="Page-1">
    <g
       id="g4506"
       transform="translate(0,5.9418753e-6)">
      <g
         id="g4528"
         transform="matrix(0.93939393,0,0,0.93939395,30.117652,30.11764)"
         style="stroke-width:32.06071854">
        <path
           style="fill:#000000;fill-opacity:1;stroke-width:32.06071854"
           d="m 196.51977,992.99355 c -10.28189,-2.9626 -17.2561,-11.5211 -19.65963,-24.12552 -1.78321,-9.35143 -1.15872,-8.93155 -12.83336,-8.62872 -9.59303,0.24885 -10.53594,0.10265 -15.85099,-2.45778 -9.46437,-4.55931 -15.6282,-13.03534 -16.99599,-23.37163 l -0.63734,-4.81633 -6.62616,-0.55544 c -11.69371,-0.98022 -21.58856,-7.8523 -26.449882,-18.3697 L 95.431138,906.26515 94.960208,724.97919 94.489268,543.69324 63.543847,385.48005 C 46.523864,298.4628 32.21715,224.30036 31.751148,220.67465 31.285145,217.04892 30.635189,211.86193 30.3068,209.148 c -0.843066,-6.96744 1.198737,-15.64539 4.797381,-20.38958 5.375745,-7.08699 11.299142,-10.21887 24.185202,-12.78753 l 5.300468,-1.05657 -0.481343,-10.154 c -0.455036,-9.59903 -0.338805,-10.47158 2.126572,-15.96445 4.383868,-9.76727 13.056318,-16.22755 23.669118,-17.63158 l 4.83361,-0.63946 0.62443,-6.33614 c 0.74604,-7.57006 4.57569,-16.15127 9.137632,-20.4749 1.74656,-1.65533 5.71861,-4.198022 8.82678,-5.650452 l 5.65121,-2.6408 180.8388,-0.47087 180.83881,-0.47087 158.23395,-30.939845 c 87.02867,-17.016913 161.20084,-31.32175 164.82703,-31.788528 3.6262,-0.466779 8.81387,-1.117335 11.52816,-1.44568 6.96834,-0.842956 15.64744,1.198579 20.39225,4.796751 7.08791,5.37504 10.22022,11.29766 12.78921,24.182028 l 1.05671,5.299774 10.15533,-0.48128 c 9.60029,-0.454977 10.47296,-0.338762 15.96655,2.126293 9.76855,4.383297 16.22968,13.054617 17.63389,23.666017 l 0.63955,4.83298 6.33697,0.62435 c 7.57105,0.74593 16.15339,4.57509 20.47758,9.136412 1.65554,1.74633 4.19859,5.71786 5.65121,8.82562 l 2.64114,5.65047 0.47093,180.81508 0.47094,180.81508 31.22447,160.09667 c 17.17341,88.05318 31.57361,162.6394 32.00031,165.74716 1.1106,8.0876 0.9361,18.20789 -0.3916,22.70572 -2.5203,8.5389 -12.4162,16.16908 -23.74563,18.30911 -9.37654,1.77116 -8.95601,1.14785 -8.65302,12.82541 0.24888,9.59177 0.10266,10.53456 -2.45811,15.8489 -4.5599,9.46314 -13.03705,15.62616 -23.37469,16.99377 l -4.81696,0.63726 -0.54148,6.45793 c -0.29781,3.55187 -1.37718,8.34693 -2.39859,10.65571 -2.64073,5.969 -8.89087,12.34604 -15.07786,15.38399 l -5.31356,2.60908 -181.30974,0.47087 -181.30974,0.47087 -160.11769,31.22455 c -88.06472,17.17353 -162.23689,31.49163 -164.82703,31.81803 -10.51493,1.3254 -18.02347,1.3733 -22.29618,0.1422 z M 519.11863,792.83764 c 14.76732,-5.08004 27.5705,-14.64641 37.46122,-27.99053 1.98327,-2.67575 19.56996,-32.55261 39.08152,-66.39304 19.51158,-33.84043 73.01947,-126.5791 118.90645,-206.08593 45.88698,-79.50684 84.80325,-147.94818 86.48062,-152.09186 11.54793,-28.52745 5.75481,-60.21265 -15.00396,-82.06336 -8.06459,-8.4888 -13.23601,-12.36762 -23.01167,-17.25984 -14.16575,-7.08925 -22.91581,-7.6236 -38.6052,-2.35754 -17.52516,5.88223 -31.05909,16.22281 -40.84009,31.20383 -8.36742,12.81594 -11.66005,24.34867 -11.65192,40.81194 0.007,13.63364 1.46511,20.4138 7.19112,33.43196 14.55,33.07966 17.63357,56.55834 11.44079,87.11143 -9.50577,46.89823 -46.12364,84.53543 -94.06219,96.6806 -17.66425,4.47521 -57.01145,3.71782 -79.11697,-1.52291 -22.12407,-5.24512 -41.18592,-15.68817 -56.71712,-31.07251 -14.9714,-14.82982 -16.05043,-16.5621 -85.08706,-136.59957 -55.74144,-96.92044 -53.18107,-92.746 -63.44495,-103.44044 -7.35418,-7.66268 -15.11149,-12.97616 -24.56685,-16.82744 -6.33788,-2.58148 -8.74549,-3.07157 -15.15471,-3.08489 -18.47958,-0.0384 -37.49941,8.59591 -51.40736,23.33714 -20.32444,21.54215 -26.07966,52.25318 -15.09354,80.54225 1.47922,3.80898 11.94129,22.992 23.24904,42.62894 11.30775,19.63693 39.50442,68.54688 62.6593,108.68877 23.15487,40.14189 58.10982,100.74319 77.67768,134.66956 61.85502,107.24304 76.94263,133.10453 81.03872,138.90742 9.18194,13.00799 22.02612,22.86907 35.49201,27.24889 14.02822,4.56272 23.05031,4.97916 33.08512,1.52713 z"
           id="path4524"
           inkscape:connector-curvature="0" />
        <path
           inkscape:connector-curvature="0"
           id="path4520"
           d="m 166.40212,962.87593 c -10.28189,-2.9626 -17.2561,-11.5211 -19.65963,-24.12555 -1.78321,-9.35143 -1.15872,-8.93155 -12.83336,-8.62872 -9.59303,0.24885 -10.53594,0.10265 -15.85099,-2.45778 -9.46437,-4.55931 -15.6282,-13.03534 -16.99599,-23.37163 l -0.63734,-4.81633 -6.626162,-0.55544 c -11.69371,-0.98022 -21.58856,-7.8523 -26.449882,-18.3697 L 65.313486,876.1475 64.842556,694.86154 64.371616,513.57559 33.426195,355.3624 C 16.406212,268.34515 2.0994984,194.18271 1.6334964,190.557 1.1674934,186.93127 0.51753741,181.74428 0.18914841,179.03035 -0.65391759,172.06291 1.3878854,163.38496 4.9865294,158.64077 10.362274,151.55378 16.285671,148.4219 29.171731,145.85324 l 5.300468,-1.05657 -0.481343,-10.154 c -0.455036,-9.59903 -0.338805,-10.47158 2.126572,-15.96445 4.383868,-9.76727 13.056318,-16.22755 23.669118,-17.63158 l 4.83361,-0.63946 0.62443,-6.336142 c 0.74604,-7.57006 4.57569,-16.15127 9.137632,-20.4749 1.74656,-1.65533 5.71861,-4.198026 8.82678,-5.650456 l 5.65121,-2.6408 180.838802,-0.47087 180.83881,-0.47087 158.23395,-30.939841 C 695.80044,16.406388 769.97261,2.1015514 773.5988,1.6347734 c 3.6262,-0.466779 8.81387,-1.11733499 11.52816,-1.44567999 6.96834,-0.842956 15.64744,1.19857899 20.39225,4.79675099 7.08791,5.3750396 10.22022,11.2976596 12.78921,24.1820276 l 1.05671,5.299774 10.15533,-0.48128 c 9.60029,-0.454977 10.47296,-0.338762 15.96655,2.126293 9.76855,4.383293 16.22968,13.054613 17.63389,23.666013 l 0.63955,4.83298 6.33697,0.62435 c 7.57105,0.74593 16.15339,4.57509 20.47758,9.136416 1.65554,1.74633 4.19859,5.71786 5.65121,8.82562 l 2.64114,5.65047 0.47093,180.815082 0.47094,180.81508 31.22447,160.09667 c 17.17341,88.05318 31.57361,162.6394 32.00031,165.74716 1.1106,8.0876 0.9361,18.20789 -0.3916,22.70572 -2.5203,8.5389 -12.4162,16.16908 -23.74563,18.30911 -9.37654,1.77116 -8.95601,1.14785 -8.65302,12.82541 0.24888,9.59177 0.10266,10.53456 -2.45811,15.8489 -4.5599,9.46314 -13.03705,15.62616 -23.37469,16.99377 l -4.81696,0.63726 -0.54148,6.45793 c -0.29781,3.55187 -1.37718,8.34693 -2.39859,10.65571 -2.64073,5.969 -8.89087,12.34604 -15.07786,15.38399 l -5.31356,2.60908 -181.30974,0.47087 -181.30974,0.47087 -160.11769,31.22455 c -88.06472,17.17356 -162.23689,31.49166 -164.82703,31.81806 -10.51493,1.3254 -18.02347,1.3733 -22.29618,0.1422 z M 489.00098,762.71999 c 14.76732,-5.08004 27.5705,-14.64641 37.46122,-27.99053 1.98327,-2.67575 19.56996,-32.55261 39.08152,-66.39304 19.51158,-33.84043 73.01947,-126.5791 118.90645,-206.08593 45.88698,-79.50684 84.80325,-147.94818 86.48062,-152.09186 11.54793,-28.52745 5.75481,-60.21265 -15.00396,-82.06336 -8.06459,-8.4888 -13.23601,-12.36762 -23.01167,-17.25984 -14.16575,-7.08925 -22.91581,-7.6236 -38.6052,-2.35754 -17.52516,5.88223 -31.05909,16.22281 -40.84009,31.20383 -8.36742,12.81594 -11.66005,24.34867 -11.65192,40.81194 0.007,13.63364 1.46511,20.4138 7.19112,33.43196 14.55,33.07966 17.63357,56.55834 11.44079,87.11143 -9.50577,46.89823 -46.12364,84.53543 -94.06219,96.6806 -17.66425,4.47521 -57.01145,3.71782 -79.11697,-1.52291 -22.12407,-5.24512 -41.18592,-15.68817 -56.71712,-31.07251 -14.9714,-14.82982 -16.05043,-16.5621 -85.08706,-136.59957 -55.74144,-96.92044 -53.18107,-92.746 -63.44495,-103.44044 -7.35418,-7.66268 -15.11149,-12.97616 -24.56685,-16.82744 -6.33788,-2.58148 -8.74549,-3.07157 -15.15471,-3.08489 -18.47958,-0.0384 -37.49941,8.59591 -51.40736,23.33714 -20.32444,21.54215 -26.07966,52.25318 -15.09354,80.54225 1.47922,3.80898 11.94129,22.992 23.24904,42.62894 11.30775,19.63693 39.50442,68.54688 62.6593,108.68877 23.15487,40.14189 58.10982,100.74319 77.67768,134.66956 61.85502,107.24304 76.94263,133.10453 81.03872,138.90742 9.18194,13.00799 22.02612,22.86907 35.49201,27.24889 14.02822,4.56272 23.05031,4.97916 33.08512,1.52713 z"
           style="fill:#aaaaaa;fill-opacity:1;stroke-width:32.06071854" />
      </g>
    </g>
  </g>
</svg>
