<?xml version="1.0" encoding="UTF-8" standalone="no"?>
<!-- Generator: Adobe Illustrator 19.0.0, SVG Export Plug-In . SVG Version: 6.00 Build 0)  -->

<svg
   xmlns:dc="http://purl.org/dc/elements/1.1/"
   xmlns:cc="http://creativecommons.org/ns#"
   xmlns:rdf="http://www.w3.org/1999/02/22-rdf-syntax-ns#"
   xmlns:svg="http://www.w3.org/2000/svg"
   xmlns="http://www.w3.org/2000/svg"
   xmlns:sodipodi="http://sodipodi.sourceforge.net/DTD/sodipodi-0.dtd"
   xmlns:inkscape="http://www.inkscape.org/namespaces/inkscape"
   version="1.1"
   id="Layer_1"
   x="0px"
   y="0px"
   viewBox="0 0 32 32"
   xml:space="preserve"
   inkscape:version="0.91 r13725"
   sodipodi:docname="xkb-si.svg"
   width="32"
   height="32"><metadata
     id="metadata65"><rdf:RDF><cc:Work
         rdf:about=""><dc:format>image/svg+xml</dc:format><dc:type
           rdf:resource="http://purl.org/dc/dcmitype/StillImage" /><dc:title /></cc:Work></rdf:RDF></metadata><defs
     id="defs63" /><sodipodi:namedview
     pagecolor="#ffffff"
     bordercolor="#666666"
     borderopacity="1"
     objecttolerance="10"
     gridtolerance="10"
     guidetolerance="10"
     inkscape:pageopacity="0"
     inkscape:pageshadow="2"
     inkscape:window-width="3840"
     inkscape:window-height="2106"
     id="namedview61"
     showgrid="false"
     inkscape:zoom="29.5"
     inkscape:cx="16.174119"
     inkscape:cy="14.549737"
     inkscape:window-x="0"
     inkscape:window-y="44"
     inkscape:window-maximized="1"
     inkscape:current-layer="Layer_1" /><path
     inkscape:connector-curvature="0"
     id="path4166"
     d="M 31.44819,28 0.551749,28 C 0.247062,28 0,27.740748 0,27.421027 l 0,-6.754338 31.999939,0 0,6.754338 C 31.999939,27.740814 31.752877,28 31.44819,28 Z"
     style="fill:#000000;fill-opacity:1" /><g
     id="g4193"
     transform="matrix(0.06249988,0,0,0.06558374,0,30.690791)"><path
       inkscape:connector-curvature="0"
       id="path3"
       d="m 512,-279.908 -512,0 0,-102.989 c 0,-4.875 3.953,-8.828 8.828,-8.828 l 494.345,0 c 4.875,0 8.828,3.953 8.828,8.828 l 0,102.989 z"
       style="fill:#f5f5f5" /><path
       inkscape:connector-curvature="0"
       id="path5"
       d="m 503.172,-56.276 -494.344,0 C 3.953,-56.276 0,-60.229 0,-65.104 l 0,-102.988 512,0 0,102.988 c 0,4.876 -3.953,8.828 -8.828,8.828 z"
       style="fill:#ff4b55" /><g
       transform="translate(0,-480)"
       id="g7"><rect
         x="0"
         id="rect9"
         height="111.812"
         width="512"
         style="fill:#41479b"
         y="200.088" /><path
         inkscape:connector-curvature="0"
         id="path11"
         d="m 172.014,157.37 c 0,0 -1.778,56.628 -9.724,72.53 -9.836,19.545 -19.725,25.247 -34.438,30.515 -14.711,-5.267 -24.6,-10.965 -34.438,-30.515 -7.945,-15.903 -9.725,-72.524 -9.724,-72.53 28.077,-12.677 60.247,-12.677 88.324,0 z"
         style="fill:#41479b" /></g><g
       transform="translate(0,-480)"
       id="g13"><path
         inkscape:connector-curvature="0"
         id="path15"
         d="m 140.64,235.897 c -1.076,-0.69 -1.852,-1.184 -3.618,-1.184 -1.761,0 -2.537,0.493 -3.608,1.184 -1.227,0.781 -2.753,1.759 -5.59,1.759 -2.839,0 -4.365,-0.978 -5.592,-1.763 -1.071,-0.685 -1.845,-1.178 -3.606,-1.178 -1.761,0 -2.535,0.493 -3.606,1.178 -1.159,0.743 -2.624,1.628 -5.171,1.727 5.362,6.538 10.983,9.64 17.998,12.333 7.012,-2.694 12.632,-5.793 17.994,-12.331 -2.565,-0.093 -4.038,-0.984 -5.201,-1.725 z"
         style="fill:#f5f5f5" /><path
         inkscape:connector-curvature="0"
         id="path17"
         d="m 105.832,225.437 c 1.071,0.685 1.843,1.178 3.598,1.178 1.761,0 2.535,-0.493 3.606,-1.178 1.227,-0.786 2.753,-1.763 5.59,-1.763 2.837,0 4.363,0.978 5.59,1.759 1.071,0.69 1.847,1.184 3.608,1.184 1.761,0 2.535,-0.493 3.606,-1.178 1.227,-0.786 2.753,-1.763 5.592,-1.763 2.841,0 4.37,0.978 5.597,1.759 1.076,0.69 1.849,1.184 3.616,1.184 1.767,0 2.542,-0.493 3.618,-1.184 1.025,-0.653 2.312,-1.409 4.35,-1.651 0.534,-1.39 1.053,-2.975 1.536,-4.9 l -13.17,-21.95 -4.907,9.814 -9.814,-19.627 -9.814,19.627 -4.907,-9.814 -13.162,21.937 c 0.481,1.924 0.999,3.516 1.534,4.915 2.03,0.239 3.311,0.995 4.333,1.651 z"
         style="fill:#f5f5f5" /><path
         inkscape:connector-curvature="0"
         id="path19"
         d="m 151.831,228.537 c -1.227,0.781 -2.755,1.759 -5.597,1.759 -2.839,0 -4.367,-0.978 -5.594,-1.759 -1.076,-0.69 -1.852,-1.184 -3.618,-1.184 -1.761,0 -2.537,0.493 -3.608,1.184 -1.227,0.781 -2.753,1.759 -5.59,1.759 -2.839,0 -4.365,-0.978 -5.592,-1.763 -1.071,-0.685 -1.845,-1.178 -3.606,-1.178 -1.761,0 -2.535,0.493 -3.606,1.178 -1.227,0.786 -2.753,1.763 -5.59,1.763 -2.835,0 -4.359,-0.978 -5.582,-1.763 -0.006,-0.003 -0.011,-0.007 -0.017,-0.011 0.962,1.746 1.923,3.349 2.881,4.803 0.716,0.393 1.465,0.651 2.718,0.651 1.761,0 2.535,-0.493 3.606,-1.178 1.227,-0.786 2.753,-1.763 5.59,-1.763 2.837,0 4.363,0.978 5.59,1.759 1.071,0.69 1.847,1.184 3.608,1.184 1.761,0 2.535,-0.493 3.606,-1.178 1.227,-0.786 2.753,-1.763 5.592,-1.763 2.841,0 4.37,0.978 5.597,1.759 1.076,0.69 1.849,1.184 3.616,1.184 1.272,0 2.027,-0.262 2.754,-0.663 0.957,-1.452 1.918,-3.055 2.879,-4.799 -0.013,0.005 -0.024,0.012 -0.037,0.019 z"
         style="fill:#f5f5f5" /></g><g
       transform="translate(0,-480)"
       id="g21"><path
         inkscape:connector-curvature="0"
         id="path23"
         d="m 128.046,170.222 0.861,2.814 2.867,-0.661 c 0.194,-0.045 0.33,0.19 0.194,0.335 l -2.006,2.153 2.006,2.153 c 0.136,0.146 0.001,0.381 -0.194,0.335 l -2.867,-0.661 -0.861,2.814 c -0.058,0.191 -0.329,0.191 -0.387,0 l -0.861,-2.814 -2.867,0.661 c -0.194,0.045 -0.33,-0.19 -0.194,-0.335 l 2.006,-2.153 -2.006,-2.153 c -0.136,-0.146 -10e-4,-0.381 0.194,-0.335 l 2.867,0.661 0.861,-2.814 c 0.059,-0.191 0.329,-0.191 0.387,0 z"
         style="fill:#ffe15a" /><path
         inkscape:connector-curvature="0"
         id="path25"
         d="m 113.939,156.702 0.861,2.814 2.867,-0.661 c 0.194,-0.045 0.33,0.19 0.194,0.335 l -2.006,2.153 2.006,2.153 c 0.136,0.146 10e-4,0.381 -0.194,0.335 l -2.867,-0.661 -0.861,2.814 c -0.058,0.191 -0.329,0.191 -0.387,0 l -0.861,-2.814 -2.867,0.661 c -0.194,0.045 -0.33,-0.19 -0.194,-0.335 l 2.006,-2.153 -2.006,-2.153 c -0.136,-0.146 -10e-4,-0.381 0.194,-0.335 l 2.867,0.661 0.861,-2.814 c 0.058,-0.191 0.328,-0.191 0.387,0 z"
         style="fill:#ffe15a" /><path
         inkscape:connector-curvature="0"
         id="path27"
         d="m 142.255,156.702 0.861,2.814 2.867,-0.661 c 0.194,-0.045 0.33,0.19 0.194,0.335 l -2.006,2.153 2.006,2.153 c 0.136,0.146 0.001,0.381 -0.194,0.335 l -2.867,-0.661 -0.861,2.814 c -0.058,0.191 -0.329,0.191 -0.387,0 l -0.861,-2.814 -2.867,0.661 c -0.194,0.045 -0.33,-0.19 -0.194,-0.335 l 2.006,-2.153 -2.006,-2.153 c -0.136,-0.146 -0.001,-0.381 0.194,-0.335 l 2.867,0.661 0.861,-2.814 c 0.059,-0.191 0.329,-0.191 0.387,0 z"
         style="fill:#ffe15a" /></g><path
       inkscape:connector-curvature="0"
       id="path29"
       d="m 166.934,-324.762 c 0.03,1.565 0.055,3.144 0.055,4.849 -0.708,17.704 -3.342,56.258 -9.082,67.87 -8.463,16.996 -16.277,22.614 -30.055,27.791 -13.778,-5.176 -21.591,-10.793 -30.048,-27.778 -5.761,-11.656 -8.414,-50.866 -9.091,-67.882 0,-1.707 0.028,-3.268 0.052,-4.846 -1.698,0.665 -3.386,1.368 -5.058,2.123 0.118,3.438 0.974,25.992 3.545,45.823 1.45,11.071 3.446,21.274 6.163,26.713 9.837,19.55 19.726,25.248 34.438,30.515 14.713,-5.269 24.601,-10.969 34.439,-30.515 2.718,-5.439 4.713,-15.642 6.164,-26.713 2.57,-19.831 3.425,-42.385 3.544,-45.823 -1.675,-0.757 -3.364,-1.462 -5.066,-2.127 z"
       style="fill:#ff1722" /></g><g
     id="g31"
     transform="translate(0,-480)" /><g
     id="g33"
     transform="translate(0,-480)" /><g
     id="g35"
     transform="translate(0,-480)" /><g
     id="g37"
     transform="translate(0,-480)" /><g
     id="g39"
     transform="translate(0,-480)" /><g
     id="g41"
     transform="translate(0,-480)" /><g
     id="g43"
     transform="translate(0,-480)" /><g
     id="g45"
     transform="translate(0,-480)" /><g
     id="g47"
     transform="translate(0,-480)" /><g
     id="g49"
     transform="translate(0,-480)" /><g
     id="g51"
     transform="translate(0,-480)" /><g
     id="g53"
     transform="translate(0,-480)" /><g
     id="g55"
     transform="translate(0,-480)" /><g
     id="g57"
     transform="translate(0,-480)" /><g
     id="g59"
     transform="translate(0,-480)" /></svg>