/* XPM */
static char * top_left_active_xpm[] = {
"2 10 2 1",
" 	c None",
".	c #888888",
"  ",
" .",
"..",
"..",
"..",
"..",
"..",
"..",
"..",
".."};
