<?xml version="1.0" encoding="UTF-8" standalone="no"?>
<!-- Generator: Adobe Illustrator 16.0.0, SVG Export Plug-In . SVG Version: 6.00 Build 0)  -->

<svg
   xmlns:dc="http://purl.org/dc/elements/1.1/"
   xmlns:cc="http://creativecommons.org/ns#"
   xmlns:rdf="http://www.w3.org/1999/02/22-rdf-syntax-ns#"
   xmlns:svg="http://www.w3.org/2000/svg"
   xmlns="http://www.w3.org/2000/svg"
   xmlns:sodipodi="http://sodipodi.sourceforge.net/DTD/sodipodi-0.dtd"
   xmlns:inkscape="http://www.inkscape.org/namespaces/inkscape"
   version="1.1"
   id="Capa_1"
   x="0px"
   y="0px"
   width="16"
   height="32"
   viewBox="0 0 16 32"
   xml:space="preserve"
   inkscape:version="0.91 r13725"
   sodipodi:docname="blinkstick-off.svg"><metadata
     id="metadata41"><rdf:RDF><cc:Work
         rdf:about=""><dc:format>image/svg+xml</dc:format><dc:type
           rdf:resource="http://purl.org/dc/dcmitype/StillImage" /><dc:title></dc:title></cc:Work></rdf:RDF></metadata><defs
     id="defs39" /><sodipodi:namedview
     pagecolor="#ffffff"
     bordercolor="#666666"
     borderopacity="1"
     objecttolerance="10"
     gridtolerance="10"
     guidetolerance="10"
     inkscape:pageopacity="0"
     inkscape:pageshadow="2"
     inkscape:window-width="3840"
     inkscape:window-height="2106"
     id="namedview37"
     showgrid="false"
     inkscape:zoom="41.7193"
     inkscape:cx="1.0130336"
     inkscape:cy="15.741214"
     inkscape:window-x="0"
     inkscape:window-y="44"
     inkscape:window-maximized="1"
     inkscape:current-layer="g3" /><g
     id="g3"
     transform="matrix(0.04166667,0,0,0.04166667,-2.6666669,5.666665)"><path
       sodipodi:nodetypes="sccssssssscscssssssssss"
       style="fill:#000000;fill-opacity:1"
       inkscape:connector-curvature="0"
       id="path4169"
       d="m 423.99997,140.00003 c 0,83.99999 -83.99999,166.68748 -83.99999,251.99998 l -167.99999,0 c 0,-82.6875 -83.999988,-167.99999 -83.999988,-251.99998 0,-92.777993 75.223298,-167.999987 167.999978,-167.999987 92.778,0 167.99999,75.223306 167.99999,167.999987 z M 318.99998,476 192.99999,476 c -11.60774,0 -21,9.39225 -21,21 0,11.60775 9.39226,21 21,21 l 3.85613,0 c 8.65461,24.4453 31.74674,41.99999 59.14517,41.99999 27.39845,0 50.49188,-17.55469 59.14519,-41.99999 l 3.8535,0 c 11.60774,0 21,-9.39225 21,-21 0,-11.60775 -9.39226,-21 -21,-21 z m 0,-62.99999 -125.99999,0 c -11.60774,0 -21,9.39225 -21,20.99999 0,11.60776 9.39226,21 21,21 l 125.99999,0 c 11.60774,0 21,-9.39224 21,-21 0,-11.60774 -9.39226,-20.99999 -21,-20.99999 z" /><path
       d="m 423.99997,116.00003 c 0,83.99999 -83.99999,166.68748 -83.99999,251.99998 l -167.99999,0 c 0,-82.6875 -83.999992,-167.99999 -83.999992,-251.99998 0,-92.777991 75.223302,-167.999985 167.999982,-167.999985 92.778,0 167.99999,75.223306 167.99999,167.999985 z M 318.99998,452 192.99999,452 c -11.60774,0 -21,9.39225 -21,21 0,11.60775 9.39226,21 21,21 l 3.85613,0 c 8.65461,24.4453 31.74674,41.99999 59.14517,41.99999 27.39845,0 50.49188,-17.55469 59.14519,-41.99999 l 3.8535,0 c 11.60774,0 21,-9.39225 21,-21 0,-11.60775 -9.39226,-21 -21,-21 z m 0,-62.99999 -125.99999,0 c -11.60774,0 -21,9.39225 -21,20.99999 0,11.60776 9.39226,21 21,21 l 125.99999,0 c 11.60774,0 21,-9.39224 21,-21 0,-11.60774 -9.39226,-20.99999 -21,-20.99999 z"
       id="path5"
       inkscape:connector-curvature="0"
       style="fill:#aaaaaa;fill-opacity:1"
       sodipodi:nodetypes="sccssssssscscssssssssss" /></g><g
     id="g7"
     transform="translate(0,-480)" /><g
     id="g9"
     transform="translate(0,-480)" /><g
     id="g11"
     transform="translate(0,-480)" /><g
     id="g13"
     transform="translate(0,-480)" /><g
     id="g15"
     transform="translate(0,-480)" /><g
     id="g17"
     transform="translate(0,-480)" /><g
     id="g19"
     transform="translate(0,-480)" /><g
     id="g21"
     transform="translate(0,-480)" /><g
     id="g23"
     transform="translate(0,-480)" /><g
     id="g25"
     transform="translate(0,-480)" /><g
     id="g27"
     transform="translate(0,-480)" /><g
     id="g29"
     transform="translate(0,-480)" /><g
     id="g31"
     transform="translate(0,-480)" /><g
     id="g33"
     transform="translate(0,-480)" /><g
     id="g35"
     transform="translate(0,-480)" /></svg>