<?xml version="1.0" encoding="UTF-8" standalone="no"?>
<!-- Generator: Adobe Illustrator 19.0.0, SVG Export Plug-In . SVG Version: 6.00 Build 0)  -->

<svg
   xmlns:dc="http://purl.org/dc/elements/1.1/"
   xmlns:cc="http://creativecommons.org/ns#"
   xmlns:rdf="http://www.w3.org/1999/02/22-rdf-syntax-ns#"
   xmlns:svg="http://www.w3.org/2000/svg"
   xmlns="http://www.w3.org/2000/svg"
   xmlns:sodipodi="http://sodipodi.sourceforge.net/DTD/sodipodi-0.dtd"
   xmlns:inkscape="http://www.inkscape.org/namespaces/inkscape"
   version="1.1"
   id="Layer_1"
   x="0px"
   y="0px"
   viewBox="0 0 32 32"
   xml:space="preserve"
   inkscape:version="0.91 r13725"
   sodipodi:docname="shortcut-browser.svg"
   width="32"
   height="32"><metadata
     id="metadata45"><rdf:RDF><cc:Work
         rdf:about=""><dc:format>image/svg+xml</dc:format><dc:type
           rdf:resource="http://purl.org/dc/dcmitype/StillImage" /><dc:title /></cc:Work></rdf:RDF></metadata><defs
     id="defs43" /><sodipodi:namedview
     pagecolor="#ffffff"
     bordercolor="#666666"
     borderopacity="1"
     objecttolerance="10"
     gridtolerance="10"
     guidetolerance="10"
     inkscape:pageopacity="0"
     inkscape:pageshadow="2"
     inkscape:window-width="3840"
     inkscape:window-height="2106"
     id="namedview41"
     showgrid="false"
     inkscape:showpageshadow="false"
     inkscape:zoom="29.5"
     inkscape:cx="5.8293636"
     inkscape:cy="12.312182"
     inkscape:window-x="0"
     inkscape:window-y="44"
     inkscape:window-maximized="1"
     inkscape:current-layer="Layer_1"
     inkscape:snap-bbox="true"
     inkscape:bbox-paths="true"
     inkscape:bbox-nodes="true"
     inkscape:snap-bbox-edge-midpoints="true"
     inkscape:snap-bbox-midpoints="true"
     inkscape:object-paths="true"
     inkscape:snap-intersection-paths="true"
     inkscape:object-nodes="true"
     inkscape:snap-smooth-nodes="true"
     inkscape:snap-midpoints="true"
     inkscape:snap-object-midpoints="true"
     inkscape:snap-center="true"
     inkscape:snap-text-baseline="true"
     inkscape:snap-page="true" /><g
     id="g4157"
     style="fill:#000000;fill-opacity:1"
     transform="translate(0,1)"><path
       style="fill:#000000;fill-opacity:1"
       d="m 10.767773,16.001004 c 0,2.885192 2.347133,5.23233 5.232227,5.23233 2.88493,0 5.231844,-2.347192 5.231844,-5.232332 0,-2.885192 -2.346969,-5.232494 -5.231844,-5.232494 -2.885094,-5.6e-5 -5.232227,2.347248 -5.232227,5.232496 z"
       id="path4159"
       inkscape:connector-curvature="0" /><path
       style="fill:#000000;fill-opacity:1"
       d="m 28.047602,9.094128 c 0.04074,-0.0717 0.04002,-0.15976 -0.0022,-0.230742 C 26.826758,6.810706 25.092454,5.09126 23.029968,3.891058 20.90432,2.653936 18.473297,2.000046 16,2.000046 c -4.280336,0 -8.2693516,1.921036 -10.944336,5.270506 -0.059008,0.07384 -0.066718,0.17616 -0.01946,0.257978 l 3.9411096,6.826534 c 0.04129,0.0716 0.117522,0.11474 0.19868,0.11474 0.01028,0 0.020726,-7.12e-4 0.031116,-0.0022 0.092366,-0.0126 0.167892,-0.0798 0.191242,-0.17004 C 10.175453,11.28638 12.890195,9.183276 16,9.183276 c 0.192992,0 0.392274,0.0088 0.592594,0.02586 0.0065,6.56e-4 0.01312,9.3e-4 0.01964,9.3e-4 l 11.235874,0 c 0.08258,1.08e-4 0.15876,-0.04414 0.1995,-0.11594 z"
       id="path4161"
       inkscape:connector-curvature="0" /><path
       style="fill:#000000;fill-opacity:1"
       d="m 18.068774,22.650336 c -0.05699,-0.07373 -0.152688,-0.105384 -0.242922,-0.08045 C 17.233094,22.734942 16.618844,22.81862 16,22.81862 c -2.62932,0 -5.052687,-1.542246 -6.173836,-3.928926 -0.00272,-0.0058 -0.0058,-0.0116 -0.00904,-0.0172 L 4.1951016,9.134324 c -0.040962,-0.07116 -0.116758,-0.11474 -0.198734,-0.11474 -3.826e-4,0 -8.202e-4,0 -0.0012,0 -0.082414,4.38e-4 -0.158374,0.04502 -0.198734,0.11676 C 2.62125,11.22179 2,13.595564 2,16.001004 c 0,3.374462 1.217289,6.634018 3.4276484,9.178156 2.1884298,2.518814 5.2012186,4.176456 8.4836176,4.667642 0.01138,0.0018 0.02275,0.0024 0.03407,0.0024 0.08105,0 0.157282,-0.04316 0.19868,-0.11474 l 3.942148,-6.828612 c 0.04659,-0.08088 0.0397,-0.18184 -0.0174,-0.255572 z"
       id="path4163"
       inkscape:connector-curvature="0" /><path
       style="fill:#000000;fill-opacity:1"
       d="m 28.822634,10.741654 -7.89272,0 c -0.0933,0 -0.1773,0.05644 -0.212406,0.14274 -0.03528,0.0863 -0.0146,0.18546 0.05178,0.250652 1.320596,1.29471 2.047884,3.02274 2.047884,4.865898 0,1.395342 -0.420984,2.738128 -1.217562,3.883368 -0.0036,0.0052 -0.007,0.0106 -0.0104,0.0162 l -5.631751,9.755036 c -0.04123,0.07144 -0.04096,0.15948 6.56e-4,0.230744 0.04128,0.07052 0.116752,0.11366 0.198182,0.11366 8.21e-4,0 0.0017,0 0.0026,0 3.70611,-0.0412 7.183851,-1.515788 9.792555,-4.151752 C 28.562156,23.209994 30,19.712858 30,16.001004 c 0,-1.764292 -0.324242,-3.484722 -0.963758,-5.113652 -0.03452,-0.08794 -0.11922,-0.1457 -0.213608,-0.1457 z"
       id="path4165"
       inkscape:connector-curvature="0" /></g><g
     id="g4151"><path
       inkscape:connector-curvature="0"
       id="path3"
       d="m 10.767773,16.001004 c 0,2.885192 2.347133,5.23233 5.232227,5.23233 2.88493,0 5.231844,-2.347192 5.231844,-5.232332 0,-2.885192 -2.346969,-5.232494 -5.231844,-5.232494 -2.885094,-5.6e-5 -5.232227,2.347248 -5.232227,5.232496 z"
       style="fill:#aaaaaa;fill-opacity:1" /><path
       inkscape:connector-curvature="0"
       id="path5"
       d="m 28.047602,9.094128 c 0.04074,-0.0717 0.04002,-0.15976 -0.0022,-0.230742 C 26.826758,6.810706 25.092454,5.09126 23.029968,3.891058 20.90432,2.653936 18.473297,2.000046 16,2.000046 c -4.280336,0 -8.2693516,1.921036 -10.944336,5.270506 -0.059008,0.07384 -0.066718,0.17616 -0.01946,0.257978 l 3.9411096,6.826534 c 0.04129,0.0716 0.117522,0.11474 0.19868,0.11474 0.01028,0 0.020726,-7.12e-4 0.031116,-0.0022 0.092366,-0.0126 0.167892,-0.0798 0.191242,-0.17004 C 10.175453,11.28638 12.890195,9.183276 16,9.183276 c 0.192992,0 0.392274,0.0088 0.592594,0.02586 0.0065,6.56e-4 0.01312,9.3e-4 0.01964,9.3e-4 l 11.235874,0 c 0.08258,1.08e-4 0.15876,-0.04414 0.1995,-0.11594 z"
       style="fill:#aaaaaa;fill-opacity:1" /><path
       inkscape:connector-curvature="0"
       id="path7"
       d="m 18.068774,22.650336 c -0.05699,-0.07373 -0.152688,-0.105384 -0.242922,-0.08045 C 17.233094,22.734942 16.618844,22.81862 16,22.81862 c -2.62932,0 -5.052687,-1.542246 -6.173836,-3.928926 -0.00272,-0.0058 -0.0058,-0.0116 -0.00904,-0.0172 L 4.1951016,9.134324 c -0.040962,-0.07116 -0.116758,-0.11474 -0.198734,-0.11474 -3.826e-4,0 -8.202e-4,0 -0.0012,0 -0.082414,4.38e-4 -0.158374,0.04502 -0.198734,0.11676 C 2.62125,11.22179 2,13.595564 2,16.001004 c 0,3.374462 1.217289,6.634018 3.4276484,9.178156 2.1884298,2.518814 5.2012186,4.176456 8.4836176,4.667642 0.01138,0.0018 0.02275,0.0024 0.03407,0.0024 0.08105,0 0.157282,-0.04316 0.19868,-0.11474 l 3.942148,-6.828612 c 0.04659,-0.08088 0.0397,-0.18184 -0.0174,-0.255572 z"
       style="fill:#aaaaaa;fill-opacity:1" /><path
       inkscape:connector-curvature="0"
       id="path9"
       d="m 28.822634,10.741654 -7.89272,0 c -0.0933,0 -0.1773,0.05644 -0.212406,0.14274 -0.03528,0.0863 -0.0146,0.18546 0.05178,0.250652 1.320596,1.29471 2.047884,3.02274 2.047884,4.865898 0,1.395342 -0.420984,2.738128 -1.217562,3.883368 -0.0036,0.0052 -0.007,0.0106 -0.0104,0.0162 l -5.631751,9.755036 c -0.04123,0.07144 -0.04096,0.15948 6.56e-4,0.230744 0.04128,0.07052 0.116752,0.11366 0.198182,0.11366 8.21e-4,0 0.0017,0 0.0026,0 3.70611,-0.0412 7.183851,-1.515788 9.792555,-4.151752 C 28.562156,23.209994 30,19.712858 30,16.001004 c 0,-1.764292 -0.324242,-3.484722 -0.963758,-5.113652 -0.03452,-0.08794 -0.11922,-0.1457 -0.213608,-0.1457 z"
       style="fill:#aaaaaa;fill-opacity:1" /></g><g
     id="g11"
     transform="translate(0,-480)" /><g
     id="g13"
     transform="translate(0,-480)" /><g
     id="g15"
     transform="translate(0,-480)" /><g
     id="g17"
     transform="translate(0,-480)" /><g
     id="g19"
     transform="translate(0,-480)" /><g
     id="g21"
     transform="translate(0,-480)" /><g
     id="g23"
     transform="translate(0,-480)" /><g
     id="g25"
     transform="translate(0,-480)" /><g
     id="g27"
     transform="translate(0,-480)" /><g
     id="g29"
     transform="translate(0,-480)" /><g
     id="g31"
     transform="translate(0,-480)" /><g
     id="g33"
     transform="translate(0,-480)" /><g
     id="g35"
     transform="translate(0,-480)" /><g
     id="g37"
     transform="translate(0,-480)" /><g
     id="g39"
     transform="translate(0,-480)" /></svg>