<?xml version="1.0" encoding="UTF-8" standalone="no"?>
<svg
   xmlns:dc="http://purl.org/dc/elements/1.1/"
   xmlns:cc="http://creativecommons.org/ns#"
   xmlns:rdf="http://www.w3.org/1999/02/22-rdf-syntax-ns#"
   xmlns:svg="http://www.w3.org/2000/svg"
   xmlns="http://www.w3.org/2000/svg"
   xmlns:sodipodi="http://sodipodi.sourceforge.net/DTD/sodipodi-0.dtd"
   xmlns:inkscape="http://www.inkscape.org/namespaces/inkscape"
   enable-background="new 0 0 40 40"
   height="32"
   id="Layer_1"
   version="1.1"
   viewBox="0 0 32 32"
   width="32"
   xml:space="preserve"
   inkscape:version="0.91 r13725"
   sodipodi:docname="skype-inactive.svg"
   inkscape:export-filename="/home/marko/.scripts/genmon/skype-icon-missing.png"
   inkscape:export-xdpi="36"
   inkscape:export-ydpi="36"><metadata
     id="metadata23"><rdf:RDF><cc:Work
         rdf:about=""><dc:format>image/svg+xml</dc:format><dc:type
           rdf:resource="http://purl.org/dc/dcmitype/StillImage" /><dc:title /></cc:Work></rdf:RDF></metadata><defs
     id="defs21" /><sodipodi:namedview
     pagecolor="#343434"
     bordercolor="#666666"
     borderopacity="1"
     objecttolerance="10"
     gridtolerance="10"
     guidetolerance="10"
     inkscape:pageopacity="1"
     inkscape:pageshadow="2"
     inkscape:window-width="3840"
     inkscape:window-height="2106"
     id="namedview19"
     showgrid="false"
     inkscape:snap-bbox="true"
     inkscape:snap-bbox-midpoints="true"
     inkscape:snap-object-midpoints="true"
     inkscape:snap-center="true"
     inkscape:snap-page="true"
     inkscape:zoom="25.831491"
     inkscape:cx="-5.9513065"
     inkscape:cy="11.232374"
     inkscape:window-x="0"
     inkscape:window-y="44"
     inkscape:window-maximized="1"
     inkscape:current-layer="layer2"
     inkscape:snap-midpoints="true"
     inkscape:snap-smooth-nodes="true"
     inkscape:bbox-paths="true"
     inkscape:bbox-nodes="true"
     inkscape:snap-bbox-edge-midpoints="true"
     inkscape:object-paths="true"
     inkscape:snap-intersection-paths="true"
     inkscape:object-nodes="true" /><g
     inkscape:groupmode="layer"
     id="layer2"
     inkscape:label="icon"
     style="display:inline"
     transform="translate(0,-8)"><path
       inkscape:connector-curvature="0"
       id="path4134"
       d="M 8.7957451,11.003735 C 7.0748944,11.058753 5.3711113,11.74075 4.0572594,13.05452 1.4294703,15.681972 1.3194128,19.873 3.7252137,22.632658 c -0.1468883,0.766325 -0.2265722,1.558014 -0.2265722,2.367191 0,6.9033 5.5974495,12.500018 12.5005395,12.500018 0.809372,0 1.600684,-0.0796 2.367289,-0.226563 2.7594,2.405472 6.950835,2.299412 9.578538,-0.328126 2.627449,-2.627538 2.733772,-6.818482 0.32814,-9.578138 0.146986,-0.766415 0.226572,-1.558014 0.226572,-2.367191 0,-6.903216 -5.597366,-12.500018 -12.500539,-12.500018 -0.809288,0 -1.60077,0.0796 -2.36729,0.226563 -1.379787,-1.202734 -3.115296,-1.777677 -4.8361459,-1.722659 z m 6.8245129,6.847666 c 2.89112,0 5.808845,1.145893 5.808845,2.89063 0,0.885329 -0.600624,1.66797 -1.589913,1.66797 -1.484604,0 -1.534445,-1.746096 -3.929857,-1.746096 -1.328114,0 -2.187595,0.364396 -2.187595,1.171877 0,0.88533 0.859084,1.09482 2.031338,1.35547 l 1.586006,0.363283 c 2.161229,0.494431 4.742393,1.405652 4.742393,4.062506 0,3.098574 -2.994984,4.531256 -5.859629,4.531256 -3.437652,0 -6.304959,-1.535022 -6.304959,-3.410161 0,-0.833247 0.471516,-1.589846 1.539129,-1.589846 1.641014,0 1.796541,2.343753 4.609574,2.343753 1.35388,0 2.211033,-0.597823 2.211033,-1.378908 0,-0.963729 -0.833399,-1.122439 -2.187595,-1.46094 L 13.85065,26.105319 c -2.214101,-0.547067 -3.933763,-1.455523 -3.933763,-4.007818 0,-3.099127 3.072909,-4.2461 5.703371,-4.2461 z"
       style="fill:#000000;fill-opacity:1;stroke:none;stroke-width:0.5;stroke-linecap:round;stroke-linejoin:round;stroke-miterlimit:4;stroke-dasharray:none;stroke-opacity:1" /><path
       style="fill:#aaaaaa;fill-opacity:1;stroke:none;stroke-width:0.5;stroke-linecap:round;stroke-linejoin:round;stroke-miterlimit:4;stroke-dasharray:none;stroke-opacity:1"
       d="M 8.7957451,10.003735 C 7.0748944,10.058753 5.3711113,10.74075 4.0572594,12.05452 1.4294703,14.681972 1.3194128,18.873 3.7252137,21.632658 c -0.1468883,0.766325 -0.2265722,1.558014 -0.2265722,2.367191 0,6.9033 5.5974492,12.500018 12.5005395,12.500018 0.809372,0 1.600684,-0.0796 2.367289,-0.226563 2.7594,2.405472 6.950835,2.299412 9.578538,-0.328126 2.627449,-2.627538 2.733772,-6.818482 0.32814,-9.578138 0.146986,-0.766415 0.226572,-1.558014 0.226572,-2.367191 0,-6.903216 -5.597366,-12.500018 -12.500539,-12.500018 -0.809288,0 -1.60077,0.0796 -2.36729,0.226563 C 12.252104,10.52366 10.516595,9.948717 8.7957451,10.003735 Z m 6.8245129,6.847666 c 2.89112,0 5.808845,1.145893 5.808845,2.89063 0,0.885329 -0.600624,1.66797 -1.589913,1.66797 -1.484604,0 -1.534445,-1.746096 -3.929857,-1.746096 -1.328114,0 -2.187595,0.364396 -2.187595,1.171877 0,0.88533 0.859084,1.09482 2.031338,1.35547 l 1.586006,0.363283 c 2.161229,0.494431 4.742393,1.405652 4.742393,4.062506 0,3.098574 -2.994984,4.531256 -5.859629,4.531256 -3.437652,0 -6.3049587,-1.535022 -6.3049587,-3.410161 0,-0.833247 0.4715157,-1.589846 1.5391287,-1.589846 1.641014,0 1.796541,2.343753 4.609574,2.343753 1.35388,0 2.211033,-0.597823 2.211033,-1.378908 0,-0.963729 -0.833399,-1.122439 -2.187595,-1.46094 L 13.85065,25.105319 c -2.214101,-0.547067 -3.9337627,-1.455523 -3.9337627,-4.007818 0,-3.099127 3.0729087,-4.2461 5.7033707,-4.2461 z"
       id="path4155"
       inkscape:connector-curvature="0" /></g></svg>