<?xml version="1.0" encoding="UTF-8" standalone="no"?>
<svg
   xmlns:dc="http://purl.org/dc/elements/1.1/"
   xmlns:cc="http://creativecommons.org/ns#"
   xmlns:rdf="http://www.w3.org/1999/02/22-rdf-syntax-ns#"
   xmlns:svg="http://www.w3.org/2000/svg"
   xmlns="http://www.w3.org/2000/svg"
   xmlns:sodipodi="http://sodipodi.sourceforge.net/DTD/sodipodi-0.dtd"
   xmlns:inkscape="http://www.inkscape.org/namespaces/inkscape"
   enable-background="new 0 0 40 40"
   height="32"
   id="Layer_1"
   version="1.1"
   viewBox="0 0 32 32"
   width="32"
   xml:space="preserve"
   inkscape:version="0.91 r13725"
   sodipodi:docname="skype-noinstance.svg"
   inkscape:export-filename="/home/marko/.scripts/genmon/skype-icon-missing.png"
   inkscape:export-xdpi="36"
   inkscape:export-ydpi="36"><metadata
     id="metadata23"><rdf:RDF><cc:Work
         rdf:about=""><dc:format>image/svg+xml</dc:format><dc:type
           rdf:resource="http://purl.org/dc/dcmitype/StillImage" /><dc:title /></cc:Work></rdf:RDF></metadata><defs
     id="defs21" /><sodipodi:namedview
     pagecolor="#343434"
     bordercolor="#666666"
     borderopacity="1"
     objecttolerance="10"
     gridtolerance="10"
     guidetolerance="10"
     inkscape:pageopacity="1"
     inkscape:pageshadow="2"
     inkscape:window-width="3840"
     inkscape:window-height="2106"
     id="namedview19"
     showgrid="false"
     inkscape:snap-bbox="true"
     inkscape:snap-bbox-midpoints="true"
     inkscape:snap-object-midpoints="true"
     inkscape:snap-center="true"
     inkscape:snap-page="true"
     inkscape:zoom="25.831491"
     inkscape:cx="4.3543608"
     inkscape:cy="4.1826234"
     inkscape:window-x="0"
     inkscape:window-y="44"
     inkscape:window-maximized="1"
     inkscape:current-layer="layer2"
     inkscape:snap-midpoints="true"
     inkscape:snap-smooth-nodes="true"
     inkscape:bbox-paths="true"
     inkscape:bbox-nodes="true"
     inkscape:snap-bbox-edge-midpoints="true"
     inkscape:object-paths="true"
     inkscape:snap-intersection-paths="true"
     inkscape:object-nodes="true" /><g
     inkscape:groupmode="layer"
     id="layer2"
     inkscape:label="icon"
     style="display:inline"
     transform="translate(0,-8)"><path
       inkscape:connector-curvature="0"
       id="path4134"
       d="m 8.7940389,11.003615 c -1.7207585,0.055 -3.4229483,0.739131 -4.7367297,2.052921 -2.6276481,2.627496 -2.7380003,6.814988 -0.3323282,9.574688 -0.14688,0.76634 -0.2229544,1.55924 -0.2229544,2.36843 0,6.90341 5.5953475,12.498416 12.4980674,12.498416 0.80933,0 1.601801,-0.07598 2.368365,-0.222958 2.759255,2.405508 6.946857,2.29524 9.574419,-0.332338 2.627308,-2.62758 2.737832,-6.814988 0.332328,-9.574688 0.14698,-0.766426 0.222954,-1.55924 0.222954,-2.368432 0,-6.903326 -5.595262,-12.498414 -12.498066,-12.498414 -0.809244,0 -1.601886,0.07598 -2.368365,0.222958 -1.379712,-1.202754 -3.116931,-1.775603 -4.8376901,-1.720583 z m 2.6628331,7.534387 4.560049,4.585418 4.597907,-4.585418 1.846736,1.914098 -4.560047,4.547554 4.560047,4.585418 -1.846736,1.876234 -4.597907,-4.61907 -4.597909,4.61907 L 9.5386227,29.618726 14.170185,24.961794 9.6101363,20.4521 11.456872,18.538002 Z"
       style="fill:#000000;fill-opacity:1;stroke:none" /><path
       style="fill:#aaaaaa;fill-opacity:0.50196078;stroke:none"
       d="m 8.7940389,10.003615 c -1.7207585,0.055 -3.4229483,0.739131 -4.7367297,2.052921 -2.6276481,2.627496 -2.7380003,6.814988 -0.3323282,9.574688 -0.14688,0.76634 -0.2229544,1.55924 -0.2229544,2.36843 0,6.90341 5.5953475,12.498416 12.4980674,12.498416 0.80933,0 1.601801,-0.07598 2.368365,-0.222958 2.759255,2.405508 6.946857,2.29524 9.574419,-0.332338 2.627308,-2.62758 2.737832,-6.814988 0.332328,-9.574688 0.14698,-0.766426 0.222954,-1.55924 0.222954,-2.368432 0,-6.903326 -5.595262,-12.498414 -12.498066,-12.498414 -0.809244,0 -1.601886,0.07598 -2.368365,0.222958 -1.379712,-1.202754 -3.116931,-1.775603 -4.8376901,-1.720583 z m 2.6628331,7.534387 4.560049,4.585418 4.597907,-4.585418 1.846736,1.914098 -4.560047,4.547554 4.560047,4.585418 -1.846736,1.876234 -4.597907,-4.61907 -4.597909,4.61907 L 9.5386227,28.618726 14.170185,23.961794 9.6101363,19.4521 11.456872,17.538002 Z"
       id="path4301"
       inkscape:connector-curvature="0" /></g></svg>