<?xml version="1.0" encoding="UTF-8" standalone="no"?>
<svg
   xmlns:dc="http://purl.org/dc/elements/1.1/"
   xmlns:cc="http://creativecommons.org/ns#"
   xmlns:rdf="http://www.w3.org/1999/02/22-rdf-syntax-ns#"
   xmlns:svg="http://www.w3.org/2000/svg"
   xmlns="http://www.w3.org/2000/svg"
   xmlns:sodipodi="http://sodipodi.sourceforge.net/DTD/sodipodi-0.dtd"
   xmlns:inkscape="http://www.inkscape.org/namespaces/inkscape"
   enable-background="new 0 0 40 40"
   height="32"
   id="Layer_1"
   version="1.1"
   viewBox="0 0 32 32"
   width="32"
   xml:space="preserve"
   inkscape:version="0.91 r13725"
   sodipodi:docname="skype-active.svg"
   inkscape:export-filename="/home/marko/.scripts/genmon/skype-icon-missing.png"
   inkscape:export-xdpi="36"
   inkscape:export-ydpi="36"><metadata
     id="metadata23"><rdf:RDF><cc:Work
         rdf:about=""><dc:format>image/svg+xml</dc:format><dc:type
           rdf:resource="http://purl.org/dc/dcmitype/StillImage" /><dc:title /></cc:Work></rdf:RDF></metadata><defs
     id="defs21" /><sodipodi:namedview
     pagecolor="#343434"
     bordercolor="#666666"
     borderopacity="1"
     objecttolerance="10"
     gridtolerance="10"
     guidetolerance="10"
     inkscape:pageopacity="1"
     inkscape:pageshadow="2"
     inkscape:window-width="3840"
     inkscape:window-height="2106"
     id="namedview19"
     showgrid="false"
     inkscape:snap-bbox="true"
     inkscape:snap-bbox-midpoints="true"
     inkscape:snap-object-midpoints="true"
     inkscape:snap-center="true"
     inkscape:snap-page="true"
     inkscape:zoom="51.662982"
     inkscape:cx="12.968308"
     inkscape:cy="15.219985"
     inkscape:window-x="0"
     inkscape:window-y="44"
     inkscape:window-maximized="1"
     inkscape:current-layer="layer2"
     inkscape:snap-midpoints="true"
     inkscape:snap-smooth-nodes="true"
     inkscape:bbox-paths="true"
     inkscape:bbox-nodes="true"
     inkscape:snap-bbox-edge-midpoints="true"
     inkscape:object-paths="true"
     inkscape:snap-intersection-paths="true"
     inkscape:object-nodes="true" /><g
     inkscape:groupmode="layer"
     id="layer2"
     inkscape:label="icon"
     style="display:inline"
     transform="translate(0,-8)"><path
       id="path4136"
       d="m 7.7957456,10.003605 c -1.7208506,0.05502 -3.424634,0.737014 -4.7384858,2.050784 -2.62778949,2.627452 -2.73784705,6.818479 -0.332046,9.578137 -0.146888,0.766325 -0.2265722,1.558014 -0.2265722,2.367191 0,6.9033 5.5974496,12.500017 12.5005414,12.500017 0.809371,0 1.600683,-0.0796 2.367288,-0.226562 2.759401,2.405471 6.950835,2.299411 9.578539,-0.328126 2.627448,-2.627538 2.733772,-6.818482 0.32814,-9.578137 0.14698,-0.766415 0.226572,-1.558015 0.226572,-2.367192 0,-6.903215 -5.597366,-12.500016 -12.500539,-12.500016 -0.809289,0 -1.600771,0.0796 -2.367291,0.226562 C 11.252105,10.523529 9.5165958,9.9485864 7.7957456,10.003605 Z m 6.8245124,6.847665 c 2.891121,0 5.808848,1.145893 5.808848,2.89063 0,0.885329 -0.600624,1.66797 -1.589915,1.66797 -1.484602,0 -1.534445,-1.746096 -3.929856,-1.746096 -1.328115,0 -2.187595,0.364396 -2.187595,1.171877 0,0.885329 0.859083,1.09482 2.031338,1.35547 l 1.586005,0.363282 c 2.161229,0.494431 4.742393,1.405652 4.742393,4.062506 0,3.098574 -2.994984,4.531256 -5.859628,4.531256 -3.437652,0 -6.30496,-1.535022 -6.30496,-3.410163 0,-0.833245 0.4715164,-1.589844 1.539128,-1.589844 1.641015,0 1.796542,2.343753 4.609576,2.343753 1.35388,0 2.211031,-0.597822 2.211031,-1.378909 0,-0.963728 -0.833398,-1.122438 -2.187594,-1.460938 L 12.850652,25.105187 C 10.63655,24.55812 8.916888,23.649665 8.916888,21.097369 c 0,-3.099126 3.072909,-4.246099 5.70337,-4.246099 z"
       style="display:inline;fill:#000000;fill-opacity:1;stroke:none;stroke-width:0.5;stroke-linecap:round;stroke-linejoin:round;stroke-miterlimit:4;stroke-dasharray:none;stroke-opacity:1"
       inkscape:connector-curvature="0" /><ellipse
       ry="9.7551146"
       rx="9.7551012"
       cy="22.25729"
       cx="14.412143"
       id="ellipse4135"
       style="fill:#ffffff;fill-opacity:1;stroke:none;stroke-width:0.5;stroke-miterlimit:4;stroke-dasharray:none;stroke-opacity:1" /><path
       inkscape:connector-curvature="0"
       style="display:inline;fill:#2ab8ff;fill-opacity:1;stroke:none;stroke-width:0.5;stroke-linecap:round;stroke-linejoin:round;stroke-miterlimit:4;stroke-dasharray:none;stroke-opacity:1"
       d="m 7.7957456,9.0036045 c -1.7208506,0.05502 -3.424634,0.737015 -4.7384858,2.0507845 -2.62778949,2.627452 -2.73784705,6.818479 -0.332046,9.578137 -0.146888,0.766325 -0.2265722,1.558014 -0.2265722,2.367191 0,6.9033 5.5974496,12.500017 12.5005414,12.500017 0.809371,0 1.600683,-0.0796 2.367288,-0.226562 2.759401,2.405471 6.950835,2.299411 9.578539,-0.328126 2.627448,-2.627538 2.733772,-6.818482 0.32814,-9.578137 0.14698,-0.766415 0.226572,-1.558015 0.226572,-2.367192 0,-6.903215 -5.597366,-12.500016 -12.500539,-12.500016 -0.809289,0 -1.600771,0.0796 -2.367291,0.226562 C 11.252105,9.5235292 9.5165958,8.9485864 7.7957456,9.0036045 Z M 14.620258,15.85127 c 2.891121,0 5.808848,1.145893 5.808848,2.89063 0,0.885329 -0.600624,1.66797 -1.589915,1.66797 -1.484602,0 -1.534445,-1.746096 -3.929856,-1.746096 -1.328115,0 -2.187595,0.364396 -2.187595,1.171877 0,0.885329 0.859083,1.09482 2.031338,1.35547 l 1.586005,0.363282 c 2.161229,0.494431 4.742393,1.405652 4.742393,4.062506 0,3.098574 -2.994984,4.531256 -5.859628,4.531256 -3.437652,0 -6.30496,-1.535022 -6.30496,-3.410163 0,-0.833245 0.4715164,-1.589844 1.539128,-1.589844 1.641015,0 1.796542,2.343753 4.609576,2.343753 1.35388,0 2.211031,-0.597822 2.211031,-1.378909 0,-0.963728 -0.833398,-1.122438 -2.187594,-1.460938 L 12.850652,24.105187 C 10.63655,23.55812 8.916888,22.649665 8.916888,20.097369 c 0,-3.099126 3.072909,-4.246099 5.70337,-4.246099 z"
       id="path4155" /><ellipse
       style="fill:#ff245c;fill-opacity:1;stroke:none;stroke-width:0.5;stroke-miterlimit:4;stroke-dasharray:none;stroke-opacity:1"
       id="path4176"
       cx="25"
       cy="32.999992"
       rx="6"
       ry="6.0000081" /></g></svg>