<?xml version="1.0" encoding="UTF-8" standalone="no"?>
<svg
   xmlns:dc="http://purl.org/dc/elements/1.1/"
   xmlns:cc="http://creativecommons.org/ns#"
   xmlns:rdf="http://www.w3.org/1999/02/22-rdf-syntax-ns#"
   xmlns:svg="http://www.w3.org/2000/svg"
   xmlns="http://www.w3.org/2000/svg"
   xmlns:sodipodi="http://sodipodi.sourceforge.net/DTD/sodipodi-0.dtd"
   xmlns:inkscape="http://www.inkscape.org/namespaces/inkscape"
   width="30"
   height="34"
   id="svg2"
   version="1.1"
   inkscape:version="0.92.1 r"
   sodipodi:docname="update-inactive.svg"
   viewBox="0 0 28.124998 31.874998">
  <metadata
     id="metadata10">
    <rdf:RDF>
      <cc:Work
         rdf:about="">
        <dc:format>image/svg+xml</dc:format>
        <dc:type
           rdf:resource="http://purl.org/dc/dcmitype/StillImage" />
        <dc:title></dc:title>
      </cc:Work>
    </rdf:RDF>
  </metadata>
  <defs
     id="defs8" />
  <sodipodi:namedview
     pagecolor="#ffffff"
     bordercolor="#666666"
     borderopacity="1"
     objecttolerance="10"
     gridtolerance="10"
     guidetolerance="10"
     inkscape:pageopacity="0"
     inkscape:pageshadow="2"
     inkscape:window-width="3840"
     inkscape:window-height="2092"
     id="namedview6"
     showgrid="false"
     inkscape:showpageshadow="false"
     inkscape:zoom="15.733333"
     inkscape:cx="-16.631356"
     inkscape:cy="17.86017"
     inkscape:window-x="0"
     inkscape:window-y="58"
     inkscape:window-maximized="1"
     inkscape:current-layer="svg2"
     inkscape:snap-bbox="true"
     inkscape:bbox-paths="true"
     inkscape:bbox-nodes="true"
     inkscape:snap-bbox-edge-midpoints="true"
     inkscape:snap-bbox-midpoints="true"
     inkscape:object-paths="true"
     inkscape:snap-intersection-paths="true"
     inkscape:snap-smooth-nodes="true"
     inkscape:snap-midpoints="true"
     inkscape:snap-object-midpoints="true"
     inkscape:snap-center="true"
     inkscape:snap-page="true" />
  <g
     id="g4512"
     transform="matrix(0.45454484,0,0,0.45454484,28.749719,5.9766351)"
     style="stroke-width:2.20000315">
    <path
       d="m -33.24947,-7.1485258 c -2.670937,6.54778095 -4.292812,10.836562 -7.265624,17.1899988 1.8225,1.932188 4.063125,4.174688 7.697812,6.71625 -3.9075,-1.607812 -6.570937,-3.2175 -8.562187,-4.892812 -3.805312,7.940624 -9.771562,19.247811 -21.869999,40.98656 9.506249,-5.488124 16.876874,-8.874374 23.744999,-10.166249 -0.294375,-1.266563 -0.450938,-2.642813 -0.439688,-4.0725 l 0.0075,-0.3 c 0.150938,-6.091875 3.320625,-10.776562 7.075312,-10.458749 3.75375,0.317812 6.676875,5.516249 6.525938,11.609061 -0.02906,1.1475 -0.162188,2.25 -0.388125,3.27375 6.794062,1.329375 14.094374,4.699688 23.4740611,10.114687 -1.849688,-3.405 -3.5062499,-6.473437 -5.0831249,-9.397499 -2.4834372,-1.924688 -5.0728122,-4.42875 -10.3565622,-7.140937 3.631875,0.944062 6.234375,2.035312 8.26125,3.252187 C -26.457282,9.719911 -27.752907,5.7514742 -33.24947,-7.1485258 v -8.4e-5 z"
       id="path4508"
       inkscape:connector-curvature="0"
       style="fill:#000000;fill-opacity:1;stroke-width:2.06250262" />
    <path
       style="fill:#aaaaaa;fill-opacity:1;stroke-width:2.06250262"
       inkscape:connector-curvature="0"
       id="path9"
       d="m -33.24947,-9.0235258 c -2.670937,6.547781 -4.292812,10.836562 -7.265624,17.1899988 1.8225,1.932188 4.063125,4.174688 7.697812,6.71625 -3.9075,-1.607812 -6.570937,-3.2175 -8.562187,-4.892812 -3.805312,7.940624 -9.771562,19.247811 -21.869999,40.98656 9.506249,-5.488124 16.876874,-8.874374 23.744999,-10.166249 -0.294375,-1.266563 -0.450938,-2.642813 -0.439688,-4.0725 l 0.0075,-0.3 c 0.150938,-6.091875 3.320625,-10.776562 7.075312,-10.458749 3.75375,0.317812 6.676875,5.516249 6.525938,11.609061 -0.02906,1.1475 -0.162188,2.25 -0.388125,3.27375 6.794062,1.329375 14.094374,4.699688 23.4740611,10.114687 -1.849688,-3.405 -3.5062499,-6.473437 -5.0831249,-9.397499 -2.4834372,-1.924688 -5.0728122,-4.42875 -10.3565622,-7.140937 3.631875,0.944062 6.234375,2.035312 8.26125,3.252187 C -26.457282,7.844911 -27.752907,3.8764742 -33.24947,-9.0235258 v -8.4e-5 z" />
  </g>
</svg>
