<?xml version="1.0" encoding="UTF-8" standalone="no"?>
<!-- Generator: Adobe Illustrator 19.0.0, SVG Export Plug-In . SVG Version: 6.00 Build 0)  -->

<svg
   xmlns:dc="http://purl.org/dc/elements/1.1/"
   xmlns:cc="http://creativecommons.org/ns#"
   xmlns:rdf="http://www.w3.org/1999/02/22-rdf-syntax-ns#"
   xmlns:svg="http://www.w3.org/2000/svg"
   xmlns="http://www.w3.org/2000/svg"
   xmlns:sodipodi="http://sodipodi.sourceforge.net/DTD/sodipodi-0.dtd"
   xmlns:inkscape="http://www.inkscape.org/namespaces/inkscape"
   version="1.1"
   id="Layer_1"
   x="0px"
   y="0px"
   viewBox="0 0 32 32"
   xml:space="preserve"
   inkscape:version="0.91 r13725"
   sodipodi:docname="xkb-ru.svg"
   width="32"
   height="32"><metadata
     id="metadata43"><rdf:RDF><cc:Work
         rdf:about=""><dc:format>image/svg+xml</dc:format><dc:type
           rdf:resource="http://purl.org/dc/dcmitype/StillImage" /><dc:title /></cc:Work></rdf:RDF></metadata><defs
     id="defs41" /><sodipodi:namedview
     pagecolor="#ffffff"
     bordercolor="#666666"
     borderopacity="1"
     objecttolerance="10"
     gridtolerance="10"
     guidetolerance="10"
     inkscape:pageopacity="0"
     inkscape:pageshadow="2"
     inkscape:window-width="3840"
     inkscape:window-height="2106"
     id="namedview39"
     showgrid="false"
     inkscape:zoom="29.5"
     inkscape:cx="6.2383667"
     inkscape:cy="15.526871"
     inkscape:window-x="0"
     inkscape:window-y="44"
     inkscape:window-maximized="1"
     inkscape:current-layer="Layer_1" /><path
     inkscape:connector-curvature="0"
     id="path4155"
     d="M 31.44819,28 0.55174894,28 C 0.24706203,28 0,27.740748 0,27.421027 l 0,-6.754338 31.999939,0 0,6.754338 C 31.999939,27.740814 31.752877,28 31.44819,28 Z"
     style="fill:#000000;fill-opacity:1" /><g
     id="g4171"
     transform="matrix(0.06249988,0,0,0.06558374,0,30.690791)"><path
       inkscape:connector-curvature="0"
       id="path3"
       d="m 512,-279.908 -512,0 0,-102.989 c 0,-4.875 3.953,-8.828 8.828,-8.828 l 494.345,0 c 4.875,0 8.828,3.953 8.828,8.828 l 0,102.989 z"
       style="fill:#f5f5f5" /><path
       inkscape:connector-curvature="0"
       id="path5"
       d="m 503.172,-56.276 -494.344,0 C 3.953,-56.276 0,-60.229 0,-65.104 l 0,-102.988 512,0 0,102.988 c 0,4.876 -3.953,8.828 -8.828,8.828 z"
       style="fill:#ff4b55" /><rect
       x="0"
       id="rect7"
       height="111.812"
       width="512"
       style="fill:#41479b"
       y="-279.91199" /></g><g
     id="g9"
     transform="translate(0,-480)" /><g
     id="g11"
     transform="translate(0,-480)" /><g
     id="g13"
     transform="translate(0,-480)" /><g
     id="g15"
     transform="translate(0,-480)" /><g
     id="g17"
     transform="translate(0,-480)" /><g
     id="g19"
     transform="translate(0,-480)" /><g
     id="g21"
     transform="translate(0,-480)" /><g
     id="g23"
     transform="translate(0,-480)" /><g
     id="g25"
     transform="translate(0,-480)" /><g
     id="g27"
     transform="translate(0,-480)" /><g
     id="g29"
     transform="translate(0,-480)" /><g
     id="g31"
     transform="translate(0,-480)" /><g
     id="g33"
     transform="translate(0,-480)" /><g
     id="g35"
     transform="translate(0,-480)" /><g
     id="g37"
     transform="translate(0,-480)" /></svg>