<?xml version="1.0" encoding="UTF-8" standalone="no"?>
<!-- Generator: Adobe Illustrator 19.0.0, SVG Export Plug-In . SVG Version: 6.00 Build 0)  -->

<svg
   xmlns:dc="http://purl.org/dc/elements/1.1/"
   xmlns:cc="http://creativecommons.org/ns#"
   xmlns:rdf="http://www.w3.org/1999/02/22-rdf-syntax-ns#"
   xmlns:svg="http://www.w3.org/2000/svg"
   xmlns="http://www.w3.org/2000/svg"
   xmlns:sodipodi="http://sodipodi.sourceforge.net/DTD/sodipodi-0.dtd"
   xmlns:inkscape="http://www.inkscape.org/namespaces/inkscape"
   version="1.1"
   id="Layer_1"
   x="0px"
   y="0px"
   viewBox="0 0 32 32"
   xml:space="preserve"
   inkscape:version="0.91 r13725"
   sodipodi:docname="xkb-ara.svg"
   width="32"
   height="32"><metadata
     id="metadata91"><rdf:RDF><cc:Work
         rdf:about=""><dc:format>image/svg+xml</dc:format><dc:type
           rdf:resource="http://purl.org/dc/dcmitype/StillImage" /><dc:title /></cc:Work></rdf:RDF></metadata><defs
     id="defs89" /><sodipodi:namedview
     pagecolor="#ffffff"
     bordercolor="#666666"
     borderopacity="1"
     objecttolerance="10"
     gridtolerance="10"
     guidetolerance="10"
     inkscape:pageopacity="0"
     inkscape:pageshadow="2"
     inkscape:window-width="3840"
     inkscape:window-height="2106"
     id="namedview87"
     showgrid="false"
     inkscape:zoom="41.7193"
     inkscape:cx="10.729494"
     inkscape:cy="13.82719"
     inkscape:window-x="0"
     inkscape:window-y="44"
     inkscape:window-maximized="1"
     inkscape:current-layer="Layer_1" /><g
     transform="matrix(0.06249988,0,0,0.06558374,0,31.690791)"
     id="g4175"
     style="fill:#000000;fill-opacity:1"><path
       style="fill:#000000;fill-opacity:1"
       d="m 503.172,-56.276 -494.344,0 C 3.953,-56.276 0,-60.229 0,-65.104 l 0,-317.793 c 0,-4.875 3.953,-8.828 8.828,-8.828 l 494.345,0 c 4.875,0 8.828,3.953 8.828,8.828 l 0,317.793 c -10e-4,4.876 -3.954,8.828 -8.829,8.828 z"
       id="path4177"
       inkscape:connector-curvature="0" /><g
       id="g4179"
       transform="translate(0,-480)"
       style="fill:#000000;fill-opacity:1"><path
         style="fill:#000000;fill-opacity:1"
         d="m 105.94,202.278 c 0.87,5.577 4.241,7.327 7.172,7.098 3.456,-0.268 6.487,-3.428 6.487,-6.766 l 0,-19.138 c 0,-0.958 0.78,-1.74 1.74,-1.74 0.96,0 1.74,0.781 1.74,1.74 l 0,19.22 c 0,2.311 1.142,4.466 3.057,5.76 1.169,0.792 2.53,1.199 3.901,1.199 0.873,0 1.75,-0.167 2.586,-0.5 l 1.739,-0.695 c 0.16,16.065 -0.817,30.184 -0.835,30.443 -0.136,1.917 1.306,3.582 3.223,3.718 0.085,0.007 0.168,0.01 0.252,0.01 1.81,0 3.337,-1.4 3.468,-3.232 0.081,-1.131 1.153,-16.594 0.832,-33.715 l 1.052,-0.42 c 0.922,-0.367 1.958,-0.323 2.845,0.119 3.833,1.91 8.445,1.165 11.474,-1.863 l 0.627,-0.626 c 2.812,-2.817 3.779,-6.909 2.52,-10.684 l -2.963,-8.889 c 1.602,0.482 3.362,-0.227 4.136,-1.77 0.86,-1.719 0.163,-3.809 -1.556,-4.669 l -6.959,-3.48 c -1.259,-0.632 -2.77,-0.438 -3.837,0.482 -1.064,0.925 -1.466,2.396 -1.021,3.731 l 5.599,16.798 c 0.419,1.257 0.097,2.623 -0.84,3.561 l -0.626,0.626 c -0.907,0.907 -2.289,1.128 -3.444,0.557 -2.255,-1.127 -4.823,-1.338 -7.232,-0.724 -0.489,-11.169 -1.692,-22.291 -4.254,-29.98 -0.607,-1.822 -2.574,-2.81 -4.403,-2.199 -1.823,0.605 -2.808,2.575 -2.2,4.401 2.507,7.519 3.599,18.978 3.987,30.372 l -4.166,1.666 0,-19.22 c 0,-4.798 -3.903,-8.7 -8.7,-8.7 -4.797,0 -8.7,3.901 -8.7,8.7 l 0,16.845 -3.55,-17.535 c -0.378,-1.886 -2.212,-3.116 -4.1,-2.722 -1.885,0.384 -3.103,2.219 -2.72,4.102 l 3.669,18.119 z"
         id="path4181"
         inkscape:connector-curvature="0" /><path
         style="fill:#000000;fill-opacity:1"
         d="m 112.64,173.033 c 1.922,0 3.48,-1.556 3.48,-3.48 l 0,-3.48 c 0,-1.923 -1.558,-3.48 -3.48,-3.48 -1.922,0 -3.48,1.556 -3.48,3.48 l 0,3.48 c 0,1.923 1.558,3.48 3.48,3.48 z"
         id="path4183"
         inkscape:connector-curvature="0" /><path
         style="fill:#000000;fill-opacity:1"
         d="m 147.437,169.553 3.48,0 c 1.922,0 3.48,-1.556 3.48,-3.48 0,-1.923 -1.558,-3.48 -3.48,-3.48 l -3.48,0 c -1.922,0 -3.48,1.556 -3.48,3.48 0,1.924 1.558,3.48 3.48,3.48 z"
         id="path4185"
         inkscape:connector-curvature="0" /><path
         style="fill:#000000;fill-opacity:1"
         d="m 124.768,215.286 -17.399,10.44 c -1.649,0.989 -2.182,3.126 -1.193,4.775 0.652,1.087 1.804,1.689 2.987,1.689 0.61,0 1.227,-0.16 1.788,-0.497 l 17.399,-10.44 c 1.649,-0.989 2.182,-3.126 1.193,-4.775 -0.989,-1.648 -3.125,-2.181 -4.775,-1.192 z"
         id="path4187"
         inkscape:connector-curvature="0" /><path
         style="fill:#000000;fill-opacity:1"
         d="m 171.682,221.441 0.082,-0.055 c 0.292,1.176 0.793,2.314 1.606,3.27 1.414,1.665 3.534,2.502 5.93,2.304 3.399,-0.248 5.709,-1.801 7.239,-3.806 0.233,0.16 0.478,0.306 0.734,0.435 1.881,0.948 4.056,0.877 6.127,-0.198 5.259,-2.708 6.392,-8.974 6.232,-12.25 -0.094,-1.91 -1.718,-3.258 -3.623,-3.296 -1.911,0.082 -3.399,1.703 -3.33,3.613 0.002,0.044 0.079,4.173 -2.445,5.706 -0.412,-0.574 -0.9,-1.866 -1.084,-2.933 -0.294,-1.791 -1.939,-3.038 -3.709,-2.895 -1.804,0.142 -3.198,1.658 -3.204,3.469 -0.002,0.506 -0.114,4.971 -3.561,5.345 -0.401,-0.547 -0.408,-2.851 -0.013,-4.554 0.333,-1.397 -0.227,-2.855 -1.409,-3.67 -1.184,-0.819 -2.745,-0.819 -3.934,-0.013 l -1.942,1.321 c -0.922,-20.18 -3.047,-43.695 -3.073,-43.996 -0.173,-1.91 -1.855,-3.334 -3.78,-3.15 -1.914,0.173 -3.325,1.866 -3.151,3.783 0.03,0.322 2.487,27.529 3.245,48.306 -0.178,0.169 -0.361,0.354 -0.535,0.516 -1.376,-3.469 -4.104,-5.654 -7.617,-5.987 -4.958,-0.438 -10.33,2.936 -12.256,7.755 -1.66,4.146 -0.615,8.221 2.66,10.378 2.355,1.553 5.909,2.042 10.378,0.476 -1.091,3.833 -3.078,7.721 -5.66,10.728 -2.313,2.695 -6.175,5.804 -11.117,5.665 -2.877,-0.113 -5.087,-1.054 -6.758,-2.882 -4.029,-4.401 -3.682,-12.366 -3.679,-12.451 0.1,-1.917 -1.368,-3.551 -3.283,-3.657 -1.929,-0.204 -3.561,1.363 -3.667,3.283 -0.024,0.441 -0.529,10.909 5.464,17.491 2.95,3.245 6.869,4.982 11.649,5.169 0.233,0.01 0.466,0.013 0.7,0.013 5.821,0 11.469,-2.855 15.968,-8.098 4.232,-4.928 7.106,-11.622 7.968,-17.836 -0.011,11.904 -7.185,25.33 -16.696,31.245 -4.039,2.508 -10.336,4.771 -17.429,1.274 -8.744,-4.316 -7.702,-14.31 -7.656,-14.718 0.239,-1.907 -1.114,-3.646 -3.021,-3.884 -1.898,-0.231 -3.648,1.111 -3.884,3.021 -0.078,0.622 -1.75,15.292 11.482,21.82 3.399,1.678 6.953,2.511 10.535,2.511 4.601,0 9.245,-1.376 13.647,-4.115 11.58,-7.198 19.985,-22.836 19.985,-37.183 -0.001,-2.243 -0.044,-4.693 -0.115,-7.27 z m -20.983,3.587 c -0.622,-0.412 -0.136,-1.726 -0.031,-1.988 0.733,-1.835 3.025,-3.422 4.856,-3.422 0.094,0 0.189,0.003 0.28,0.013 0.445,0.041 1.626,0.153 2.134,2.78 0.054,0.279 0.1,0.564 0.136,0.856 -3.878,2.278 -6.478,2.35 -7.375,1.761 z"
         id="path4189"
         inkscape:connector-curvature="0" /><path
         style="fill:#000000;fill-opacity:1"
         d="m 114.397,257.033 c -1.649,-0.969 -3.779,-0.415 -4.757,1.234 -0.16,0.268 -0.372,0.561 -0.588,0.825 -0.038,-0.088 -0.075,-0.183 -0.113,-0.286 -1.451,-3.871 -0.418,-9.834 0.104,-11.806 0.491,-1.855 -0.614,-3.758 -2.468,-4.255 -1.852,-0.476 -3.757,0.605 -4.255,2.461 -0.253,0.941 -2.392,9.389 0.102,16.043 1.597,4.255 4.049,5.329 5.826,5.474 0.158,0.013 0.314,0.02 0.469,0.02 3.746,0 6.239,-3.775 6.932,-4.971 0.961,-1.657 0.398,-3.767 -1.252,-4.739 z"
         id="path4191"
         inkscape:connector-curvature="0" /><path
         style="fill:#000000;fill-opacity:1"
         d="m 178.612,193.911 c 0.753,0 1.511,-0.242 2.147,-0.744 l 17.544,-13.773 c 0.242,-0.19 0.397,-0.439 0.574,-0.673 2.527,-1.524 4.236,-4.268 4.236,-7.427 0,-4.798 -3.903,-8.7 -8.7,-8.7 -4.797,0 -8.7,3.901 -8.7,8.7 0,2.685 1.248,5.058 3.164,6.655 l -12.417,9.748 c -1.511,1.186 -1.774,3.374 -0.588,4.883 0.687,0.875 1.709,1.331 2.74,1.331 z m 15.802,-24.358 c 0.96,0 1.74,0.781 1.74,1.74 0,0.959 -0.78,1.74 -1.74,1.74 -0.96,0 -1.74,-0.781 -1.74,-1.74 0,-0.959 0.78,-1.74 1.74,-1.74 z"
         id="path4193"
         inkscape:connector-curvature="0" /><path
         style="fill:#000000;fill-opacity:1"
         d="m 190.295,190.612 c -1.833,-0.611 -3.796,0.377 -4.403,2.199 -0.372,1.114 -2.055,6.855 1.356,10.262 1.324,1.325 3.063,1.988 5.199,1.984 1.427,0 3.031,-0.292 4.807,-0.887 1.823,-0.605 2.808,-2.575 2.2,-4.401 -0.608,-1.822 -2.575,-2.814 -4.403,-2.199 -1.944,0.646 -2.766,0.541 -2.841,0.608 -0.205,-0.516 -0.07,-2.07 0.287,-3.181 0.602,-1.816 -0.383,-3.78 -2.202,-4.385 z"
         id="path4195"
         inkscape:connector-curvature="0" /><path
         style="fill:#000000;fill-opacity:1"
         d="m 230.121,176.226 c 0.327,0.095 0.654,0.139 0.977,0.139 1.507,0 2.895,-0.985 3.339,-2.505 l 2.03,-6.959 c 0.538,-1.845 -0.522,-3.779 -2.365,-4.316 -1.85,-0.534 -3.777,0.52 -4.316,2.365 l -2.03,6.959 c -0.539,1.848 0.521,3.781 2.365,4.317 z"
         id="path4197"
         inkscape:connector-curvature="0" /><path
         style="fill:#000000;fill-opacity:1"
         d="m 209.838,175.819 c 0.552,0.323 1.158,0.476 1.753,0.476 1.196,0 2.36,-0.615 3.007,-1.722 0.97,-1.658 0.412,-3.793 -1.247,-4.761 -0.7,-0.408 -0.605,-1.56 -0.579,-1.788 0.104,-0.914 0.649,-2.029 1.597,-2.324 1.835,-0.57 2.86,-2.521 2.289,-4.356 -0.574,-1.838 -2.521,-2.855 -4.359,-2.291 -3.469,1.08 -5.998,4.292 -6.443,8.18 -0.412,3.618 1.114,6.908 3.982,8.586 z"
         id="path4199"
         inkscape:connector-curvature="0" /><path
         style="fill:#000000;fill-opacity:1"
         d="m 182.234,232.189 c -1.922,0 -3.48,1.556 -3.48,3.48 0,1.699 1.217,3.113 2.827,3.418 0.183,0.268 0.652,1.19 0.652,3.541 0,1.923 1.558,3.48 3.48,3.48 1.922,0 3.48,-1.556 3.48,-3.48 10e-4,-10.32 -6.675,-10.439 -6.959,-10.439 z"
         id="path4201"
         inkscape:connector-curvature="0" /><path
         style="fill:#000000;fill-opacity:1"
         d="m 241.27,217.78 c 0.437,0.072 0.872,0.105 1.309,0.105 2.734,0 5.496,-1.379 8.232,-4.115 1.359,-1.359 1.359,-3.561 0,-4.92 -1.359,-1.359 -3.561,-1.359 -4.92,0 -2.081,2.083 -3.201,2.127 -3.488,2.062 -0.664,-0.095 -1.266,-0.962 -1.4,-1.199 -0.873,-1.693 -2.943,-2.368 -4.647,-1.516 -1.719,0.86 -2.417,2.95 -1.556,4.669 0.215,0.432 2.224,4.224 6.47,4.914 z"
         id="path4203"
         inkscape:connector-curvature="0" /><path
         style="fill:#000000;fill-opacity:1"
         d="m 300.419,193.326 c -0.022,-0.054 -0.043,-0.105 -0.06,-0.153 -0.617,-1.807 -2.588,-2.79 -4.392,-2.175 -1.825,0.605 -2.81,2.575 -2.202,4.401 0.271,0.815 1.822,4.907 5.662,5.423 0.257,0.034 0.512,0.051 0.765,0.051 2.411,0 4.672,-1.56 6.73,-4.646 1.065,-1.597 0.633,-3.758 -0.966,-4.825 -1.601,-1.064 -3.762,-0.636 -4.825,0.966 -0.275,0.411 -0.513,0.724 -0.712,0.958 z"
         id="path4205"
         inkscape:connector-curvature="0" /><path
         style="fill:#000000;fill-opacity:1"
         d="m 293.588,256.547 c 0,-14.839 -0.652,-28.76 -1.558,-40.958 4.941,8.569 9.386,17.228 12.218,24.782 0.525,1.397 1.85,2.257 3.258,2.257 0.406,0 0.819,-0.072 1.221,-0.221 1.8,-0.676 2.712,-2.681 2.037,-4.482 -4.405,-11.742 -12.321,-25.726 -20.124,-38.14 -1.902,-18.745 -4.032,-30.643 -4.069,-30.855 -0.343,-1.892 -2.151,-3.17 -4.045,-2.801 -1.891,0.343 -3.145,2.154 -2.802,4.044 0.028,0.151 1.124,6.28 2.435,16.595 -2.674,-3.967 -5.158,-7.546 -7.242,-10.492 l 0.17,0.054 c 1.833,0.611 3.794,-0.377 4.403,-2.199 0.608,-1.825 -0.377,-3.796 -2.2,-4.401 l -10.44,-3.48 c -1.448,-0.489 -3.037,0.028 -3.923,1.265 -0.237,0.33 -0.399,0.692 -0.509,1.066 -2.083,-1.54 -4.755,-2.792 -7.263,-1.742 -1.517,0.629 -3.325,2.212 -3.325,6.191 0,3.055 1.165,6.358 2.401,9.858 2.049,5.804 3.332,10.072 1.162,12.108 -1.199,1.124 -2.398,1.549 -3.566,1.254 -2.146,-0.544 -4.27,-3.402 -5.685,-7.646 -0.062,-0.184 -0.19,-0.318 -0.278,-0.483 0.732,-5.39 0.413,-11.884 -1.062,-19.253 -0.375,-1.886 -2.204,-3.113 -4.095,-2.729 -1.885,0.377 -3.106,2.209 -2.729,4.095 2.272,11.363 1.59,20.633 -1.823,24.797 -1.32,1.611 -2.974,2.358 -5.204,2.358 -0.705,0 -1.186,-0.224 -1.665,-0.775 -2.745,-3.164 -2.734,-13.372 -1.848,-19.615 0.141,-0.995 -0.158,-2.008 -0.819,-2.77 -0.661,-0.761 -1.619,-1.199 -2.627,-1.199 -5.987,0 -8.257,6.81 -10.261,12.818 -0.878,2.641 -2.516,7.551 -3.658,8.061 -2.106,0 -3.468,-6.185 -3.48,-10.443 -0.006,-1.92 -1.561,-3.473 -3.48,-3.473 0,0 -0.003,0 -0.006,0 -1.92,0 -3.475,1.556 -3.475,3.476 0,8.026 2.734,17.399 10.44,17.399 5.738,0 8.062,-6.253 10.008,-12.064 0.338,4.621 1.382,9.409 3.947,12.366 1.803,2.08 4.196,3.177 6.924,3.177 4.296,0 7.955,-1.696 10.585,-4.904 0.477,-0.58 0.887,-1.247 1.292,-1.92 2.02,2.872 4.499,4.767 7.292,5.472 0.819,0.207 1.643,0.312 2.458,0.312 2.686,0 5.311,-1.108 7.578,-3.239 0.471,-0.444 0.803,-0.927 1.162,-1.404 0.851,0.243 1.714,0.387 2.571,0.387 2.819,0 5.533,-1.135 7.217,-2.216 1.611,-1.033 2.077,-3.167 1.054,-4.785 -1.025,-1.614 -3.169,-2.097 -4.791,-1.084 -0.03,0.014 -2.354,1.35 -3.939,1.036 0.004,-3.815 -1.376,-7.866 -2.636,-11.435 -0.717,-2.033 -1.453,-4.115 -1.8,-5.817 0.287,0.242 0.567,0.493 0.818,0.737 1.356,1.359 3.56,1.359 4.919,0 0.225,-0.225 0.355,-0.498 0.505,-0.761 3.607,4.969 11.026,15.411 18.657,27.448 1.457,14.795 2.735,33.668 2.735,54.368 0,1.923 1.558,3.48 3.48,3.48 1.922,0.004 3.48,-1.551 3.48,-3.475 z"
         id="path4207"
         inkscape:connector-curvature="0" /><path
         style="fill:#000000;fill-opacity:1"
         d="m 297.067,179.992 c 0,1.923 1.558,3.48 3.48,3.48 1.922,0 3.48,-1.556 3.48,-3.48 0,-4.095 -3.204,-10.711 -3.847,-11.996 -0.86,-1.716 -2.948,-2.409 -4.669,-1.556 -1.719,0.86 -2.417,2.95 -1.556,4.669 1.255,2.511 3.112,7.068 3.112,8.883 z"
         id="path4209"
         inkscape:connector-curvature="0" /><path
         style="fill:#000000;fill-opacity:1"
         d="m 281.234,256.927 c -1.706,-0.87 -3.802,-0.18 -4.671,1.533 -0.374,0.73 -0.953,1.543 -1.442,2.066 -0.154,-1.383 0.214,-4.146 0.916,-6.436 0.467,-1.529 -0.167,-3.181 -1.536,-4.003 -1.364,-0.825 -3.123,-0.611 -4.252,0.52 l -6.959,6.959 c -1.359,1.359 -1.359,3.561 0,4.92 1.359,1.359 3.561,1.359 4.92,0 l 0.177,-0.177 c 0.301,1.397 0.877,2.671 1.863,3.657 1.305,1.305 2.882,1.995 4.521,1.995 0.318,0 0.637,-0.028 0.957,-0.078 3.942,-0.639 6.396,-4.985 7.054,-6.301 0.855,-1.716 0.162,-3.791 -1.548,-4.655 z"
         id="path4211"
         inkscape:connector-curvature="0" /><path
         style="fill:#000000;fill-opacity:1"
         d="m 279.885,228.926 -24.525,0 c 0.217,-0.866 0.441,-1.693 0.67,-2.477 9.78,-2.033 15.593,-5.19 17.302,-9.402 0.591,-1.461 1.208,-4.414 -1.309,-7.809 -2.269,-3.059 -5.471,-4.431 -8.797,-3.752 -4.945,1.002 -9.351,6.33 -12.512,14.86 -9.823,1.682 -16.111,5.208 -20.092,8.687 -1.412,-14.26 -6.947,-22.731 -7.217,-23.134 -1.067,-1.601 -3.229,-2.033 -4.825,-0.966 -1.599,1.067 -2.03,3.225 -0.966,4.825 0.063,0.095 6.375,9.749 6.375,25.908 0,15.883 -12.665,27.838 -20.878,27.838 -3.907,0 -5.618,-4.644 -6.369,-8.572 8.042,-5.636 15.138,-12.158 16.705,-18.424 2.121,-8.479 -0.548,-14.728 -2.314,-18.863 -0.083,-0.19 -0.17,-0.394 -0.258,-0.605 0.075,0.068 0.146,0.139 0.217,0.207 1.356,1.359 3.56,1.359 4.919,0 1.359,-1.359 1.359,-3.561 0,-4.92 -2.034,-2.036 -5.984,-5.234 -9.575,-3.731 -1.517,0.629 -3.325,2.212 -3.325,6.191 0,1.798 0.751,3.554 1.621,5.593 1.567,3.667 3.516,8.231 1.962,14.442 -0.919,3.676 -5.433,8.135 -11.39,12.563 -0.639,-0.764 -1.561,-1.277 -2.633,-1.277 l -0.006,0 c -1.92,0.003 -3.475,1.556 -3.475,3.476 0,0.626 0.028,1.295 0.068,1.982 -7.447,4.823 -15.874,9.287 -22.388,12.249 -1.748,0.796 -2.521,2.858 -1.726,4.608 0.583,1.281 1.847,2.039 3.169,2.039 0.482,0 0.972,-0.098 1.438,-0.312 1.956,-0.889 11.243,-5.216 20.783,-11.128 1.757,5.965 5.48,11.442 12.576,11.442 8.348,0 17.818,-6.826 23.283,-17.017 0.66,1.165 1.418,2.281 2.323,3.322 8.759,10.1 25.867,10.215 26.591,10.215 1.874,0 3.41,-1.482 3.478,-3.354 0.066,-1.873 -1.361,-3.463 -3.229,-3.595 -0.028,-0.003 -2.801,-0.309 -4.343,-2.11 -0.931,-1.087 -1.303,-2.583 -1.139,-4.57 0.356,-4.288 14.189,-7.494 26.38,-7.683 1.453,-0.024 2.739,-0.945 3.226,-2.314 l 3.48,-9.786 c 0.378,-1.064 0.216,-2.25 -0.437,-3.17 -0.645,-0.926 -1.708,-1.476 -2.838,-1.476 z m -15.274,-16.617 c 0.066,-0.013 0.154,-0.034 0.265,-0.034 0.333,0 0.858,0.163 1.558,1.108 0.132,0.177 0.556,0.781 0.449,1.047 -0.399,0.985 -2.802,2.613 -7.807,4.088 2.201,-4.296 4.354,-5.971 5.535,-6.209 z m -21.015,45.743 c -3.535,-1.149 -7.138,-2.97 -9.632,-5.855 -2.741,-3.17 -3.753,-7.18 -3.089,-12.254 0.1,-0.267 0.328,-0.792 0.726,-1.475 4.9,-0.449 17.991,1.482 18.898,5.231 -4.038,2.061 -7.012,4.959 -7.356,9.079 -0.173,2.067 0.038,3.817 0.453,5.274 z"
         id="path4213"
         inkscape:connector-curvature="0" /><path
         style="fill:#000000;fill-opacity:1"
         d="m 317.768,178.891 -3.48,-10.44 c -0.561,-1.678 -2.302,-2.681 -4.029,-2.301 -1.735,0.371 -2.912,1.984 -2.735,3.748 2.401,24.012 6.943,70.839 6.943,76.209 0,4.822 -8.577,14.316 -22.435,21.246 -1.719,0.86 -2.417,2.949 -1.556,4.669 0.61,1.22 1.838,1.923 3.116,1.923 0.522,0 1.054,-0.119 1.553,-0.367 12.659,-6.33 26.282,-17.626 26.282,-27.471 0,-5.141 -3.556,-42.134 -5.593,-62.914 1.649,-0.704 2.511,-2.568 1.934,-4.302 z"
         id="path4215"
         inkscape:connector-curvature="0" /><path
         style="fill:#000000;fill-opacity:1"
         d="m 346.803,210.291 c 0.67,0.67 1.56,1.02 2.462,1.02 0.588,0 1.181,-0.149 1.719,-0.456 1.361,-0.775 2.037,-2.365 1.652,-3.884 -0.623,-2.446 -0.831,-5.505 -0.501,-6.755 1.743,0.054 3.361,-1.186 3.617,-2.984 0.271,-1.903 -1.05,-3.667 -2.952,-3.938 -2.301,-0.312 -4.321,0.364 -5.732,1.933 -0.914,1.02 -1.458,2.328 -1.753,3.735 l -4.03,-4.03 c -1.359,-1.359 -3.561,-1.359 -4.92,0 -1.359,1.359 -1.359,3.561 0,4.92 l 10.438,10.439 z"
         id="path4217"
         inkscape:connector-curvature="0" /><path
         style="fill:#000000;fill-opacity:1"
         d="m 354.631,213.92 -13.049,9.352 c -1.561,1.118 -1.922,3.293 -0.802,4.856 0.68,0.948 1.748,1.451 2.833,1.451 0.702,0 1.41,-0.211 2.024,-0.652 l 13.049,-9.352 c 1.561,-1.118 1.922,-3.293 0.802,-4.856 -1.122,-1.564 -3.3,-1.928 -4.857,-0.799 z"
         id="path4219"
         inkscape:connector-curvature="0" /><path
         style="fill:#000000;fill-opacity:1"
         d="m 353.475,227.006 c -1.095,1.41 -0.938,3.395 0.305,4.615 0.149,0.252 0.828,1.583 0.705,5.009 -0.068,1.923 1.434,3.534 3.354,3.602 0.042,0.003 0.085,0.003 0.126,0.003 1.866,0 3.409,-1.479 3.476,-3.354 0.253,-7.102 -2.071,-9.698 -3.082,-10.484 -1.514,-1.185 -3.704,-0.906 -4.884,0.609 z"
         id="path4221"
         inkscape:connector-curvature="0" /><path
         style="fill:#000000;fill-opacity:1"
         d="m 383.843,252.632 c 1.922,0 3.48,-1.556 3.48,-3.48 0,-5.134 -0.264,-10.866 -0.695,-16.829 3.451,5.654 6.317,10.867 8.155,15.154 0.564,1.322 1.848,2.11 3.199,2.11 0.457,0 0.922,-0.088 1.369,-0.282 1.766,-0.758 2.584,-2.804 1.826,-4.567 -3.186,-7.435 -9.14,-17.283 -15.921,-27.45 -1.365,-12.772 -3.148,-25.287 -4.534,-34.264 0.737,0.075 1.502,-0.105 2.173,-0.541 1.099,-0.704 1.614,-1.927 1.54,-3.144 0.089,0.342 0.185,0.685 0.385,1 0.024,0.034 2.26,3.727 1.268,8.52 -0.39,1.879 0.821,3.721 2.703,4.111 0.238,0.047 0.476,0.072 0.708,0.072 1.615,0 3.063,-1.132 3.405,-2.776 1.571,-7.602 -2.058,-13.419 -2.212,-13.664 -1.033,-1.618 -3.185,-2.093 -4.806,-1.067 -1.103,0.703 -1.625,1.927 -1.554,3.147 -0.09,-0.344 -0.189,-0.69 -0.392,-1.005 l -5.873,-9.134 c -0.897,-1.394 -2.653,-1.958 -4.193,-1.359 -1.545,0.605 -2.449,2.212 -2.162,3.843 0.049,0.274 2.708,15.544 5.065,33.949 -2.668,-3.767 -5.335,-7.45 -7.922,-10.966 -0.42,-5.265 -0.842,-10.132 -1.207,-14.157 0.192,-0.057 0.381,-0.132 0.566,-0.224 1.719,-0.86 2.417,-2.95 1.556,-4.669 l -3.48,-6.959 c -0.751,-1.502 -2.465,-2.25 -4.079,-1.788 -1.612,0.469 -2.663,2.018 -2.496,3.69 0.415,4.153 0.847,8.75 1.271,13.579 -2.201,-2.901 -4.237,-5.557 -5.98,-7.806 0.34,-0.292 0.63,-0.655 0.844,-1.084 0.86,-1.719 0.163,-3.809 -1.556,-4.669 l -6.959,-3.48 c -1.46,-0.727 -3.232,-0.346 -4.263,0.925 -1.026,1.271 -1.032,3.085 -0.01,4.363 0.188,0.234 8.756,10.974 19.005,24.836 1.778,22.991 2.962,46.908 1.29,51.922 -0.306,0.917 -0.84,1.998 -1.341,2.036 -2.103,0.292 -7.123,-4.41 -9.644,-9.45 -1.453,-2.902 -3.543,-3.204 -4.661,-3.154 -3.74,0.231 -5.199,4.346 -7.851,11.816 -1.901,5.352 -4.263,12.006 -6.915,14.728 -1.437,-1.756 -3.295,-7.647 -4.327,-13.7 0.484,1.338 1.737,2.306 3.243,2.306 1.922,0 3.48,-1.556 3.48,-3.48 0,-5.19 -3.629,-44.711 -5.656,-66.37 1.693,-0.68 2.583,-2.572 1.998,-4.326 l -3.48,-10.44 c -0.559,-1.678 -2.276,-2.668 -4.022,-2.304 -1.731,0.367 -2.912,1.974 -2.744,3.735 2.365,24.824 6.799,72.772 6.937,79.39 -0.009,-0.06 -0.021,-0.118 -0.029,-0.178 -0.27,-1.903 -2.046,-3.208 -3.937,-2.953 -1.903,0.275 -3.223,2.036 -2.952,3.938 1.016,7.113 3.613,19.342 9.593,21.334 0.472,0.16 1.108,0.302 1.854,0.302 1.372,0 3.114,-0.486 4.897,-2.27 3.79,-3.789 6.355,-11.014 8.618,-17.385 0.511,-1.441 1.117,-3.147 1.687,-4.608 3.192,4.662 8.762,10.466 14.405,10.012 1.984,-0.142 5.593,-1.209 7.449,-6.776 1.85,-5.551 1.119,-24.91 -0.128,-43.444 2.932,4.109 5.866,8.317 8.666,12.472 1.086,10.421 1.862,20.861 1.862,29.436 0.005,1.919 1.563,3.476 3.484,3.476 z"
         id="path4223"
         inkscape:connector-curvature="0" /><path
         style="fill:#000000;fill-opacity:1"
         d="m 410.251,234.329 c -2.465,-18.364 -5.899,-39.637 -8.074,-52.693 0.982,0.242 2.052,0.044 2.915,-0.619 1.529,-1.165 1.822,-3.351 0.655,-4.876 l -6.307,-8.265 c -0.973,-1.271 -2.69,-1.719 -4.159,-1.077 -1.47,0.642 -2.31,2.206 -2.036,3.786 0.063,0.356 6.268,36.078 10.106,64.668 1.466,10.925 -0.674,20.689 -5.729,26.112 -3.249,3.484 -7.554,5.06 -12.764,4.757 -1.913,-0.102 -3.572,1.338 -3.692,3.255 -0.12,1.917 1.335,3.569 3.254,3.69 0.588,0.038 1.167,0.054 1.741,0.054 6.562,0 12.257,-2.405 16.551,-7.014 6.559,-7.032 9.307,-18.617 7.539,-31.778 z"
         id="path4225"
         inkscape:connector-curvature="0" /><path
         style="fill:#000000;fill-opacity:1"
         d="m 371.97,257.267 c -1.279,1.39 -1.181,3.578 0.172,4.891 0.189,0.183 0.415,0.544 0.416,0.721 0.002,0.098 -0.139,0.391 -0.526,0.778 -1.359,1.359 -1.359,3.561 0,4.92 0.68,0.68 1.57,1.02 2.461,1.02 0.89,0 1.781,-0.34 2.461,-1.02 2.207,-2.206 2.612,-4.445 2.562,-5.937 -0.107,-3.211 -2.294,-5.284 -2.73,-5.668 -1.423,-1.237 -3.538,-1.088 -4.816,0.295 z"
         id="path4227"
         inkscape:connector-curvature="0" /><path
         style="fill:#000000;fill-opacity:1"
         d="m 359.703,333.58 -3.48,0 -20.878,0 0,-3.48 c 0,-1.923 -1.558,-3.48 -3.48,-3.48 -1.922,0 -3.48,1.556 -3.48,3.48 l 0,3.48 -184.428,0 c 6.959,6.959 20.878,10.44 31.318,10.44 7.487,0 100.879,0 153.11,0 l 0,6.959 c 0,1.923 1.558,3.48 3.48,3.48 l 27.838,0 c 5.757,0 10.44,-4.683 10.44,-10.44 0,-5.757 -4.683,-10.439 -10.44,-10.439 z m 0,13.919 -24.359,0 0,-3.48 c 16.77,0 27.838,0 27.838,0 l -0.625,-1.873 c 0.362,0.548 0.625,1.167 0.625,1.873 0,1.921 -1.561,3.48 -3.479,3.48 z"
         id="path4229"
         inkscape:connector-curvature="0" /></g></g><g
     id="g4219"
     transform="matrix(0.06249988,0,0,0.06558374,0,30.690791)"><path
       inkscape:connector-curvature="0"
       id="path3"
       d="m 503.172,-56.276 -494.344,0 C 3.953,-56.276 0,-60.229 0,-65.104 l 0,-317.793 c 0,-4.875 3.953,-8.828 8.828,-8.828 l 494.345,0 c 4.875,0 8.828,3.953 8.828,8.828 l 0,317.793 c -10e-4,4.876 -3.954,8.828 -8.829,8.828 z"
       style="fill:#73af00" /><g
       transform="translate(0,-480)"
       id="g5"><path
         inkscape:connector-curvature="0"
         id="path7"
         d="m 105.94,202.278 c 0.87,5.577 4.241,7.327 7.172,7.098 3.456,-0.268 6.487,-3.428 6.487,-6.766 l 0,-19.138 c 0,-0.958 0.78,-1.74 1.74,-1.74 0.96,0 1.74,0.781 1.74,1.74 l 0,19.22 c 0,2.311 1.142,4.466 3.057,5.76 1.169,0.792 2.53,1.199 3.901,1.199 0.873,0 1.75,-0.167 2.586,-0.5 l 1.739,-0.695 c 0.16,16.065 -0.817,30.184 -0.835,30.443 -0.136,1.917 1.306,3.582 3.223,3.718 0.085,0.007 0.168,0.01 0.252,0.01 1.81,0 3.337,-1.4 3.468,-3.232 0.081,-1.131 1.153,-16.594 0.832,-33.715 l 1.052,-0.42 c 0.922,-0.367 1.958,-0.323 2.845,0.119 3.833,1.91 8.445,1.165 11.474,-1.863 l 0.627,-0.626 c 2.812,-2.817 3.779,-6.909 2.52,-10.684 l -2.963,-8.889 c 1.602,0.482 3.362,-0.227 4.136,-1.77 0.86,-1.719 0.163,-3.809 -1.556,-4.669 l -6.959,-3.48 c -1.259,-0.632 -2.77,-0.438 -3.837,0.482 -1.064,0.925 -1.466,2.396 -1.021,3.731 l 5.599,16.798 c 0.419,1.257 0.097,2.623 -0.84,3.561 l -0.626,0.626 c -0.907,0.907 -2.289,1.128 -3.444,0.557 -2.255,-1.127 -4.823,-1.338 -7.232,-0.724 -0.489,-11.169 -1.692,-22.291 -4.254,-29.98 -0.607,-1.822 -2.574,-2.81 -4.403,-2.199 -1.823,0.605 -2.808,2.575 -2.2,4.401 2.507,7.519 3.599,18.978 3.987,30.372 l -4.166,1.666 0,-19.22 c 0,-4.798 -3.903,-8.7 -8.7,-8.7 -4.797,0 -8.7,3.901 -8.7,8.7 l 0,16.845 -3.55,-17.535 c -0.378,-1.886 -2.212,-3.116 -4.1,-2.722 -1.885,0.384 -3.103,2.219 -2.72,4.102 l 3.669,18.119 z"
         style="fill:#f5f5f5" /><path
         inkscape:connector-curvature="0"
         id="path9"
         d="m 112.64,173.033 c 1.922,0 3.48,-1.556 3.48,-3.48 l 0,-3.48 c 0,-1.923 -1.558,-3.48 -3.48,-3.48 -1.922,0 -3.48,1.556 -3.48,3.48 l 0,3.48 c 0,1.923 1.558,3.48 3.48,3.48 z"
         style="fill:#f5f5f5" /><path
         inkscape:connector-curvature="0"
         id="path11"
         d="m 147.437,169.553 3.48,0 c 1.922,0 3.48,-1.556 3.48,-3.48 0,-1.923 -1.558,-3.48 -3.48,-3.48 l -3.48,0 c -1.922,0 -3.48,1.556 -3.48,3.48 0,1.924 1.558,3.48 3.48,3.48 z"
         style="fill:#f5f5f5" /><path
         inkscape:connector-curvature="0"
         id="path13"
         d="m 124.768,215.286 -17.399,10.44 c -1.649,0.989 -2.182,3.126 -1.193,4.775 0.652,1.087 1.804,1.689 2.987,1.689 0.61,0 1.227,-0.16 1.788,-0.497 l 17.399,-10.44 c 1.649,-0.989 2.182,-3.126 1.193,-4.775 -0.989,-1.648 -3.125,-2.181 -4.775,-1.192 z"
         style="fill:#f5f5f5" /><path
         inkscape:connector-curvature="0"
         id="path15"
         d="m 171.682,221.441 0.082,-0.055 c 0.292,1.176 0.793,2.314 1.606,3.27 1.414,1.665 3.534,2.502 5.93,2.304 3.399,-0.248 5.709,-1.801 7.239,-3.806 0.233,0.16 0.478,0.306 0.734,0.435 1.881,0.948 4.056,0.877 6.127,-0.198 5.259,-2.708 6.392,-8.974 6.232,-12.25 -0.094,-1.91 -1.718,-3.258 -3.623,-3.296 -1.911,0.082 -3.399,1.703 -3.33,3.613 0.002,0.044 0.079,4.173 -2.445,5.706 -0.412,-0.574 -0.9,-1.866 -1.084,-2.933 -0.294,-1.791 -1.939,-3.038 -3.709,-2.895 -1.804,0.142 -3.198,1.658 -3.204,3.469 -0.002,0.506 -0.114,4.971 -3.561,5.345 -0.401,-0.547 -0.408,-2.851 -0.013,-4.554 0.333,-1.397 -0.227,-2.855 -1.409,-3.67 -1.184,-0.819 -2.745,-0.819 -3.934,-0.013 l -1.942,1.321 c -0.922,-20.18 -3.047,-43.695 -3.073,-43.996 -0.173,-1.91 -1.855,-3.334 -3.78,-3.15 -1.914,0.173 -3.325,1.866 -3.151,3.783 0.03,0.322 2.487,27.529 3.245,48.306 -0.178,0.169 -0.361,0.354 -0.535,0.516 -1.376,-3.469 -4.104,-5.654 -7.617,-5.987 -4.958,-0.438 -10.33,2.936 -12.256,7.755 -1.66,4.146 -0.615,8.221 2.66,10.378 2.355,1.553 5.909,2.042 10.378,0.476 -1.091,3.833 -3.078,7.721 -5.66,10.728 -2.313,2.695 -6.175,5.804 -11.117,5.665 -2.877,-0.113 -5.087,-1.054 -6.758,-2.882 -4.029,-4.401 -3.682,-12.366 -3.679,-12.451 0.1,-1.917 -1.368,-3.551 -3.283,-3.657 -1.929,-0.204 -3.561,1.363 -3.667,3.283 -0.024,0.441 -0.529,10.909 5.464,17.491 2.95,3.245 6.869,4.982 11.649,5.169 0.233,0.01 0.466,0.013 0.7,0.013 5.821,0 11.469,-2.855 15.968,-8.098 4.232,-4.928 7.106,-11.622 7.968,-17.836 -0.011,11.904 -7.185,25.33 -16.696,31.245 -4.039,2.508 -10.336,4.771 -17.429,1.274 -8.744,-4.316 -7.702,-14.31 -7.656,-14.718 0.239,-1.907 -1.114,-3.646 -3.021,-3.884 -1.898,-0.231 -3.648,1.111 -3.884,3.021 -0.078,0.622 -1.75,15.292 11.482,21.82 3.399,1.678 6.953,2.511 10.535,2.511 4.601,0 9.245,-1.376 13.647,-4.115 11.58,-7.198 19.985,-22.836 19.985,-37.183 -0.001,-2.243 -0.044,-4.693 -0.115,-7.27 z m -20.983,3.587 c -0.622,-0.412 -0.136,-1.726 -0.031,-1.988 0.733,-1.835 3.025,-3.422 4.856,-3.422 0.094,0 0.189,0.003 0.28,0.013 0.445,0.041 1.626,0.153 2.134,2.78 0.054,0.279 0.1,0.564 0.136,0.856 -3.878,2.278 -6.478,2.35 -7.375,1.761 z"
         style="fill:#f5f5f5" /><path
         inkscape:connector-curvature="0"
         id="path17"
         d="m 114.397,257.033 c -1.649,-0.969 -3.779,-0.415 -4.757,1.234 -0.16,0.268 -0.372,0.561 -0.588,0.825 -0.038,-0.088 -0.075,-0.183 -0.113,-0.286 -1.451,-3.871 -0.418,-9.834 0.104,-11.806 0.491,-1.855 -0.614,-3.758 -2.468,-4.255 -1.852,-0.476 -3.757,0.605 -4.255,2.461 -0.253,0.941 -2.392,9.389 0.102,16.043 1.597,4.255 4.049,5.329 5.826,5.474 0.158,0.013 0.314,0.02 0.469,0.02 3.746,0 6.239,-3.775 6.932,-4.971 0.961,-1.657 0.398,-3.767 -1.252,-4.739 z"
         style="fill:#f5f5f5" /><path
         inkscape:connector-curvature="0"
         id="path19"
         d="m 178.612,193.911 c 0.753,0 1.511,-0.242 2.147,-0.744 l 17.544,-13.773 c 0.242,-0.19 0.397,-0.439 0.574,-0.673 2.527,-1.524 4.236,-4.268 4.236,-7.427 0,-4.798 -3.903,-8.7 -8.7,-8.7 -4.797,0 -8.7,3.901 -8.7,8.7 0,2.685 1.248,5.058 3.164,6.655 l -12.417,9.748 c -1.511,1.186 -1.774,3.374 -0.588,4.883 0.687,0.875 1.709,1.331 2.74,1.331 z m 15.802,-24.358 c 0.96,0 1.74,0.781 1.74,1.74 0,0.959 -0.78,1.74 -1.74,1.74 -0.96,0 -1.74,-0.781 -1.74,-1.74 0,-0.959 0.78,-1.74 1.74,-1.74 z"
         style="fill:#f5f5f5" /><path
         inkscape:connector-curvature="0"
         id="path21"
         d="m 190.295,190.612 c -1.833,-0.611 -3.796,0.377 -4.403,2.199 -0.372,1.114 -2.055,6.855 1.356,10.262 1.324,1.325 3.063,1.988 5.199,1.984 1.427,0 3.031,-0.292 4.807,-0.887 1.823,-0.605 2.808,-2.575 2.2,-4.401 -0.608,-1.822 -2.575,-2.814 -4.403,-2.199 -1.944,0.646 -2.766,0.541 -2.841,0.608 -0.205,-0.516 -0.07,-2.07 0.287,-3.181 0.602,-1.816 -0.383,-3.78 -2.202,-4.385 z"
         style="fill:#f5f5f5" /><path
         inkscape:connector-curvature="0"
         id="path23"
         d="m 230.121,176.226 c 0.327,0.095 0.654,0.139 0.977,0.139 1.507,0 2.895,-0.985 3.339,-2.505 l 2.03,-6.959 c 0.538,-1.845 -0.522,-3.779 -2.365,-4.316 -1.85,-0.534 -3.777,0.52 -4.316,2.365 l -2.03,6.959 c -0.539,1.848 0.521,3.781 2.365,4.317 z"
         style="fill:#f5f5f5" /><path
         inkscape:connector-curvature="0"
         id="path25"
         d="m 209.838,175.819 c 0.552,0.323 1.158,0.476 1.753,0.476 1.196,0 2.36,-0.615 3.007,-1.722 0.97,-1.658 0.412,-3.793 -1.247,-4.761 -0.7,-0.408 -0.605,-1.56 -0.579,-1.788 0.104,-0.914 0.649,-2.029 1.597,-2.324 1.835,-0.57 2.86,-2.521 2.289,-4.356 -0.574,-1.838 -2.521,-2.855 -4.359,-2.291 -3.469,1.08 -5.998,4.292 -6.443,8.18 -0.412,3.618 1.114,6.908 3.982,8.586 z"
         style="fill:#f5f5f5" /><path
         inkscape:connector-curvature="0"
         id="path27"
         d="m 182.234,232.189 c -1.922,0 -3.48,1.556 -3.48,3.48 0,1.699 1.217,3.113 2.827,3.418 0.183,0.268 0.652,1.19 0.652,3.541 0,1.923 1.558,3.48 3.48,3.48 1.922,0 3.48,-1.556 3.48,-3.48 10e-4,-10.32 -6.675,-10.439 -6.959,-10.439 z"
         style="fill:#f5f5f5" /><path
         inkscape:connector-curvature="0"
         id="path29"
         d="m 241.27,217.78 c 0.437,0.072 0.872,0.105 1.309,0.105 2.734,0 5.496,-1.379 8.232,-4.115 1.359,-1.359 1.359,-3.561 0,-4.92 -1.359,-1.359 -3.561,-1.359 -4.92,0 -2.081,2.083 -3.201,2.127 -3.488,2.062 -0.664,-0.095 -1.266,-0.962 -1.4,-1.199 -0.873,-1.693 -2.943,-2.368 -4.647,-1.516 -1.719,0.86 -2.417,2.95 -1.556,4.669 0.215,0.432 2.224,4.224 6.47,4.914 z"
         style="fill:#f5f5f5" /><path
         inkscape:connector-curvature="0"
         id="path31"
         d="m 300.419,193.326 c -0.022,-0.054 -0.043,-0.105 -0.06,-0.153 -0.617,-1.807 -2.588,-2.79 -4.392,-2.175 -1.825,0.605 -2.81,2.575 -2.202,4.401 0.271,0.815 1.822,4.907 5.662,5.423 0.257,0.034 0.512,0.051 0.765,0.051 2.411,0 4.672,-1.56 6.73,-4.646 1.065,-1.597 0.633,-3.758 -0.966,-4.825 -1.601,-1.064 -3.762,-0.636 -4.825,0.966 -0.275,0.411 -0.513,0.724 -0.712,0.958 z"
         style="fill:#f5f5f5" /><path
         inkscape:connector-curvature="0"
         id="path33"
         d="m 293.588,256.547 c 0,-14.839 -0.652,-28.76 -1.558,-40.958 4.941,8.569 9.386,17.228 12.218,24.782 0.525,1.397 1.85,2.257 3.258,2.257 0.406,0 0.819,-0.072 1.221,-0.221 1.8,-0.676 2.712,-2.681 2.037,-4.482 -4.405,-11.742 -12.321,-25.726 -20.124,-38.14 -1.902,-18.745 -4.032,-30.643 -4.069,-30.855 -0.343,-1.892 -2.151,-3.17 -4.045,-2.801 -1.891,0.343 -3.145,2.154 -2.802,4.044 0.028,0.151 1.124,6.28 2.435,16.595 -2.674,-3.967 -5.158,-7.546 -7.242,-10.492 l 0.17,0.054 c 1.833,0.611 3.794,-0.377 4.403,-2.199 0.608,-1.825 -0.377,-3.796 -2.2,-4.401 l -10.44,-3.48 c -1.448,-0.489 -3.037,0.028 -3.923,1.265 -0.237,0.33 -0.399,0.692 -0.509,1.066 -2.083,-1.54 -4.755,-2.792 -7.263,-1.742 -1.517,0.629 -3.325,2.212 -3.325,6.191 0,3.055 1.165,6.358 2.401,9.858 2.049,5.804 3.332,10.072 1.162,12.108 -1.199,1.124 -2.398,1.549 -3.566,1.254 -2.146,-0.544 -4.27,-3.402 -5.685,-7.646 -0.062,-0.184 -0.19,-0.318 -0.278,-0.483 0.732,-5.39 0.413,-11.884 -1.062,-19.253 -0.375,-1.886 -2.204,-3.113 -4.095,-2.729 -1.885,0.377 -3.106,2.209 -2.729,4.095 2.272,11.363 1.59,20.633 -1.823,24.797 -1.32,1.611 -2.974,2.358 -5.204,2.358 -0.705,0 -1.186,-0.224 -1.665,-0.775 -2.745,-3.164 -2.734,-13.372 -1.848,-19.615 0.141,-0.995 -0.158,-2.008 -0.819,-2.77 -0.661,-0.761 -1.619,-1.199 -2.627,-1.199 -5.987,0 -8.257,6.81 -10.261,12.818 -0.878,2.641 -2.516,7.551 -3.658,8.061 -2.106,0 -3.468,-6.185 -3.48,-10.443 -0.006,-1.92 -1.561,-3.473 -3.48,-3.473 0,0 -0.003,0 -0.006,0 -1.92,0 -3.475,1.556 -3.475,3.476 0,8.026 2.734,17.399 10.44,17.399 5.738,0 8.062,-6.253 10.008,-12.064 0.338,4.621 1.382,9.409 3.947,12.366 1.803,2.08 4.196,3.177 6.924,3.177 4.296,0 7.955,-1.696 10.585,-4.904 0.477,-0.58 0.887,-1.247 1.292,-1.92 2.02,2.872 4.499,4.767 7.292,5.472 0.819,0.207 1.643,0.312 2.458,0.312 2.686,0 5.311,-1.108 7.578,-3.239 0.471,-0.444 0.803,-0.927 1.162,-1.404 0.851,0.243 1.714,0.387 2.571,0.387 2.819,0 5.533,-1.135 7.217,-2.216 1.611,-1.033 2.077,-3.167 1.054,-4.785 -1.025,-1.614 -3.169,-2.097 -4.791,-1.084 -0.03,0.014 -2.354,1.35 -3.939,1.036 0.004,-3.815 -1.376,-7.866 -2.636,-11.435 -0.717,-2.033 -1.453,-4.115 -1.8,-5.817 0.287,0.242 0.567,0.493 0.818,0.737 1.356,1.359 3.56,1.359 4.919,0 0.225,-0.225 0.355,-0.498 0.505,-0.761 3.607,4.969 11.026,15.411 18.657,27.448 1.457,14.795 2.735,33.668 2.735,54.368 0,1.923 1.558,3.48 3.48,3.48 1.922,0.004 3.48,-1.551 3.48,-3.475 z"
         style="fill:#f5f5f5" /><path
         inkscape:connector-curvature="0"
         id="path35"
         d="m 297.067,179.992 c 0,1.923 1.558,3.48 3.48,3.48 1.922,0 3.48,-1.556 3.48,-3.48 0,-4.095 -3.204,-10.711 -3.847,-11.996 -0.86,-1.716 -2.948,-2.409 -4.669,-1.556 -1.719,0.86 -2.417,2.95 -1.556,4.669 1.255,2.511 3.112,7.068 3.112,8.883 z"
         style="fill:#f5f5f5" /><path
         inkscape:connector-curvature="0"
         id="path37"
         d="m 281.234,256.927 c -1.706,-0.87 -3.802,-0.18 -4.671,1.533 -0.374,0.73 -0.953,1.543 -1.442,2.066 -0.154,-1.383 0.214,-4.146 0.916,-6.436 0.467,-1.529 -0.167,-3.181 -1.536,-4.003 -1.364,-0.825 -3.123,-0.611 -4.252,0.52 l -6.959,6.959 c -1.359,1.359 -1.359,3.561 0,4.92 1.359,1.359 3.561,1.359 4.92,0 l 0.177,-0.177 c 0.301,1.397 0.877,2.671 1.863,3.657 1.305,1.305 2.882,1.995 4.521,1.995 0.318,0 0.637,-0.028 0.957,-0.078 3.942,-0.639 6.396,-4.985 7.054,-6.301 0.855,-1.716 0.162,-3.791 -1.548,-4.655 z"
         style="fill:#f5f5f5" /><path
         inkscape:connector-curvature="0"
         id="path39"
         d="m 279.885,228.926 -24.525,0 c 0.217,-0.866 0.441,-1.693 0.67,-2.477 9.78,-2.033 15.593,-5.19 17.302,-9.402 0.591,-1.461 1.208,-4.414 -1.309,-7.809 -2.269,-3.059 -5.471,-4.431 -8.797,-3.752 -4.945,1.002 -9.351,6.33 -12.512,14.86 -9.823,1.682 -16.111,5.208 -20.092,8.687 -1.412,-14.26 -6.947,-22.731 -7.217,-23.134 -1.067,-1.601 -3.229,-2.033 -4.825,-0.966 -1.599,1.067 -2.03,3.225 -0.966,4.825 0.063,0.095 6.375,9.749 6.375,25.908 0,15.883 -12.665,27.838 -20.878,27.838 -3.907,0 -5.618,-4.644 -6.369,-8.572 8.042,-5.636 15.138,-12.158 16.705,-18.424 2.121,-8.479 -0.548,-14.728 -2.314,-18.863 -0.083,-0.19 -0.17,-0.394 -0.258,-0.605 0.075,0.068 0.146,0.139 0.217,0.207 1.356,1.359 3.56,1.359 4.919,0 1.359,-1.359 1.359,-3.561 0,-4.92 -2.034,-2.036 -5.984,-5.234 -9.575,-3.731 -1.517,0.629 -3.325,2.212 -3.325,6.191 0,1.798 0.751,3.554 1.621,5.593 1.567,3.667 3.516,8.231 1.962,14.442 -0.919,3.676 -5.433,8.135 -11.39,12.563 -0.639,-0.764 -1.561,-1.277 -2.633,-1.277 l -0.006,0 c -1.92,0.003 -3.475,1.556 -3.475,3.476 0,0.626 0.028,1.295 0.068,1.982 -7.447,4.823 -15.874,9.287 -22.388,12.249 -1.748,0.796 -2.521,2.858 -1.726,4.608 0.583,1.281 1.847,2.039 3.169,2.039 0.482,0 0.972,-0.098 1.438,-0.312 1.956,-0.889 11.243,-5.216 20.783,-11.128 1.757,5.965 5.48,11.442 12.576,11.442 8.348,0 17.818,-6.826 23.283,-17.017 0.66,1.165 1.418,2.281 2.323,3.322 8.759,10.1 25.867,10.215 26.591,10.215 1.874,0 3.41,-1.482 3.478,-3.354 0.066,-1.873 -1.361,-3.463 -3.229,-3.595 -0.028,-0.003 -2.801,-0.309 -4.343,-2.11 -0.931,-1.087 -1.303,-2.583 -1.139,-4.57 0.356,-4.288 14.189,-7.494 26.38,-7.683 1.453,-0.024 2.739,-0.945 3.226,-2.314 l 3.48,-9.786 c 0.378,-1.064 0.216,-2.25 -0.437,-3.17 -0.645,-0.926 -1.708,-1.476 -2.838,-1.476 z m -15.274,-16.617 c 0.066,-0.013 0.154,-0.034 0.265,-0.034 0.333,0 0.858,0.163 1.558,1.108 0.132,0.177 0.556,0.781 0.449,1.047 -0.399,0.985 -2.802,2.613 -7.807,4.088 2.201,-4.296 4.354,-5.971 5.535,-6.209 z m -21.015,45.743 c -3.535,-1.149 -7.138,-2.97 -9.632,-5.855 -2.741,-3.17 -3.753,-7.18 -3.089,-12.254 0.1,-0.267 0.328,-0.792 0.726,-1.475 4.9,-0.449 17.991,1.482 18.898,5.231 -4.038,2.061 -7.012,4.959 -7.356,9.079 -0.173,2.067 0.038,3.817 0.453,5.274 z"
         style="fill:#f5f5f5" /><path
         inkscape:connector-curvature="0"
         id="path41"
         d="m 317.768,178.891 -3.48,-10.44 c -0.561,-1.678 -2.302,-2.681 -4.029,-2.301 -1.735,0.371 -2.912,1.984 -2.735,3.748 2.401,24.012 6.943,70.839 6.943,76.209 0,4.822 -8.577,14.316 -22.435,21.246 -1.719,0.86 -2.417,2.949 -1.556,4.669 0.61,1.22 1.838,1.923 3.116,1.923 0.522,0 1.054,-0.119 1.553,-0.367 12.659,-6.33 26.282,-17.626 26.282,-27.471 0,-5.141 -3.556,-42.134 -5.593,-62.914 1.649,-0.704 2.511,-2.568 1.934,-4.302 z"
         style="fill:#f5f5f5" /><path
         inkscape:connector-curvature="0"
         id="path43"
         d="m 346.803,210.291 c 0.67,0.67 1.56,1.02 2.462,1.02 0.588,0 1.181,-0.149 1.719,-0.456 1.361,-0.775 2.037,-2.365 1.652,-3.884 -0.623,-2.446 -0.831,-5.505 -0.501,-6.755 1.743,0.054 3.361,-1.186 3.617,-2.984 0.271,-1.903 -1.05,-3.667 -2.952,-3.938 -2.301,-0.312 -4.321,0.364 -5.732,1.933 -0.914,1.02 -1.458,2.328 -1.753,3.735 l -4.03,-4.03 c -1.359,-1.359 -3.561,-1.359 -4.92,0 -1.359,1.359 -1.359,3.561 0,4.92 l 10.438,10.439 z"
         style="fill:#f5f5f5" /><path
         inkscape:connector-curvature="0"
         id="path45"
         d="m 354.631,213.92 -13.049,9.352 c -1.561,1.118 -1.922,3.293 -0.802,4.856 0.68,0.948 1.748,1.451 2.833,1.451 0.702,0 1.41,-0.211 2.024,-0.652 l 13.049,-9.352 c 1.561,-1.118 1.922,-3.293 0.802,-4.856 -1.122,-1.564 -3.3,-1.928 -4.857,-0.799 z"
         style="fill:#f5f5f5" /><path
         inkscape:connector-curvature="0"
         id="path47"
         d="m 353.475,227.006 c -1.095,1.41 -0.938,3.395 0.305,4.615 0.149,0.252 0.828,1.583 0.705,5.009 -0.068,1.923 1.434,3.534 3.354,3.602 0.042,0.003 0.085,0.003 0.126,0.003 1.866,0 3.409,-1.479 3.476,-3.354 0.253,-7.102 -2.071,-9.698 -3.082,-10.484 -1.514,-1.185 -3.704,-0.906 -4.884,0.609 z"
         style="fill:#f5f5f5" /><path
         inkscape:connector-curvature="0"
         id="path49"
         d="m 383.843,252.632 c 1.922,0 3.48,-1.556 3.48,-3.48 0,-5.134 -0.264,-10.866 -0.695,-16.829 3.451,5.654 6.317,10.867 8.155,15.154 0.564,1.322 1.848,2.11 3.199,2.11 0.457,0 0.922,-0.088 1.369,-0.282 1.766,-0.758 2.584,-2.804 1.826,-4.567 -3.186,-7.435 -9.14,-17.283 -15.921,-27.45 -1.365,-12.772 -3.148,-25.287 -4.534,-34.264 0.737,0.075 1.502,-0.105 2.173,-0.541 1.099,-0.704 1.614,-1.927 1.54,-3.144 0.089,0.342 0.185,0.685 0.385,1 0.024,0.034 2.26,3.727 1.268,8.52 -0.39,1.879 0.821,3.721 2.703,4.111 0.238,0.047 0.476,0.072 0.708,0.072 1.615,0 3.063,-1.132 3.405,-2.776 1.571,-7.602 -2.058,-13.419 -2.212,-13.664 -1.033,-1.618 -3.185,-2.093 -4.806,-1.067 -1.103,0.703 -1.625,1.927 -1.554,3.147 -0.09,-0.344 -0.189,-0.69 -0.392,-1.005 l -5.873,-9.134 c -0.897,-1.394 -2.653,-1.958 -4.193,-1.359 -1.545,0.605 -2.449,2.212 -2.162,3.843 0.049,0.274 2.708,15.544 5.065,33.949 -2.668,-3.767 -5.335,-7.45 -7.922,-10.966 -0.42,-5.265 -0.842,-10.132 -1.207,-14.157 0.192,-0.057 0.381,-0.132 0.566,-0.224 1.719,-0.86 2.417,-2.95 1.556,-4.669 l -3.48,-6.959 c -0.751,-1.502 -2.465,-2.25 -4.079,-1.788 -1.612,0.469 -2.663,2.018 -2.496,3.69 0.415,4.153 0.847,8.75 1.271,13.579 -2.201,-2.901 -4.237,-5.557 -5.98,-7.806 0.34,-0.292 0.63,-0.655 0.844,-1.084 0.86,-1.719 0.163,-3.809 -1.556,-4.669 l -6.959,-3.48 c -1.46,-0.727 -3.232,-0.346 -4.263,0.925 -1.026,1.271 -1.032,3.085 -0.01,4.363 0.188,0.234 8.756,10.974 19.005,24.836 1.778,22.991 2.962,46.908 1.29,51.922 -0.306,0.917 -0.84,1.998 -1.341,2.036 -2.103,0.292 -7.123,-4.41 -9.644,-9.45 -1.453,-2.902 -3.543,-3.204 -4.661,-3.154 -3.74,0.231 -5.199,4.346 -7.851,11.816 -1.901,5.352 -4.263,12.006 -6.915,14.728 -1.437,-1.756 -3.295,-7.647 -4.327,-13.7 0.484,1.338 1.737,2.306 3.243,2.306 1.922,0 3.48,-1.556 3.48,-3.48 0,-5.19 -3.629,-44.711 -5.656,-66.37 1.693,-0.68 2.583,-2.572 1.998,-4.326 l -3.48,-10.44 c -0.559,-1.678 -2.276,-2.668 -4.022,-2.304 -1.731,0.367 -2.912,1.974 -2.744,3.735 2.365,24.824 6.799,72.772 6.937,79.39 -0.009,-0.06 -0.021,-0.118 -0.029,-0.178 -0.27,-1.903 -2.046,-3.208 -3.937,-2.953 -1.903,0.275 -3.223,2.036 -2.952,3.938 1.016,7.113 3.613,19.342 9.593,21.334 0.472,0.16 1.108,0.302 1.854,0.302 1.372,0 3.114,-0.486 4.897,-2.27 3.79,-3.789 6.355,-11.014 8.618,-17.385 0.511,-1.441 1.117,-3.147 1.687,-4.608 3.192,4.662 8.762,10.466 14.405,10.012 1.984,-0.142 5.593,-1.209 7.449,-6.776 1.85,-5.551 1.119,-24.91 -0.128,-43.444 2.932,4.109 5.866,8.317 8.666,12.472 1.086,10.421 1.862,20.861 1.862,29.436 0.005,1.919 1.563,3.476 3.484,3.476 z"
         style="fill:#f5f5f5" /><path
         inkscape:connector-curvature="0"
         id="path51"
         d="m 410.251,234.329 c -2.465,-18.364 -5.899,-39.637 -8.074,-52.693 0.982,0.242 2.052,0.044 2.915,-0.619 1.529,-1.165 1.822,-3.351 0.655,-4.876 l -6.307,-8.265 c -0.973,-1.271 -2.69,-1.719 -4.159,-1.077 -1.47,0.642 -2.31,2.206 -2.036,3.786 0.063,0.356 6.268,36.078 10.106,64.668 1.466,10.925 -0.674,20.689 -5.729,26.112 -3.249,3.484 -7.554,5.06 -12.764,4.757 -1.913,-0.102 -3.572,1.338 -3.692,3.255 -0.12,1.917 1.335,3.569 3.254,3.69 0.588,0.038 1.167,0.054 1.741,0.054 6.562,0 12.257,-2.405 16.551,-7.014 6.559,-7.032 9.307,-18.617 7.539,-31.778 z"
         style="fill:#f5f5f5" /><path
         inkscape:connector-curvature="0"
         id="path53"
         d="m 371.97,257.267 c -1.279,1.39 -1.181,3.578 0.172,4.891 0.189,0.183 0.415,0.544 0.416,0.721 0.002,0.098 -0.139,0.391 -0.526,0.778 -1.359,1.359 -1.359,3.561 0,4.92 0.68,0.68 1.57,1.02 2.461,1.02 0.89,0 1.781,-0.34 2.461,-1.02 2.207,-2.206 2.612,-4.445 2.562,-5.937 -0.107,-3.211 -2.294,-5.284 -2.73,-5.668 -1.423,-1.237 -3.538,-1.088 -4.816,0.295 z"
         style="fill:#f5f5f5" /><path
         inkscape:connector-curvature="0"
         id="path55"
         d="m 359.703,333.58 -3.48,0 -20.878,0 0,-3.48 c 0,-1.923 -1.558,-3.48 -3.48,-3.48 -1.922,0 -3.48,1.556 -3.48,3.48 l 0,3.48 -184.428,0 c 6.959,6.959 20.878,10.44 31.318,10.44 7.487,0 100.879,0 153.11,0 l 0,6.959 c 0,1.923 1.558,3.48 3.48,3.48 l 27.838,0 c 5.757,0 10.44,-4.683 10.44,-10.44 0,-5.757 -4.683,-10.439 -10.44,-10.439 z m 0,13.919 -24.359,0 0,-3.48 c 16.77,0 27.838,0 27.838,0 l -0.625,-1.873 c 0.362,0.548 0.625,1.167 0.625,1.873 0,1.921 -1.561,3.48 -3.479,3.48 z"
         style="fill:#f5f5f5" /></g></g><g
     id="g57"
     transform="translate(0,-480)" /><g
     id="g59"
     transform="translate(0,-480)" /><g
     id="g61"
     transform="translate(0,-480)" /><g
     id="g63"
     transform="translate(0,-480)" /><g
     id="g65"
     transform="translate(0,-480)" /><g
     id="g67"
     transform="translate(0,-480)" /><g
     id="g69"
     transform="translate(0,-480)" /><g
     id="g71"
     transform="translate(0,-480)" /><g
     id="g73"
     transform="translate(0,-480)" /><g
     id="g75"
     transform="translate(0,-480)" /><g
     id="g77"
     transform="translate(0,-480)" /><g
     id="g79"
     transform="translate(0,-480)" /><g
     id="g81"
     transform="translate(0,-480)" /><g
     id="g83"
     transform="translate(0,-480)" /><g
     id="g85"
     transform="translate(0,-480)" /></svg>